<mxfile host="app.diagrams.net" modified="2022-03-27T12:25:56.318Z" agent="5.0 (Windows NT 10.0; Win64; x64) AppleWebKit/537.36 (KHTML, like Gecko) Chrome/99.0.4844.74 Safari/537.36 Edg/99.0.1150.52" etag="7eXDdNs3pzgF1vTj_eIS" version="17.2.4" type="github" pages="2">
  <diagram id="w1m4uCXCzEU8vSfBXGaD" name="Page-1">
    <mxGraphModel dx="2565" dy="969" grid="1" gridSize="10" guides="1" tooltips="1" connect="1" arrows="1" fold="1" page="1" pageScale="1" pageWidth="827" pageHeight="1169" math="0" shadow="0">
      <root>
        <mxCell id="0" />
        <mxCell id="1" parent="0" />
        <mxCell id="Bfg6nKgG0fMPcmmVFHxW-27" style="edgeStyle=orthogonalEdgeStyle;rounded=0;orthogonalLoop=1;jettySize=auto;html=1;exitX=0.5;exitY=1;exitDx=0;exitDy=0;fontFamily=Times New Roman;fontSize=18;strokeWidth=1.5;" parent="1" source="Bfg6nKgG0fMPcmmVFHxW-1" target="Bfg6nKgG0fMPcmmVFHxW-2" edge="1">
          <mxGeometry relative="1" as="geometry" />
        </mxCell>
        <mxCell id="Bfg6nKgG0fMPcmmVFHxW-1" value="&lt;font face=&quot;Times New Roman&quot; style=&quot;font-size: 24px&quot;&gt;3×3 Conv&lt;/font&gt;" style="rounded=1;whiteSpace=wrap;html=1;fillColor=#fff2cc;strokeColor=#d6b656;strokeWidth=1.5;" parent="1" vertex="1">
          <mxGeometry x="47" y="342" width="130" height="40" as="geometry" />
        </mxCell>
        <mxCell id="Bfg6nKgG0fMPcmmVFHxW-28" style="edgeStyle=orthogonalEdgeStyle;rounded=0;orthogonalLoop=1;jettySize=auto;html=1;exitX=0.5;exitY=1;exitDx=0;exitDy=0;fontFamily=Times New Roman;fontSize=18;strokeWidth=1.5;" parent="1" source="Bfg6nKgG0fMPcmmVFHxW-2" target="Bfg6nKgG0fMPcmmVFHxW-3" edge="1">
          <mxGeometry relative="1" as="geometry" />
        </mxCell>
        <mxCell id="Bfg6nKgG0fMPcmmVFHxW-2" value="&lt;font face=&quot;Times New Roman&quot; style=&quot;font-size: 20px&quot;&gt;InstanceNorm&lt;/font&gt;" style="rounded=1;whiteSpace=wrap;html=1;fillColor=#dae8fc;strokeColor=#6c8ebf;strokeWidth=1.5;" parent="1" vertex="1">
          <mxGeometry x="47" y="416" width="130" height="40" as="geometry" />
        </mxCell>
        <mxCell id="Bfg6nKgG0fMPcmmVFHxW-24" style="edgeStyle=orthogonalEdgeStyle;rounded=0;orthogonalLoop=1;jettySize=auto;html=1;exitX=0.5;exitY=1;exitDx=0;exitDy=0;entryX=0.5;entryY=0;entryDx=0;entryDy=0;fontFamily=Times New Roman;fontSize=18;strokeWidth=1.5;" parent="1" source="Bfg6nKgG0fMPcmmVFHxW-3" target="Bfg6nKgG0fMPcmmVFHxW-4" edge="1">
          <mxGeometry relative="1" as="geometry" />
        </mxCell>
        <mxCell id="Bfg6nKgG0fMPcmmVFHxW-3" value="&lt;font face=&quot;Times New Roman&quot; style=&quot;font-size: 24px&quot;&gt;LeakyReLu&lt;/font&gt;" style="rounded=1;whiteSpace=wrap;html=1;fillColor=#d5e8d4;strokeColor=#82b366;strokeWidth=1.5;" parent="1" vertex="1">
          <mxGeometry x="47" y="490" width="130" height="40" as="geometry" />
        </mxCell>
        <mxCell id="Bfg6nKgG0fMPcmmVFHxW-25" style="edgeStyle=orthogonalEdgeStyle;rounded=0;orthogonalLoop=1;jettySize=auto;html=1;exitX=0.5;exitY=1;exitDx=0;exitDy=0;fontFamily=Times New Roman;fontSize=18;strokeWidth=1.5;" parent="1" source="Bfg6nKgG0fMPcmmVFHxW-4" target="Bfg6nKgG0fMPcmmVFHxW-5" edge="1">
          <mxGeometry relative="1" as="geometry" />
        </mxCell>
        <mxCell id="Bfg6nKgG0fMPcmmVFHxW-4" value="&lt;font style=&quot;font-size: 24px&quot; face=&quot;Times New Roman&quot;&gt;1×1&amp;nbsp;Conv&lt;/font&gt;" style="rounded=1;whiteSpace=wrap;html=1;fillColor=#fff2cc;strokeColor=#d6b656;strokeWidth=1.5;" parent="1" vertex="1">
          <mxGeometry x="47" y="563" width="130" height="40" as="geometry" />
        </mxCell>
        <mxCell id="Bfg6nKgG0fMPcmmVFHxW-26" style="edgeStyle=orthogonalEdgeStyle;rounded=0;orthogonalLoop=1;jettySize=auto;html=1;exitX=0.5;exitY=1;exitDx=0;exitDy=0;fontFamily=Times New Roman;fontSize=18;strokeWidth=1.5;" parent="1" source="Bfg6nKgG0fMPcmmVFHxW-5" target="Bfg6nKgG0fMPcmmVFHxW-6" edge="1">
          <mxGeometry relative="1" as="geometry" />
        </mxCell>
        <mxCell id="Bfg6nKgG0fMPcmmVFHxW-5" value="&lt;font face=&quot;Times New Roman&quot; style=&quot;font-size: 20px&quot;&gt;InstanceNorm&lt;/font&gt;" style="rounded=1;whiteSpace=wrap;html=1;fillColor=#dae8fc;strokeColor=#6c8ebf;strokeWidth=1.5;" parent="1" vertex="1">
          <mxGeometry x="47" y="637" width="130" height="40" as="geometry" />
        </mxCell>
        <mxCell id="3jHYdzmIjT68MH6RjkFP-5" style="edgeStyle=orthogonalEdgeStyle;rounded=0;orthogonalLoop=1;jettySize=auto;html=1;exitX=0.5;exitY=1;exitDx=0;exitDy=0;entryX=0.5;entryY=0;entryDx=0;entryDy=0;fontSize=20;strokeWidth=1.5;" parent="1" source="Bfg6nKgG0fMPcmmVFHxW-6" target="Bfg6nKgG0fMPcmmVFHxW-10" edge="1">
          <mxGeometry relative="1" as="geometry" />
        </mxCell>
        <mxCell id="Bfg6nKgG0fMPcmmVFHxW-6" value="&lt;font face=&quot;Times New Roman&quot; style=&quot;font-size: 24px&quot;&gt;LeakyReLu&lt;/font&gt;" style="rounded=1;whiteSpace=wrap;html=1;fillColor=#d5e8d4;strokeColor=#82b366;strokeWidth=1.5;" parent="1" vertex="1">
          <mxGeometry x="47" y="711" width="130" height="40" as="geometry" />
        </mxCell>
        <mxCell id="3jHYdzmIjT68MH6RjkFP-13" style="edgeStyle=orthogonalEdgeStyle;rounded=0;orthogonalLoop=1;jettySize=auto;html=1;exitX=0.5;exitY=1;exitDx=0;exitDy=0;entryX=0;entryY=0.5;entryDx=0;entryDy=0;fontFamily=Times New Roman;fontSize=20;strokeWidth=1.5;" parent="1" source="Bfg6nKgG0fMPcmmVFHxW-10" target="3jHYdzmIjT68MH6RjkFP-12" edge="1">
          <mxGeometry relative="1" as="geometry" />
        </mxCell>
        <mxCell id="Bfg6nKgG0fMPcmmVFHxW-10" value="" style="shape=orEllipse;perimeter=ellipsePerimeter;whiteSpace=wrap;html=1;backgroundOutline=1;fontFamily=Times New Roman;fontSize=18;strokeWidth=1.5;" parent="1" vertex="1">
          <mxGeometry x="99" y="791" width="25" height="25" as="geometry" />
        </mxCell>
        <mxCell id="Bfg6nKgG0fMPcmmVFHxW-32" style="edgeStyle=orthogonalEdgeStyle;rounded=0;orthogonalLoop=1;jettySize=auto;html=1;exitX=0.5;exitY=1;exitDx=0;exitDy=0;fontFamily=Times New Roman;fontSize=18;strokeWidth=1.5;" parent="1" source="Bfg6nKgG0fMPcmmVFHxW-12" target="Bfg6nKgG0fMPcmmVFHxW-13" edge="1">
          <mxGeometry relative="1" as="geometry" />
        </mxCell>
        <mxCell id="Bfg6nKgG0fMPcmmVFHxW-12" value="&lt;font face=&quot;Times New Roman&quot; style=&quot;font-size: 24px&quot;&gt;3×3 Conv&lt;/font&gt;" style="rounded=1;whiteSpace=wrap;html=1;fillColor=#fff2cc;strokeColor=#d6b656;strokeWidth=1.5;" parent="1" vertex="1">
          <mxGeometry x="319" y="435" width="130" height="40" as="geometry" />
        </mxCell>
        <mxCell id="Bfg6nKgG0fMPcmmVFHxW-33" style="edgeStyle=orthogonalEdgeStyle;rounded=0;orthogonalLoop=1;jettySize=auto;html=1;exitX=0.5;exitY=1;exitDx=0;exitDy=0;fontFamily=Times New Roman;fontSize=18;strokeWidth=1.5;" parent="1" source="Bfg6nKgG0fMPcmmVFHxW-13" target="Bfg6nKgG0fMPcmmVFHxW-14" edge="1">
          <mxGeometry relative="1" as="geometry" />
        </mxCell>
        <mxCell id="Bfg6nKgG0fMPcmmVFHxW-13" value="&lt;font face=&quot;Times New Roman&quot; style=&quot;font-size: 20px&quot;&gt;InstanceNorm&lt;/font&gt;" style="rounded=1;whiteSpace=wrap;html=1;fillColor=#dae8fc;strokeColor=#6c8ebf;strokeWidth=1.5;" parent="1" vertex="1">
          <mxGeometry x="319" y="504" width="130" height="40" as="geometry" />
        </mxCell>
        <mxCell id="3jHYdzmIjT68MH6RjkFP-1" style="edgeStyle=orthogonalEdgeStyle;rounded=0;orthogonalLoop=1;jettySize=auto;html=1;exitX=0.5;exitY=1;exitDx=0;exitDy=0;entryX=0;entryY=0.5;entryDx=0;entryDy=0;fontSize=20;strokeWidth=1.5;" parent="1" source="Bfg6nKgG0fMPcmmVFHxW-14" target="Bfg6nKgG0fMPcmmVFHxW-34" edge="1">
          <mxGeometry relative="1" as="geometry" />
        </mxCell>
        <mxCell id="Bfg6nKgG0fMPcmmVFHxW-14" value="&lt;span style=&quot;font-family: &amp;#34;times new roman&amp;#34;&quot;&gt;&lt;font style=&quot;font-size: 24px&quot;&gt;ReLu&lt;/font&gt;&lt;/span&gt;" style="rounded=1;whiteSpace=wrap;html=1;fillColor=#d5e8d4;strokeColor=#82b366;strokeWidth=1.5;" parent="1" vertex="1">
          <mxGeometry x="319" y="570" width="130" height="40" as="geometry" />
        </mxCell>
        <mxCell id="Bfg6nKgG0fMPcmmVFHxW-29" style="edgeStyle=orthogonalEdgeStyle;rounded=0;orthogonalLoop=1;jettySize=auto;html=1;exitX=0.5;exitY=1;exitDx=0;exitDy=0;fontFamily=Times New Roman;fontSize=18;strokeWidth=1.5;" parent="1" source="Bfg6nKgG0fMPcmmVFHxW-15" target="Bfg6nKgG0fMPcmmVFHxW-16" edge="1">
          <mxGeometry relative="1" as="geometry" />
        </mxCell>
        <mxCell id="Bfg6nKgG0fMPcmmVFHxW-15" value="&lt;font face=&quot;Times New Roman&quot; style=&quot;font-size: 24px&quot;&gt;3×3 Conv&lt;/font&gt;" style="rounded=1;whiteSpace=wrap;html=1;fillColor=#fff2cc;strokeColor=#d6b656;strokeWidth=1.5;" parent="1" vertex="1">
          <mxGeometry x="488" y="350" width="130" height="40" as="geometry" />
        </mxCell>
        <mxCell id="Bfg6nKgG0fMPcmmVFHxW-30" style="edgeStyle=orthogonalEdgeStyle;rounded=0;orthogonalLoop=1;jettySize=auto;html=1;exitX=0.5;exitY=1;exitDx=0;exitDy=0;fontFamily=Times New Roman;fontSize=18;strokeWidth=1.5;" parent="1" source="Bfg6nKgG0fMPcmmVFHxW-16" target="Bfg6nKgG0fMPcmmVFHxW-17" edge="1">
          <mxGeometry relative="1" as="geometry" />
        </mxCell>
        <mxCell id="Bfg6nKgG0fMPcmmVFHxW-16" value="&lt;font face=&quot;Times New Roman&quot; style=&quot;font-size: 20px&quot;&gt;InstanceNorm&lt;/font&gt;" style="rounded=1;whiteSpace=wrap;html=1;fillColor=#dae8fc;strokeColor=#6c8ebf;strokeWidth=1.5;" parent="1" vertex="1">
          <mxGeometry x="488" y="416" width="130" height="40" as="geometry" />
        </mxCell>
        <mxCell id="Bfg6nKgG0fMPcmmVFHxW-31" style="edgeStyle=orthogonalEdgeStyle;rounded=0;orthogonalLoop=1;jettySize=auto;html=1;exitX=0.5;exitY=1;exitDx=0;exitDy=0;fontFamily=Times New Roman;fontSize=18;strokeWidth=1.5;" parent="1" source="Bfg6nKgG0fMPcmmVFHxW-17" target="Bfg6nKgG0fMPcmmVFHxW-18" edge="1">
          <mxGeometry relative="1" as="geometry" />
        </mxCell>
        <mxCell id="Bfg6nKgG0fMPcmmVFHxW-17" value="&lt;font face=&quot;Times New Roman&quot; style=&quot;font-size: 24px&quot;&gt;ReLu&lt;/font&gt;" style="rounded=1;whiteSpace=wrap;html=1;fillColor=#d5e8d4;strokeColor=#82b366;strokeWidth=1.5;" parent="1" vertex="1">
          <mxGeometry x="488" y="482" width="130" height="40" as="geometry" />
        </mxCell>
        <mxCell id="Bfg6nKgG0fMPcmmVFHxW-22" style="edgeStyle=orthogonalEdgeStyle;rounded=0;orthogonalLoop=1;jettySize=auto;html=1;exitX=0.5;exitY=1;exitDx=0;exitDy=0;entryX=0.5;entryY=0;entryDx=0;entryDy=0;fontFamily=Times New Roman;fontSize=18;strokeWidth=1.5;" parent="1" source="Bfg6nKgG0fMPcmmVFHxW-18" target="Bfg6nKgG0fMPcmmVFHxW-19" edge="1">
          <mxGeometry relative="1" as="geometry" />
        </mxCell>
        <mxCell id="Bfg6nKgG0fMPcmmVFHxW-18" value="&lt;font style=&quot;font-size: 24px&quot;&gt;&lt;span style=&quot;font-family: &amp;#34;times new roman&amp;#34;&quot;&gt;1×&lt;/span&gt;&lt;span style=&quot;font-family: &amp;#34;times new roman&amp;#34;&quot;&gt;1&lt;/span&gt;&lt;font face=&quot;Times New Roman&quot;&gt;&amp;nbsp;Conv&lt;/font&gt;&lt;/font&gt;" style="rounded=1;whiteSpace=wrap;html=1;fillColor=#fff2cc;strokeColor=#d6b656;strokeWidth=1.5;" parent="1" vertex="1">
          <mxGeometry x="488" y="548" width="130" height="40" as="geometry" />
        </mxCell>
        <mxCell id="Bfg6nKgG0fMPcmmVFHxW-21" value="" style="edgeStyle=orthogonalEdgeStyle;rounded=0;orthogonalLoop=1;jettySize=auto;html=1;fontFamily=Times New Roman;fontSize=18;strokeWidth=1.5;" parent="1" source="Bfg6nKgG0fMPcmmVFHxW-19" target="Bfg6nKgG0fMPcmmVFHxW-20" edge="1">
          <mxGeometry relative="1" as="geometry" />
        </mxCell>
        <mxCell id="Bfg6nKgG0fMPcmmVFHxW-19" value="&lt;font face=&quot;Times New Roman&quot; style=&quot;font-size: 20px&quot;&gt;InstanceNorm&lt;/font&gt;" style="rounded=1;whiteSpace=wrap;html=1;fillColor=#dae8fc;strokeColor=#6c8ebf;strokeWidth=1.5;" parent="1" vertex="1">
          <mxGeometry x="488" y="614" width="130" height="40" as="geometry" />
        </mxCell>
        <mxCell id="3jHYdzmIjT68MH6RjkFP-8" style="edgeStyle=orthogonalEdgeStyle;rounded=0;orthogonalLoop=1;jettySize=auto;html=1;exitX=0.5;exitY=1;exitDx=0;exitDy=0;entryX=0.5;entryY=0;entryDx=0;entryDy=0;fontSize=20;strokeWidth=1.5;" parent="1" source="Bfg6nKgG0fMPcmmVFHxW-20" target="Bfg6nKgG0fMPcmmVFHxW-34" edge="1">
          <mxGeometry relative="1" as="geometry" />
        </mxCell>
        <mxCell id="Bfg6nKgG0fMPcmmVFHxW-20" value="&lt;span style=&quot;font-family: &amp;#34;times new roman&amp;#34;&quot;&gt;&lt;font style=&quot;font-size: 24px&quot;&gt;ReLu&lt;/font&gt;&lt;/span&gt;" style="rounded=1;whiteSpace=wrap;html=1;fillColor=#d5e8d4;strokeColor=#82b366;strokeWidth=1.5;" parent="1" vertex="1">
          <mxGeometry x="488" y="680" width="130" height="40" as="geometry" />
        </mxCell>
        <mxCell id="3jHYdzmIjT68MH6RjkFP-14" style="edgeStyle=orthogonalEdgeStyle;rounded=0;orthogonalLoop=1;jettySize=auto;html=1;exitX=0.5;exitY=1;exitDx=0;exitDy=0;entryX=1;entryY=0.5;entryDx=0;entryDy=0;fontFamily=Times New Roman;fontSize=20;strokeWidth=1.5;" parent="1" source="Bfg6nKgG0fMPcmmVFHxW-34" target="3jHYdzmIjT68MH6RjkFP-12" edge="1">
          <mxGeometry relative="1" as="geometry" />
        </mxCell>
        <mxCell id="Bfg6nKgG0fMPcmmVFHxW-34" value="" style="shape=sumEllipse;perimeter=ellipsePerimeter;whiteSpace=wrap;html=1;backgroundOutline=1;fontFamily=Times New Roman;fontSize=18;strokeWidth=1.5;" parent="1" vertex="1">
          <mxGeometry x="540" y="820" width="25" height="25" as="geometry" />
        </mxCell>
        <mxCell id="Bfg6nKgG0fMPcmmVFHxW-35" style="edgeStyle=orthogonalEdgeStyle;rounded=0;orthogonalLoop=1;jettySize=auto;html=1;exitX=0.5;exitY=1;exitDx=0;exitDy=0;fontFamily=Times New Roman;fontSize=18;strokeWidth=1.5;" parent="1" source="Bfg6nKgG0fMPcmmVFHxW-36" target="Bfg6nKgG0fMPcmmVFHxW-38" edge="1">
          <mxGeometry relative="1" as="geometry" />
        </mxCell>
        <mxCell id="Bfg6nKgG0fMPcmmVFHxW-36" value="&lt;font face=&quot;Times New Roman&quot; style=&quot;font-size: 24px&quot;&gt;3×3 Conv&lt;/font&gt;" style="rounded=1;whiteSpace=wrap;html=1;fillColor=#fff2cc;strokeColor=#d6b656;strokeWidth=1.5;" parent="1" vertex="1">
          <mxGeometry x="660" y="462" width="130" height="40" as="geometry" />
        </mxCell>
        <mxCell id="Bfg6nKgG0fMPcmmVFHxW-37" style="edgeStyle=orthogonalEdgeStyle;rounded=0;orthogonalLoop=1;jettySize=auto;html=1;exitX=0.5;exitY=1;exitDx=0;exitDy=0;fontFamily=Times New Roman;fontSize=18;strokeWidth=1.5;" parent="1" source="Bfg6nKgG0fMPcmmVFHxW-38" target="Bfg6nKgG0fMPcmmVFHxW-40" edge="1">
          <mxGeometry relative="1" as="geometry" />
        </mxCell>
        <mxCell id="Bfg6nKgG0fMPcmmVFHxW-38" value="&lt;font face=&quot;Times New Roman&quot; style=&quot;font-size: 20px&quot;&gt;InstanceNorm&lt;/font&gt;" style="rounded=1;whiteSpace=wrap;html=1;fillColor=#dae8fc;strokeColor=#6c8ebf;strokeWidth=1.5;" parent="1" vertex="1">
          <mxGeometry x="660" y="526" width="130" height="40" as="geometry" />
        </mxCell>
        <mxCell id="Bfg6nKgG0fMPcmmVFHxW-39" style="edgeStyle=orthogonalEdgeStyle;rounded=0;orthogonalLoop=1;jettySize=auto;html=1;exitX=0.5;exitY=1;exitDx=0;exitDy=0;fontFamily=Times New Roman;fontSize=18;strokeWidth=1.5;" parent="1" source="Bfg6nKgG0fMPcmmVFHxW-40" target="Bfg6nKgG0fMPcmmVFHxW-42" edge="1">
          <mxGeometry relative="1" as="geometry" />
        </mxCell>
        <mxCell id="Bfg6nKgG0fMPcmmVFHxW-40" value="&lt;font face=&quot;Times New Roman&quot; style=&quot;font-size: 24px&quot;&gt;ReLu&lt;/font&gt;" style="rounded=1;whiteSpace=wrap;html=1;fillColor=#d5e8d4;strokeColor=#82b366;strokeWidth=1.5;" parent="1" vertex="1">
          <mxGeometry x="660" y="589" width="130" height="40" as="geometry" />
        </mxCell>
        <mxCell id="Bfg6nKgG0fMPcmmVFHxW-41" style="edgeStyle=orthogonalEdgeStyle;rounded=0;orthogonalLoop=1;jettySize=auto;html=1;exitX=0.5;exitY=1;exitDx=0;exitDy=0;entryX=0.5;entryY=0;entryDx=0;entryDy=0;fontFamily=Times New Roman;fontSize=18;strokeWidth=1.5;" parent="1" source="Bfg6nKgG0fMPcmmVFHxW-42" target="Bfg6nKgG0fMPcmmVFHxW-44" edge="1">
          <mxGeometry relative="1" as="geometry" />
        </mxCell>
        <mxCell id="Bfg6nKgG0fMPcmmVFHxW-42" value="&lt;font style=&quot;font-size: 24px&quot;&gt;&lt;span style=&quot;font-family: &amp;#34;times new roman&amp;#34;&quot;&gt;1×&lt;/span&gt;&lt;span style=&quot;font-family: &amp;#34;times new roman&amp;#34;&quot;&gt;1&lt;/span&gt;&lt;font face=&quot;Times New Roman&quot;&gt;&amp;nbsp;Conv&lt;/font&gt;&lt;/font&gt;" style="rounded=1;whiteSpace=wrap;html=1;fillColor=#fff2cc;strokeColor=#d6b656;strokeWidth=1.5;" parent="1" vertex="1">
          <mxGeometry x="660" y="652" width="130" height="40" as="geometry" />
        </mxCell>
        <mxCell id="Bfg6nKgG0fMPcmmVFHxW-43" value="" style="edgeStyle=orthogonalEdgeStyle;rounded=0;orthogonalLoop=1;jettySize=auto;html=1;fontFamily=Times New Roman;fontSize=18;strokeWidth=1.5;" parent="1" source="Bfg6nKgG0fMPcmmVFHxW-44" target="Bfg6nKgG0fMPcmmVFHxW-45" edge="1">
          <mxGeometry relative="1" as="geometry" />
        </mxCell>
        <mxCell id="Bfg6nKgG0fMPcmmVFHxW-44" value="&lt;font face=&quot;Times New Roman&quot; style=&quot;font-size: 20px&quot;&gt;InstanceNorm&lt;/font&gt;" style="rounded=1;whiteSpace=wrap;html=1;fillColor=#dae8fc;strokeColor=#6c8ebf;strokeWidth=1.5;" parent="1" vertex="1">
          <mxGeometry x="660" y="716" width="130" height="40" as="geometry" />
        </mxCell>
        <mxCell id="3jHYdzmIjT68MH6RjkFP-3" style="edgeStyle=orthogonalEdgeStyle;rounded=0;orthogonalLoop=1;jettySize=auto;html=1;exitX=0.5;exitY=1;exitDx=0;exitDy=0;entryX=1;entryY=0.5;entryDx=0;entryDy=0;fontSize=20;strokeWidth=1.5;" parent="1" source="Bfg6nKgG0fMPcmmVFHxW-45" target="Bfg6nKgG0fMPcmmVFHxW-34" edge="1">
          <mxGeometry relative="1" as="geometry">
            <Array as="points">
              <mxPoint x="725" y="833" />
              <mxPoint x="612" y="833" />
            </Array>
          </mxGeometry>
        </mxCell>
        <mxCell id="Bfg6nKgG0fMPcmmVFHxW-45" value="&lt;span style=&quot;font-family: &amp;#34;times new roman&amp;#34;&quot;&gt;&lt;font style=&quot;font-size: 24px&quot;&gt;ReLu&lt;/font&gt;&lt;/span&gt;" style="rounded=1;whiteSpace=wrap;html=1;fillColor=#d5e8d4;strokeColor=#82b366;strokeWidth=1.5;" parent="1" vertex="1">
          <mxGeometry x="660" y="779" width="130" height="40" as="geometry" />
        </mxCell>
        <mxCell id="Bfg6nKgG0fMPcmmVFHxW-47" style="edgeStyle=orthogonalEdgeStyle;rounded=0;orthogonalLoop=1;jettySize=auto;html=1;exitX=0.5;exitY=1;exitDx=0;exitDy=0;entryX=0.5;entryY=0;entryDx=0;entryDy=0;fontFamily=Times New Roman;fontSize=18;strokeWidth=1.5;" parent="1" source="Bfg6nKgG0fMPcmmVFHxW-48" target="Bfg6nKgG0fMPcmmVFHxW-50" edge="1">
          <mxGeometry relative="1" as="geometry" />
        </mxCell>
        <mxCell id="Bfg6nKgG0fMPcmmVFHxW-48" value="&lt;font style=&quot;font-size: 24px&quot;&gt;&lt;span style=&quot;font-family: &amp;#34;times new roman&amp;#34;&quot;&gt;1×&lt;/span&gt;&lt;span style=&quot;font-family: &amp;#34;times new roman&amp;#34;&quot;&gt;1&lt;/span&gt;&lt;font face=&quot;Times New Roman&quot;&gt;&amp;nbsp;Conv&lt;/font&gt;&lt;/font&gt;" style="rounded=1;whiteSpace=wrap;html=1;fillColor=#fff2cc;strokeColor=#d6b656;strokeWidth=1.5;" parent="1" vertex="1">
          <mxGeometry x="660" y="272" width="130" height="40" as="geometry" />
        </mxCell>
        <mxCell id="Bfg6nKgG0fMPcmmVFHxW-49" value="" style="edgeStyle=orthogonalEdgeStyle;rounded=0;orthogonalLoop=1;jettySize=auto;html=1;fontFamily=Times New Roman;fontSize=18;strokeWidth=1.5;" parent="1" source="Bfg6nKgG0fMPcmmVFHxW-50" target="Bfg6nKgG0fMPcmmVFHxW-51" edge="1">
          <mxGeometry relative="1" as="geometry" />
        </mxCell>
        <mxCell id="Bfg6nKgG0fMPcmmVFHxW-50" value="&lt;font face=&quot;Times New Roman&quot; style=&quot;font-size: 20px&quot;&gt;InstanceNorm&lt;/font&gt;" style="rounded=1;whiteSpace=wrap;html=1;fillColor=#dae8fc;strokeColor=#6c8ebf;strokeWidth=1.5;" parent="1" vertex="1">
          <mxGeometry x="660" y="335" width="130" height="40" as="geometry" />
        </mxCell>
        <mxCell id="Bfg6nKgG0fMPcmmVFHxW-52" style="edgeStyle=orthogonalEdgeStyle;rounded=0;orthogonalLoop=1;jettySize=auto;html=1;exitX=0.5;exitY=1;exitDx=0;exitDy=0;entryX=0.5;entryY=0;entryDx=0;entryDy=0;fontFamily=Times New Roman;fontSize=18;strokeWidth=1.5;" parent="1" source="Bfg6nKgG0fMPcmmVFHxW-51" target="Bfg6nKgG0fMPcmmVFHxW-36" edge="1">
          <mxGeometry relative="1" as="geometry" />
        </mxCell>
        <mxCell id="Bfg6nKgG0fMPcmmVFHxW-51" value="&lt;span style=&quot;font-family: &amp;#34;times new roman&amp;#34;&quot;&gt;&lt;font style=&quot;font-size: 24px&quot;&gt;ReLu&lt;/font&gt;&lt;/span&gt;" style="rounded=1;whiteSpace=wrap;html=1;fillColor=#d5e8d4;strokeColor=#82b366;strokeWidth=1.5;" parent="1" vertex="1">
          <mxGeometry x="660" y="399" width="130" height="40" as="geometry" />
        </mxCell>
        <mxCell id="3jHYdzmIjT68MH6RjkFP-11" style="edgeStyle=orthogonalEdgeStyle;rounded=0;orthogonalLoop=1;jettySize=auto;html=1;fontFamily=Times New Roman;fontSize=18;strokeWidth=1.5;entryX=0.5;entryY=0;entryDx=0;entryDy=0;" parent="1" target="Bfg6nKgG0fMPcmmVFHxW-1" edge="1">
          <mxGeometry relative="1" as="geometry">
            <mxPoint x="380" y="228" as="sourcePoint" />
            <mxPoint x="112" y="340" as="targetPoint" />
            <Array as="points">
              <mxPoint x="112" y="228" />
            </Array>
          </mxGeometry>
        </mxCell>
        <mxCell id="egjZUHoSYWsmysYOWxgm-8" style="edgeStyle=orthogonalEdgeStyle;rounded=0;orthogonalLoop=1;jettySize=auto;html=1;exitX=0.5;exitY=1;exitDx=0;exitDy=0;strokeWidth=2;" parent="1" source="3jHYdzmIjT68MH6RjkFP-12" target="3jHYdzmIjT68MH6RjkFP-15" edge="1">
          <mxGeometry relative="1" as="geometry" />
        </mxCell>
        <mxCell id="3jHYdzmIjT68MH6RjkFP-12" value="" style="shape=orEllipse;perimeter=ellipsePerimeter;whiteSpace=wrap;html=1;backgroundOutline=1;fontFamily=Times New Roman;fontSize=18;strokeWidth=1.5;" parent="1" vertex="1">
          <mxGeometry x="320" y="861" width="25" height="25" as="geometry" />
        </mxCell>
        <mxCell id="egjZUHoSYWsmysYOWxgm-9" style="edgeStyle=orthogonalEdgeStyle;rounded=0;orthogonalLoop=1;jettySize=auto;html=1;strokeWidth=2;" parent="1" source="3jHYdzmIjT68MH6RjkFP-15" edge="1">
          <mxGeometry relative="1" as="geometry">
            <mxPoint x="332.5" y="1001" as="targetPoint" />
          </mxGeometry>
        </mxCell>
        <mxCell id="3jHYdzmIjT68MH6RjkFP-15" value="&lt;font face=&quot;Times New Roman&quot; style=&quot;font-size: 24px&quot;&gt;LeakyReLu&lt;/font&gt;" style="rounded=1;whiteSpace=wrap;html=1;fillColor=#d5e8d4;strokeColor=#82b366;strokeWidth=1.5;" parent="1" vertex="1">
          <mxGeometry x="267.5" y="921" width="130" height="40" as="geometry" />
        </mxCell>
        <mxCell id="egjZUHoSYWsmysYOWxgm-4" style="edgeStyle=orthogonalEdgeStyle;rounded=0;orthogonalLoop=1;jettySize=auto;html=1;fontFamily=Times New Roman;fontSize=18;strokeWidth=1.5;entryX=0.5;entryY=0;entryDx=0;entryDy=0;" parent="1" target="Bfg6nKgG0fMPcmmVFHxW-48" edge="1">
          <mxGeometry relative="1" as="geometry">
            <mxPoint x="552" y="246" as="sourcePoint" />
            <mxPoint x="725" y="270" as="targetPoint" />
            <Array as="points">
              <mxPoint x="552" y="250" />
              <mxPoint x="725" y="250" />
            </Array>
          </mxGeometry>
        </mxCell>
        <mxCell id="egjZUHoSYWsmysYOWxgm-5" style="edgeStyle=orthogonalEdgeStyle;rounded=0;orthogonalLoop=1;jettySize=auto;html=1;fontFamily=Times New Roman;fontSize=18;strokeWidth=1.5;" parent="1" edge="1" target="Bfg6nKgG0fMPcmmVFHxW-12">
          <mxGeometry relative="1" as="geometry">
            <mxPoint x="560" y="250" as="sourcePoint" />
            <mxPoint x="380" y="430" as="targetPoint" />
          </mxGeometry>
        </mxCell>
        <mxCell id="egjZUHoSYWsmysYOWxgm-7" value="" style="endArrow=none;html=1;rounded=0;strokeWidth=1.5;" parent="1" edge="1">
          <mxGeometry width="50" height="50" relative="1" as="geometry">
            <mxPoint x="320" y="227" as="sourcePoint" />
            <mxPoint x="320" y="170" as="targetPoint" />
          </mxGeometry>
        </mxCell>
        <mxCell id="egjZUHoSYWsmysYOWxgm-12" style="edgeStyle=orthogonalEdgeStyle;rounded=0;orthogonalLoop=1;jettySize=auto;html=1;fontFamily=Times New Roman;fontSize=18;strokeWidth=1.5;entryX=1;entryY=0.5;entryDx=0;entryDy=0;" parent="1" target="Bfg6nKgG0fMPcmmVFHxW-10" edge="1">
          <mxGeometry relative="1" as="geometry">
            <mxPoint x="112" y="233" as="sourcePoint" />
            <mxPoint x="130" y="803" as="targetPoint" />
            <Array as="points">
              <mxPoint x="112" y="300" />
              <mxPoint x="230" y="300" />
              <mxPoint x="230" y="804" />
            </Array>
          </mxGeometry>
        </mxCell>
        <mxCell id="p8e_ZHpzyLu8yFoi1KHn-1" style="edgeStyle=orthogonalEdgeStyle;rounded=0;orthogonalLoop=1;jettySize=auto;html=1;fontFamily=Times New Roman;fontSize=18;strokeWidth=1.5;" edge="1" parent="1" target="Bfg6nKgG0fMPcmmVFHxW-15">
          <mxGeometry relative="1" as="geometry">
            <mxPoint x="380" y="228" as="sourcePoint" />
            <mxPoint x="552" y="350" as="targetPoint" />
            <Array as="points">
              <mxPoint x="552" y="228" />
            </Array>
          </mxGeometry>
        </mxCell>
        <mxCell id="AGpdcb7Xpi-vE0QR0dg1-2" value="" style="rounded=0.8;whiteSpace=wrap;html=1;fontSize=24;dashed=1;gradientColor=#ffffff;fillColor=none;strokeColor=#97D077;strokeWidth=3;" vertex="1" parent="1">
          <mxGeometry x="291" y="241" width="530" height="612" as="geometry" />
        </mxCell>
        <mxCell id="AGpdcb7Xpi-vE0QR0dg1-3" value="" style="rounded=0.8;whiteSpace=wrap;html=1;fontSize=24;dashed=1;gradientColor=#ffffff;fillColor=none;strokeColor=#A9C4EB;strokeWidth=3;" vertex="1" parent="1">
          <mxGeometry x="8" y="241" width="257.5" height="612" as="geometry" />
        </mxCell>
        <mxCell id="AGpdcb7Xpi-vE0QR0dg1-4" value="&lt;font face=&quot;Times New Roman&quot;&gt;Part A&lt;/font&gt;" style="whiteSpace=wrap;html=1;rounded=1;dashed=1;fontSize=24;strokeColor=none;strokeWidth=3;fillColor=none;gradientColor=#ffffff;" vertex="1" parent="1">
          <mxGeometry x="-4" y="253" width="120" height="60" as="geometry" />
        </mxCell>
        <mxCell id="AGpdcb7Xpi-vE0QR0dg1-5" value="&lt;font face=&quot;Times New Roman&quot;&gt;Part B&lt;/font&gt;" style="whiteSpace=wrap;html=1;rounded=1;dashed=1;fontSize=24;strokeColor=none;strokeWidth=3;fillColor=none;gradientColor=#ffffff;" vertex="1" parent="1">
          <mxGeometry x="278" y="253" width="120" height="60" as="geometry" />
        </mxCell>
      </root>
    </mxGraphModel>
  </diagram>
  <diagram id="GXtcvL6THKRUHwmJEx3P" name="Page-2">
    <mxGraphModel dx="4737" dy="2180" grid="1" gridSize="10" guides="1" tooltips="1" connect="1" arrows="1" fold="1" page="1" pageScale="1" pageWidth="827" pageHeight="1169" math="0" shadow="0">
      <root>
        <mxCell id="0" />
        <mxCell id="1" parent="0" />
        <mxCell id="5YERZEK7RzYkh-wPf8vQ-1" style="edgeStyle=orthogonalEdgeStyle;rounded=0;orthogonalLoop=1;jettySize=auto;html=1;exitX=0.5;exitY=1;exitDx=0;exitDy=0;fontFamily=Times New Roman;fontSize=18;strokeWidth=1.5;" edge="1" parent="1" source="5YERZEK7RzYkh-wPf8vQ-2" target="5YERZEK7RzYkh-wPf8vQ-4">
          <mxGeometry relative="1" as="geometry" />
        </mxCell>
        <mxCell id="5YERZEK7RzYkh-wPf8vQ-2" value="&lt;font face=&quot;Times New Roman&quot; style=&quot;font-size: 24px&quot;&gt;3×3 Conv&lt;/font&gt;" style="rounded=1;whiteSpace=wrap;html=1;fillColor=#fff2cc;strokeColor=#d6b656;strokeWidth=1.5;" vertex="1" parent="1">
          <mxGeometry x="47" y="342" width="130" height="40" as="geometry" />
        </mxCell>
        <mxCell id="5YERZEK7RzYkh-wPf8vQ-3" style="edgeStyle=orthogonalEdgeStyle;rounded=0;orthogonalLoop=1;jettySize=auto;html=1;exitX=0.5;exitY=1;exitDx=0;exitDy=0;fontFamily=Times New Roman;fontSize=18;strokeWidth=1.5;" edge="1" parent="1" source="5YERZEK7RzYkh-wPf8vQ-4" target="5YERZEK7RzYkh-wPf8vQ-6">
          <mxGeometry relative="1" as="geometry" />
        </mxCell>
        <mxCell id="5YERZEK7RzYkh-wPf8vQ-4" value="&lt;font face=&quot;Times New Roman&quot; style=&quot;font-size: 20px&quot;&gt;InstanceNorm&lt;/font&gt;" style="rounded=1;whiteSpace=wrap;html=1;fillColor=#dae8fc;strokeColor=#6c8ebf;strokeWidth=1.5;" vertex="1" parent="1">
          <mxGeometry x="47" y="416" width="130" height="40" as="geometry" />
        </mxCell>
        <mxCell id="5YERZEK7RzYkh-wPf8vQ-5" style="edgeStyle=orthogonalEdgeStyle;rounded=0;orthogonalLoop=1;jettySize=auto;html=1;exitX=0.5;exitY=1;exitDx=0;exitDy=0;entryX=0.5;entryY=0;entryDx=0;entryDy=0;fontFamily=Times New Roman;fontSize=18;strokeWidth=1.5;" edge="1" parent="1" source="5YERZEK7RzYkh-wPf8vQ-6" target="5YERZEK7RzYkh-wPf8vQ-8">
          <mxGeometry relative="1" as="geometry" />
        </mxCell>
        <mxCell id="5YERZEK7RzYkh-wPf8vQ-6" value="&lt;font face=&quot;Times New Roman&quot; style=&quot;font-size: 24px&quot;&gt;LeakyReLu&lt;/font&gt;" style="rounded=1;whiteSpace=wrap;html=1;fillColor=#d5e8d4;strokeColor=#82b366;strokeWidth=1.5;" vertex="1" parent="1">
          <mxGeometry x="47" y="490" width="130" height="40" as="geometry" />
        </mxCell>
        <mxCell id="5YERZEK7RzYkh-wPf8vQ-7" style="edgeStyle=orthogonalEdgeStyle;rounded=0;orthogonalLoop=1;jettySize=auto;html=1;exitX=0.5;exitY=1;exitDx=0;exitDy=0;fontFamily=Times New Roman;fontSize=18;strokeWidth=1.5;" edge="1" parent="1" source="5YERZEK7RzYkh-wPf8vQ-8" target="5YERZEK7RzYkh-wPf8vQ-10">
          <mxGeometry relative="1" as="geometry" />
        </mxCell>
        <mxCell id="5YERZEK7RzYkh-wPf8vQ-8" value="&lt;font style=&quot;font-size: 24px&quot; face=&quot;Times New Roman&quot;&gt;1×1&amp;nbsp;Conv&lt;/font&gt;" style="rounded=1;whiteSpace=wrap;html=1;fillColor=#fff2cc;strokeColor=#d6b656;strokeWidth=1.5;" vertex="1" parent="1">
          <mxGeometry x="47" y="563" width="130" height="40" as="geometry" />
        </mxCell>
        <mxCell id="5YERZEK7RzYkh-wPf8vQ-9" style="edgeStyle=orthogonalEdgeStyle;rounded=0;orthogonalLoop=1;jettySize=auto;html=1;exitX=0.5;exitY=1;exitDx=0;exitDy=0;fontFamily=Times New Roman;fontSize=18;strokeWidth=1.5;" edge="1" parent="1" source="5YERZEK7RzYkh-wPf8vQ-10" target="5YERZEK7RzYkh-wPf8vQ-12">
          <mxGeometry relative="1" as="geometry" />
        </mxCell>
        <mxCell id="5YERZEK7RzYkh-wPf8vQ-10" value="&lt;font face=&quot;Times New Roman&quot; style=&quot;font-size: 20px&quot;&gt;InstanceNorm&lt;/font&gt;" style="rounded=1;whiteSpace=wrap;html=1;fillColor=#dae8fc;strokeColor=#6c8ebf;strokeWidth=1.5;" vertex="1" parent="1">
          <mxGeometry x="47" y="637" width="130" height="40" as="geometry" />
        </mxCell>
        <mxCell id="5YERZEK7RzYkh-wPf8vQ-11" style="edgeStyle=orthogonalEdgeStyle;rounded=0;orthogonalLoop=1;jettySize=auto;html=1;exitX=0.5;exitY=1;exitDx=0;exitDy=0;entryX=0.5;entryY=0;entryDx=0;entryDy=0;fontSize=20;strokeWidth=1.5;" edge="1" parent="1" source="5YERZEK7RzYkh-wPf8vQ-12" target="5YERZEK7RzYkh-wPf8vQ-14">
          <mxGeometry relative="1" as="geometry" />
        </mxCell>
        <mxCell id="5YERZEK7RzYkh-wPf8vQ-12" value="&lt;font face=&quot;Times New Roman&quot; style=&quot;font-size: 24px&quot;&gt;LeakyReLu&lt;/font&gt;" style="rounded=1;whiteSpace=wrap;html=1;fillColor=#d5e8d4;strokeColor=#82b366;strokeWidth=1.5;" vertex="1" parent="1">
          <mxGeometry x="47" y="711" width="130" height="40" as="geometry" />
        </mxCell>
        <mxCell id="5YERZEK7RzYkh-wPf8vQ-13" style="edgeStyle=orthogonalEdgeStyle;rounded=0;orthogonalLoop=1;jettySize=auto;html=1;exitX=0.5;exitY=1;exitDx=0;exitDy=0;entryX=0;entryY=0.5;entryDx=0;entryDy=0;fontFamily=Times New Roman;fontSize=20;strokeWidth=1.5;" edge="1" parent="1" source="5YERZEK7RzYkh-wPf8vQ-14" target="5YERZEK7RzYkh-wPf8vQ-55">
          <mxGeometry relative="1" as="geometry" />
        </mxCell>
        <mxCell id="5YERZEK7RzYkh-wPf8vQ-14" value="" style="shape=orEllipse;perimeter=ellipsePerimeter;whiteSpace=wrap;html=1;backgroundOutline=1;fontFamily=Times New Roman;fontSize=18;strokeWidth=1.5;" vertex="1" parent="1">
          <mxGeometry x="99" y="791" width="25" height="25" as="geometry" />
        </mxCell>
        <mxCell id="5YERZEK7RzYkh-wPf8vQ-15" style="edgeStyle=orthogonalEdgeStyle;rounded=0;orthogonalLoop=1;jettySize=auto;html=1;exitX=0.5;exitY=1;exitDx=0;exitDy=0;fontFamily=Times New Roman;fontSize=18;strokeWidth=1.5;" edge="1" parent="1" source="5YERZEK7RzYkh-wPf8vQ-16" target="5YERZEK7RzYkh-wPf8vQ-18">
          <mxGeometry relative="1" as="geometry" />
        </mxCell>
        <mxCell id="5YERZEK7RzYkh-wPf8vQ-16" value="&lt;font face=&quot;Times New Roman&quot; style=&quot;font-size: 24px&quot;&gt;3×3 Conv&lt;/font&gt;" style="rounded=1;whiteSpace=wrap;html=1;fillColor=#fff2cc;strokeColor=#d6b656;strokeWidth=1.5;" vertex="1" parent="1">
          <mxGeometry x="319" y="435" width="130" height="40" as="geometry" />
        </mxCell>
        <mxCell id="5YERZEK7RzYkh-wPf8vQ-17" style="edgeStyle=orthogonalEdgeStyle;rounded=0;orthogonalLoop=1;jettySize=auto;html=1;exitX=0.5;exitY=1;exitDx=0;exitDy=0;fontFamily=Times New Roman;fontSize=18;strokeWidth=1.5;" edge="1" parent="1" source="5YERZEK7RzYkh-wPf8vQ-18" target="5YERZEK7RzYkh-wPf8vQ-20">
          <mxGeometry relative="1" as="geometry" />
        </mxCell>
        <mxCell id="5YERZEK7RzYkh-wPf8vQ-18" value="&lt;font face=&quot;Times New Roman&quot; style=&quot;font-size: 20px&quot;&gt;InstanceNorm&lt;/font&gt;" style="rounded=1;whiteSpace=wrap;html=1;fillColor=#dae8fc;strokeColor=#6c8ebf;strokeWidth=1.5;" vertex="1" parent="1">
          <mxGeometry x="319" y="504" width="130" height="40" as="geometry" />
        </mxCell>
        <mxCell id="5YERZEK7RzYkh-wPf8vQ-19" style="edgeStyle=orthogonalEdgeStyle;rounded=0;orthogonalLoop=1;jettySize=auto;html=1;exitX=0.5;exitY=1;exitDx=0;exitDy=0;entryX=0;entryY=0.5;entryDx=0;entryDy=0;fontSize=20;strokeWidth=1.5;" edge="1" parent="1" source="5YERZEK7RzYkh-wPf8vQ-20" target="5YERZEK7RzYkh-wPf8vQ-34">
          <mxGeometry relative="1" as="geometry" />
        </mxCell>
        <mxCell id="5YERZEK7RzYkh-wPf8vQ-20" value="&lt;span style=&quot;font-family: &amp;#34;times new roman&amp;#34;&quot;&gt;&lt;font style=&quot;font-size: 24px&quot;&gt;ReLu&lt;/font&gt;&lt;/span&gt;" style="rounded=1;whiteSpace=wrap;html=1;fillColor=#d5e8d4;strokeColor=#82b366;strokeWidth=1.5;" vertex="1" parent="1">
          <mxGeometry x="319" y="570" width="130" height="40" as="geometry" />
        </mxCell>
        <mxCell id="5YERZEK7RzYkh-wPf8vQ-21" style="edgeStyle=orthogonalEdgeStyle;rounded=0;orthogonalLoop=1;jettySize=auto;html=1;exitX=0.5;exitY=1;exitDx=0;exitDy=0;fontFamily=Times New Roman;fontSize=18;strokeWidth=1.5;" edge="1" parent="1" source="5YERZEK7RzYkh-wPf8vQ-22" target="5YERZEK7RzYkh-wPf8vQ-24">
          <mxGeometry relative="1" as="geometry" />
        </mxCell>
        <mxCell id="5YERZEK7RzYkh-wPf8vQ-22" value="&lt;font face=&quot;Times New Roman&quot; style=&quot;font-size: 24px&quot;&gt;3×3 Conv&lt;/font&gt;" style="rounded=1;whiteSpace=wrap;html=1;fillColor=#fff2cc;strokeColor=#d6b656;strokeWidth=1.5;" vertex="1" parent="1">
          <mxGeometry x="488" y="350" width="130" height="40" as="geometry" />
        </mxCell>
        <mxCell id="5YERZEK7RzYkh-wPf8vQ-23" style="edgeStyle=orthogonalEdgeStyle;rounded=0;orthogonalLoop=1;jettySize=auto;html=1;exitX=0.5;exitY=1;exitDx=0;exitDy=0;fontFamily=Times New Roman;fontSize=18;strokeWidth=1.5;" edge="1" parent="1" source="5YERZEK7RzYkh-wPf8vQ-24" target="5YERZEK7RzYkh-wPf8vQ-26">
          <mxGeometry relative="1" as="geometry" />
        </mxCell>
        <mxCell id="5YERZEK7RzYkh-wPf8vQ-24" value="&lt;font face=&quot;Times New Roman&quot; style=&quot;font-size: 20px&quot;&gt;InstanceNorm&lt;/font&gt;" style="rounded=1;whiteSpace=wrap;html=1;fillColor=#dae8fc;strokeColor=#6c8ebf;strokeWidth=1.5;" vertex="1" parent="1">
          <mxGeometry x="488" y="416" width="130" height="40" as="geometry" />
        </mxCell>
        <mxCell id="5YERZEK7RzYkh-wPf8vQ-25" style="edgeStyle=orthogonalEdgeStyle;rounded=0;orthogonalLoop=1;jettySize=auto;html=1;exitX=0.5;exitY=1;exitDx=0;exitDy=0;fontFamily=Times New Roman;fontSize=18;strokeWidth=1.5;" edge="1" parent="1" source="5YERZEK7RzYkh-wPf8vQ-26" target="5YERZEK7RzYkh-wPf8vQ-28">
          <mxGeometry relative="1" as="geometry" />
        </mxCell>
        <mxCell id="5YERZEK7RzYkh-wPf8vQ-26" value="&lt;font face=&quot;Times New Roman&quot; style=&quot;font-size: 24px&quot;&gt;ReLu&lt;/font&gt;" style="rounded=1;whiteSpace=wrap;html=1;fillColor=#d5e8d4;strokeColor=#82b366;strokeWidth=1.5;" vertex="1" parent="1">
          <mxGeometry x="488" y="482" width="130" height="40" as="geometry" />
        </mxCell>
        <mxCell id="5YERZEK7RzYkh-wPf8vQ-27" style="edgeStyle=orthogonalEdgeStyle;rounded=0;orthogonalLoop=1;jettySize=auto;html=1;exitX=0.5;exitY=1;exitDx=0;exitDy=0;entryX=0.5;entryY=0;entryDx=0;entryDy=0;fontFamily=Times New Roman;fontSize=18;strokeWidth=1.5;" edge="1" parent="1" source="5YERZEK7RzYkh-wPf8vQ-28" target="5YERZEK7RzYkh-wPf8vQ-30">
          <mxGeometry relative="1" as="geometry" />
        </mxCell>
        <mxCell id="5YERZEK7RzYkh-wPf8vQ-28" value="&lt;font style=&quot;font-size: 24px&quot;&gt;&lt;span style=&quot;font-family: &amp;#34;times new roman&amp;#34;&quot;&gt;1×&lt;/span&gt;&lt;span style=&quot;font-family: &amp;#34;times new roman&amp;#34;&quot;&gt;1&lt;/span&gt;&lt;font face=&quot;Times New Roman&quot;&gt;&amp;nbsp;Conv&lt;/font&gt;&lt;/font&gt;" style="rounded=1;whiteSpace=wrap;html=1;fillColor=#fff2cc;strokeColor=#d6b656;strokeWidth=1.5;" vertex="1" parent="1">
          <mxGeometry x="488" y="548" width="130" height="40" as="geometry" />
        </mxCell>
        <mxCell id="5YERZEK7RzYkh-wPf8vQ-29" value="" style="edgeStyle=orthogonalEdgeStyle;rounded=0;orthogonalLoop=1;jettySize=auto;html=1;fontFamily=Times New Roman;fontSize=18;strokeWidth=1.5;" edge="1" parent="1" source="5YERZEK7RzYkh-wPf8vQ-30" target="5YERZEK7RzYkh-wPf8vQ-32">
          <mxGeometry relative="1" as="geometry" />
        </mxCell>
        <mxCell id="5YERZEK7RzYkh-wPf8vQ-30" value="&lt;font face=&quot;Times New Roman&quot; style=&quot;font-size: 20px&quot;&gt;InstanceNorm&lt;/font&gt;" style="rounded=1;whiteSpace=wrap;html=1;fillColor=#dae8fc;strokeColor=#6c8ebf;strokeWidth=1.5;" vertex="1" parent="1">
          <mxGeometry x="488" y="614" width="130" height="40" as="geometry" />
        </mxCell>
        <mxCell id="5YERZEK7RzYkh-wPf8vQ-31" style="edgeStyle=orthogonalEdgeStyle;rounded=0;orthogonalLoop=1;jettySize=auto;html=1;exitX=0.5;exitY=1;exitDx=0;exitDy=0;entryX=0.5;entryY=0;entryDx=0;entryDy=0;fontSize=20;strokeWidth=1.5;" edge="1" parent="1" source="5YERZEK7RzYkh-wPf8vQ-32" target="5YERZEK7RzYkh-wPf8vQ-34">
          <mxGeometry relative="1" as="geometry" />
        </mxCell>
        <mxCell id="5YERZEK7RzYkh-wPf8vQ-32" value="&lt;span style=&quot;font-family: &amp;#34;times new roman&amp;#34;&quot;&gt;&lt;font style=&quot;font-size: 24px&quot;&gt;ReLu&lt;/font&gt;&lt;/span&gt;" style="rounded=1;whiteSpace=wrap;html=1;fillColor=#d5e8d4;strokeColor=#82b366;strokeWidth=1.5;" vertex="1" parent="1">
          <mxGeometry x="488" y="680" width="130" height="40" as="geometry" />
        </mxCell>
        <mxCell id="5YERZEK7RzYkh-wPf8vQ-33" style="edgeStyle=orthogonalEdgeStyle;rounded=0;orthogonalLoop=1;jettySize=auto;html=1;exitX=0.5;exitY=1;exitDx=0;exitDy=0;entryX=1;entryY=0.5;entryDx=0;entryDy=0;fontFamily=Times New Roman;fontSize=20;strokeWidth=1.5;" edge="1" parent="1" source="5YERZEK7RzYkh-wPf8vQ-34" target="5YERZEK7RzYkh-wPf8vQ-55">
          <mxGeometry relative="1" as="geometry" />
        </mxCell>
        <mxCell id="5YERZEK7RzYkh-wPf8vQ-34" value="" style="shape=sumEllipse;perimeter=ellipsePerimeter;whiteSpace=wrap;html=1;backgroundOutline=1;fontFamily=Times New Roman;fontSize=18;strokeWidth=1.5;" vertex="1" parent="1">
          <mxGeometry x="540" y="820" width="25" height="25" as="geometry" />
        </mxCell>
        <mxCell id="5YERZEK7RzYkh-wPf8vQ-35" style="edgeStyle=orthogonalEdgeStyle;rounded=0;orthogonalLoop=1;jettySize=auto;html=1;exitX=0.5;exitY=1;exitDx=0;exitDy=0;fontFamily=Times New Roman;fontSize=18;strokeWidth=1.5;" edge="1" parent="1" source="5YERZEK7RzYkh-wPf8vQ-36" target="5YERZEK7RzYkh-wPf8vQ-38">
          <mxGeometry relative="1" as="geometry" />
        </mxCell>
        <mxCell id="5YERZEK7RzYkh-wPf8vQ-36" value="&lt;font face=&quot;Times New Roman&quot; style=&quot;font-size: 24px&quot;&gt;3×3 Conv&lt;/font&gt;" style="rounded=1;whiteSpace=wrap;html=1;fillColor=#fff2cc;strokeColor=#d6b656;strokeWidth=1.5;" vertex="1" parent="1">
          <mxGeometry x="660" y="462" width="130" height="40" as="geometry" />
        </mxCell>
        <mxCell id="5YERZEK7RzYkh-wPf8vQ-37" style="edgeStyle=orthogonalEdgeStyle;rounded=0;orthogonalLoop=1;jettySize=auto;html=1;exitX=0.5;exitY=1;exitDx=0;exitDy=0;fontFamily=Times New Roman;fontSize=18;strokeWidth=1.5;" edge="1" parent="1" source="5YERZEK7RzYkh-wPf8vQ-38" target="5YERZEK7RzYkh-wPf8vQ-40">
          <mxGeometry relative="1" as="geometry" />
        </mxCell>
        <mxCell id="5YERZEK7RzYkh-wPf8vQ-38" value="&lt;font face=&quot;Times New Roman&quot; style=&quot;font-size: 20px&quot;&gt;InstanceNorm&lt;/font&gt;" style="rounded=1;whiteSpace=wrap;html=1;fillColor=#dae8fc;strokeColor=#6c8ebf;strokeWidth=1.5;" vertex="1" parent="1">
          <mxGeometry x="660" y="526" width="130" height="40" as="geometry" />
        </mxCell>
        <mxCell id="5YERZEK7RzYkh-wPf8vQ-39" style="edgeStyle=orthogonalEdgeStyle;rounded=0;orthogonalLoop=1;jettySize=auto;html=1;exitX=0.5;exitY=1;exitDx=0;exitDy=0;fontFamily=Times New Roman;fontSize=18;strokeWidth=1.5;" edge="1" parent="1" source="5YERZEK7RzYkh-wPf8vQ-40" target="5YERZEK7RzYkh-wPf8vQ-42">
          <mxGeometry relative="1" as="geometry" />
        </mxCell>
        <mxCell id="5YERZEK7RzYkh-wPf8vQ-40" value="&lt;font face=&quot;Times New Roman&quot; style=&quot;font-size: 24px&quot;&gt;ReLu&lt;/font&gt;" style="rounded=1;whiteSpace=wrap;html=1;fillColor=#d5e8d4;strokeColor=#82b366;strokeWidth=1.5;" vertex="1" parent="1">
          <mxGeometry x="660" y="589" width="130" height="40" as="geometry" />
        </mxCell>
        <mxCell id="5YERZEK7RzYkh-wPf8vQ-41" style="edgeStyle=orthogonalEdgeStyle;rounded=0;orthogonalLoop=1;jettySize=auto;html=1;exitX=0.5;exitY=1;exitDx=0;exitDy=0;entryX=0.5;entryY=0;entryDx=0;entryDy=0;fontFamily=Times New Roman;fontSize=18;strokeWidth=1.5;" edge="1" parent="1" source="5YERZEK7RzYkh-wPf8vQ-42" target="5YERZEK7RzYkh-wPf8vQ-44">
          <mxGeometry relative="1" as="geometry" />
        </mxCell>
        <mxCell id="5YERZEK7RzYkh-wPf8vQ-42" value="&lt;font style=&quot;font-size: 24px&quot;&gt;&lt;span style=&quot;font-family: &amp;#34;times new roman&amp;#34;&quot;&gt;1×&lt;/span&gt;&lt;span style=&quot;font-family: &amp;#34;times new roman&amp;#34;&quot;&gt;1&lt;/span&gt;&lt;font face=&quot;Times New Roman&quot;&gt;&amp;nbsp;Conv&lt;/font&gt;&lt;/font&gt;" style="rounded=1;whiteSpace=wrap;html=1;fillColor=#fff2cc;strokeColor=#d6b656;strokeWidth=1.5;" vertex="1" parent="1">
          <mxGeometry x="660" y="652" width="130" height="40" as="geometry" />
        </mxCell>
        <mxCell id="5YERZEK7RzYkh-wPf8vQ-43" value="" style="edgeStyle=orthogonalEdgeStyle;rounded=0;orthogonalLoop=1;jettySize=auto;html=1;fontFamily=Times New Roman;fontSize=18;strokeWidth=1.5;" edge="1" parent="1" source="5YERZEK7RzYkh-wPf8vQ-44" target="5YERZEK7RzYkh-wPf8vQ-46">
          <mxGeometry relative="1" as="geometry" />
        </mxCell>
        <mxCell id="5YERZEK7RzYkh-wPf8vQ-44" value="&lt;font face=&quot;Times New Roman&quot; style=&quot;font-size: 20px&quot;&gt;InstanceNorm&lt;/font&gt;" style="rounded=1;whiteSpace=wrap;html=1;fillColor=#dae8fc;strokeColor=#6c8ebf;strokeWidth=1.5;" vertex="1" parent="1">
          <mxGeometry x="660" y="716" width="130" height="40" as="geometry" />
        </mxCell>
        <mxCell id="5YERZEK7RzYkh-wPf8vQ-45" style="edgeStyle=orthogonalEdgeStyle;rounded=0;orthogonalLoop=1;jettySize=auto;html=1;exitX=0.5;exitY=1;exitDx=0;exitDy=0;entryX=1;entryY=0.5;entryDx=0;entryDy=0;fontSize=20;strokeWidth=1.5;" edge="1" parent="1" source="5YERZEK7RzYkh-wPf8vQ-46" target="5YERZEK7RzYkh-wPf8vQ-34">
          <mxGeometry relative="1" as="geometry">
            <Array as="points">
              <mxPoint x="725" y="833" />
              <mxPoint x="612" y="833" />
            </Array>
          </mxGeometry>
        </mxCell>
        <mxCell id="5YERZEK7RzYkh-wPf8vQ-46" value="&lt;span style=&quot;font-family: &amp;#34;times new roman&amp;#34;&quot;&gt;&lt;font style=&quot;font-size: 24px&quot;&gt;ReLu&lt;/font&gt;&lt;/span&gt;" style="rounded=1;whiteSpace=wrap;html=1;fillColor=#d5e8d4;strokeColor=#82b366;strokeWidth=1.5;" vertex="1" parent="1">
          <mxGeometry x="660" y="779" width="130" height="40" as="geometry" />
        </mxCell>
        <mxCell id="5YERZEK7RzYkh-wPf8vQ-47" style="edgeStyle=orthogonalEdgeStyle;rounded=0;orthogonalLoop=1;jettySize=auto;html=1;exitX=0.5;exitY=1;exitDx=0;exitDy=0;entryX=0.5;entryY=0;entryDx=0;entryDy=0;fontFamily=Times New Roman;fontSize=18;strokeWidth=1.5;" edge="1" parent="1" source="5YERZEK7RzYkh-wPf8vQ-48" target="5YERZEK7RzYkh-wPf8vQ-50">
          <mxGeometry relative="1" as="geometry" />
        </mxCell>
        <mxCell id="5YERZEK7RzYkh-wPf8vQ-48" value="&lt;font style=&quot;font-size: 24px&quot;&gt;&lt;span style=&quot;font-family: &amp;#34;times new roman&amp;#34;&quot;&gt;1×&lt;/span&gt;&lt;span style=&quot;font-family: &amp;#34;times new roman&amp;#34;&quot;&gt;1&lt;/span&gt;&lt;font face=&quot;Times New Roman&quot;&gt;&amp;nbsp;Conv&lt;/font&gt;&lt;/font&gt;" style="rounded=1;whiteSpace=wrap;html=1;fillColor=#fff2cc;strokeColor=#d6b656;strokeWidth=1.5;" vertex="1" parent="1">
          <mxGeometry x="660" y="272" width="130" height="40" as="geometry" />
        </mxCell>
        <mxCell id="5YERZEK7RzYkh-wPf8vQ-49" value="" style="edgeStyle=orthogonalEdgeStyle;rounded=0;orthogonalLoop=1;jettySize=auto;html=1;fontFamily=Times New Roman;fontSize=18;strokeWidth=1.5;" edge="1" parent="1" source="5YERZEK7RzYkh-wPf8vQ-50" target="5YERZEK7RzYkh-wPf8vQ-52">
          <mxGeometry relative="1" as="geometry" />
        </mxCell>
        <mxCell id="5YERZEK7RzYkh-wPf8vQ-50" value="&lt;font face=&quot;Times New Roman&quot; style=&quot;font-size: 20px&quot;&gt;InstanceNorm&lt;/font&gt;" style="rounded=1;whiteSpace=wrap;html=1;fillColor=#dae8fc;strokeColor=#6c8ebf;strokeWidth=1.5;" vertex="1" parent="1">
          <mxGeometry x="660" y="335" width="130" height="40" as="geometry" />
        </mxCell>
        <mxCell id="5YERZEK7RzYkh-wPf8vQ-51" style="edgeStyle=orthogonalEdgeStyle;rounded=0;orthogonalLoop=1;jettySize=auto;html=1;exitX=0.5;exitY=1;exitDx=0;exitDy=0;entryX=0.5;entryY=0;entryDx=0;entryDy=0;fontFamily=Times New Roman;fontSize=18;strokeWidth=1.5;" edge="1" parent="1" source="5YERZEK7RzYkh-wPf8vQ-52" target="5YERZEK7RzYkh-wPf8vQ-36">
          <mxGeometry relative="1" as="geometry" />
        </mxCell>
        <mxCell id="5YERZEK7RzYkh-wPf8vQ-52" value="&lt;span style=&quot;font-family: &amp;#34;times new roman&amp;#34;&quot;&gt;&lt;font style=&quot;font-size: 24px&quot;&gt;ReLu&lt;/font&gt;&lt;/span&gt;" style="rounded=1;whiteSpace=wrap;html=1;fillColor=#d5e8d4;strokeColor=#82b366;strokeWidth=1.5;" vertex="1" parent="1">
          <mxGeometry x="660" y="399" width="130" height="40" as="geometry" />
        </mxCell>
        <mxCell id="5YERZEK7RzYkh-wPf8vQ-53" style="edgeStyle=orthogonalEdgeStyle;rounded=0;orthogonalLoop=1;jettySize=auto;html=1;fontFamily=Times New Roman;fontSize=18;strokeWidth=1.5;entryX=0.5;entryY=0;entryDx=0;entryDy=0;" edge="1" parent="1" target="5YERZEK7RzYkh-wPf8vQ-2">
          <mxGeometry relative="1" as="geometry">
            <mxPoint x="380" y="228" as="sourcePoint" />
            <mxPoint x="112" y="340" as="targetPoint" />
            <Array as="points">
              <mxPoint x="112" y="228" />
            </Array>
          </mxGeometry>
        </mxCell>
        <mxCell id="5YERZEK7RzYkh-wPf8vQ-54" style="edgeStyle=orthogonalEdgeStyle;rounded=0;orthogonalLoop=1;jettySize=auto;html=1;exitX=0.5;exitY=1;exitDx=0;exitDy=0;strokeWidth=2;" edge="1" parent="1" source="5YERZEK7RzYkh-wPf8vQ-55" target="5YERZEK7RzYkh-wPf8vQ-57">
          <mxGeometry relative="1" as="geometry" />
        </mxCell>
        <mxCell id="5YERZEK7RzYkh-wPf8vQ-55" value="" style="shape=orEllipse;perimeter=ellipsePerimeter;whiteSpace=wrap;html=1;backgroundOutline=1;fontFamily=Times New Roman;fontSize=18;strokeWidth=1.5;" vertex="1" parent="1">
          <mxGeometry x="320" y="861" width="25" height="25" as="geometry" />
        </mxCell>
        <mxCell id="5YERZEK7RzYkh-wPf8vQ-56" style="edgeStyle=orthogonalEdgeStyle;rounded=0;orthogonalLoop=1;jettySize=auto;html=1;strokeWidth=2;" edge="1" parent="1" source="5YERZEK7RzYkh-wPf8vQ-57">
          <mxGeometry relative="1" as="geometry">
            <mxPoint x="332.5" y="1001" as="targetPoint" />
          </mxGeometry>
        </mxCell>
        <mxCell id="5YERZEK7RzYkh-wPf8vQ-57" value="&lt;font face=&quot;Times New Roman&quot; style=&quot;font-size: 24px&quot;&gt;LeakyReLu&lt;/font&gt;" style="rounded=1;whiteSpace=wrap;html=1;fillColor=#d5e8d4;strokeColor=#82b366;strokeWidth=1.5;" vertex="1" parent="1">
          <mxGeometry x="267.5" y="921" width="130" height="40" as="geometry" />
        </mxCell>
        <mxCell id="5YERZEK7RzYkh-wPf8vQ-58" style="edgeStyle=orthogonalEdgeStyle;rounded=0;orthogonalLoop=1;jettySize=auto;html=1;fontFamily=Times New Roman;fontSize=18;strokeWidth=1.5;entryX=0.5;entryY=0;entryDx=0;entryDy=0;" edge="1" parent="1" target="5YERZEK7RzYkh-wPf8vQ-48">
          <mxGeometry relative="1" as="geometry">
            <mxPoint x="552" y="246" as="sourcePoint" />
            <mxPoint x="725" y="270" as="targetPoint" />
            <Array as="points">
              <mxPoint x="552" y="250" />
              <mxPoint x="725" y="250" />
            </Array>
          </mxGeometry>
        </mxCell>
        <mxCell id="5YERZEK7RzYkh-wPf8vQ-59" style="edgeStyle=orthogonalEdgeStyle;rounded=0;orthogonalLoop=1;jettySize=auto;html=1;fontFamily=Times New Roman;fontSize=18;strokeWidth=1.5;" edge="1" parent="1" target="5YERZEK7RzYkh-wPf8vQ-16">
          <mxGeometry relative="1" as="geometry">
            <mxPoint x="560" y="250.00000000000023" as="sourcePoint" />
            <mxPoint x="380" y="430" as="targetPoint" />
          </mxGeometry>
        </mxCell>
        <mxCell id="5YERZEK7RzYkh-wPf8vQ-60" value="" style="endArrow=none;html=1;rounded=0;strokeWidth=1.5;" edge="1" parent="1">
          <mxGeometry width="50" height="50" relative="1" as="geometry">
            <mxPoint x="320" y="227" as="sourcePoint" />
            <mxPoint x="320" y="170.00000000000023" as="targetPoint" />
          </mxGeometry>
        </mxCell>
        <mxCell id="5YERZEK7RzYkh-wPf8vQ-61" style="edgeStyle=orthogonalEdgeStyle;rounded=0;orthogonalLoop=1;jettySize=auto;html=1;fontFamily=Times New Roman;fontSize=18;strokeWidth=1.5;entryX=1;entryY=0.5;entryDx=0;entryDy=0;" edge="1" parent="1" target="5YERZEK7RzYkh-wPf8vQ-14">
          <mxGeometry relative="1" as="geometry">
            <mxPoint x="112" y="233" as="sourcePoint" />
            <mxPoint x="130" y="803" as="targetPoint" />
            <Array as="points">
              <mxPoint x="112" y="300" />
              <mxPoint x="230" y="300" />
              <mxPoint x="230" y="804" />
            </Array>
          </mxGeometry>
        </mxCell>
        <mxCell id="5YERZEK7RzYkh-wPf8vQ-62" style="edgeStyle=orthogonalEdgeStyle;rounded=0;orthogonalLoop=1;jettySize=auto;html=1;fontFamily=Times New Roman;fontSize=18;strokeWidth=1.5;" edge="1" parent="1" target="5YERZEK7RzYkh-wPf8vQ-22">
          <mxGeometry relative="1" as="geometry">
            <mxPoint x="380" y="228" as="sourcePoint" />
            <mxPoint x="552" y="350" as="targetPoint" />
            <Array as="points">
              <mxPoint x="552" y="228" />
            </Array>
          </mxGeometry>
        </mxCell>
        <mxCell id="5YERZEK7RzYkh-wPf8vQ-63" value="" style="rounded=0.8;whiteSpace=wrap;html=1;fontSize=24;dashed=1;gradientColor=#ffffff;fillColor=none;strokeColor=#97D077;strokeWidth=3;" vertex="1" parent="1">
          <mxGeometry x="291" y="241" width="530" height="612" as="geometry" />
        </mxCell>
        <mxCell id="5YERZEK7RzYkh-wPf8vQ-64" value="" style="rounded=0.8;whiteSpace=wrap;html=1;fontSize=24;dashed=1;gradientColor=#ffffff;fillColor=none;strokeColor=#A9C4EB;strokeWidth=3;" vertex="1" parent="1">
          <mxGeometry x="8" y="241" width="257.5" height="612" as="geometry" />
        </mxCell>
        <mxCell id="5YERZEK7RzYkh-wPf8vQ-65" value="&lt;font face=&quot;Times New Roman&quot;&gt;Part A&lt;/font&gt;" style="whiteSpace=wrap;html=1;rounded=1;dashed=1;fontSize=24;strokeColor=none;strokeWidth=3;fillColor=none;gradientColor=#ffffff;" vertex="1" parent="1">
          <mxGeometry x="-4" y="253" width="120" height="60" as="geometry" />
        </mxCell>
        <mxCell id="5YERZEK7RzYkh-wPf8vQ-66" value="&lt;font face=&quot;Times New Roman&quot;&gt;Part B&lt;/font&gt;" style="whiteSpace=wrap;html=1;rounded=1;dashed=1;fontSize=24;strokeColor=none;strokeWidth=3;fillColor=none;gradientColor=#ffffff;" vertex="1" parent="1">
          <mxGeometry x="278" y="253" width="120" height="60" as="geometry" />
        </mxCell>
        <mxCell id="5YERZEK7RzYkh-wPf8vQ-68" style="edgeStyle=orthogonalEdgeStyle;rounded=0;orthogonalLoop=1;jettySize=auto;html=1;exitX=0.5;exitY=1;exitDx=0;exitDy=0;fontFamily=Times New Roman;fontSize=18;strokeWidth=1.5;" edge="1" parent="1" source="5YERZEK7RzYkh-wPf8vQ-69" target="5YERZEK7RzYkh-wPf8vQ-71">
          <mxGeometry relative="1" as="geometry" />
        </mxCell>
        <mxCell id="5YERZEK7RzYkh-wPf8vQ-69" value="&lt;font face=&quot;Times New Roman&quot; style=&quot;font-size: 24px&quot;&gt;3×3 Conv&lt;/font&gt;" style="rounded=1;whiteSpace=wrap;html=1;fillColor=#fff2cc;strokeColor=#d6b656;strokeWidth=1.5;" vertex="1" parent="1">
          <mxGeometry x="59" y="1115" width="130" height="40" as="geometry" />
        </mxCell>
        <mxCell id="5YERZEK7RzYkh-wPf8vQ-70" style="edgeStyle=orthogonalEdgeStyle;rounded=0;orthogonalLoop=1;jettySize=auto;html=1;exitX=0.5;exitY=1;exitDx=0;exitDy=0;fontFamily=Times New Roman;fontSize=18;strokeWidth=1.5;" edge="1" parent="1" source="5YERZEK7RzYkh-wPf8vQ-71" target="5YERZEK7RzYkh-wPf8vQ-73">
          <mxGeometry relative="1" as="geometry" />
        </mxCell>
        <mxCell id="5YERZEK7RzYkh-wPf8vQ-71" value="&lt;font face=&quot;Times New Roman&quot; style=&quot;font-size: 20px&quot;&gt;InstanceNorm&lt;/font&gt;" style="rounded=1;whiteSpace=wrap;html=1;fillColor=#dae8fc;strokeColor=#6c8ebf;strokeWidth=1.5;" vertex="1" parent="1">
          <mxGeometry x="59" y="1189" width="130" height="40" as="geometry" />
        </mxCell>
        <mxCell id="5YERZEK7RzYkh-wPf8vQ-72" style="edgeStyle=orthogonalEdgeStyle;rounded=0;orthogonalLoop=1;jettySize=auto;html=1;exitX=0.5;exitY=1;exitDx=0;exitDy=0;entryX=0.5;entryY=0;entryDx=0;entryDy=0;fontFamily=Times New Roman;fontSize=18;strokeWidth=1.5;" edge="1" parent="1" source="5YERZEK7RzYkh-wPf8vQ-73" target="5YERZEK7RzYkh-wPf8vQ-75">
          <mxGeometry relative="1" as="geometry" />
        </mxCell>
        <mxCell id="5YERZEK7RzYkh-wPf8vQ-73" value="&lt;font face=&quot;Times New Roman&quot; style=&quot;font-size: 24px&quot;&gt;LeakyReLu&lt;/font&gt;" style="rounded=1;whiteSpace=wrap;html=1;fillColor=#d5e8d4;strokeColor=#82b366;strokeWidth=1.5;" vertex="1" parent="1">
          <mxGeometry x="59" y="1263" width="130" height="40" as="geometry" />
        </mxCell>
        <mxCell id="5YERZEK7RzYkh-wPf8vQ-74" style="edgeStyle=orthogonalEdgeStyle;rounded=0;orthogonalLoop=1;jettySize=auto;html=1;exitX=0.5;exitY=1;exitDx=0;exitDy=0;fontFamily=Times New Roman;fontSize=18;strokeWidth=1.5;" edge="1" parent="1" source="5YERZEK7RzYkh-wPf8vQ-75" target="5YERZEK7RzYkh-wPf8vQ-77">
          <mxGeometry relative="1" as="geometry" />
        </mxCell>
        <mxCell id="5YERZEK7RzYkh-wPf8vQ-75" value="&lt;font style=&quot;font-size: 24px&quot; face=&quot;Times New Roman&quot;&gt;1×1&amp;nbsp;Conv&lt;/font&gt;" style="rounded=1;whiteSpace=wrap;html=1;fillColor=#fff2cc;strokeColor=#d6b656;strokeWidth=1.5;" vertex="1" parent="1">
          <mxGeometry x="59" y="1336" width="130" height="40" as="geometry" />
        </mxCell>
        <mxCell id="5YERZEK7RzYkh-wPf8vQ-76" style="edgeStyle=orthogonalEdgeStyle;rounded=0;orthogonalLoop=1;jettySize=auto;html=1;exitX=0.5;exitY=1;exitDx=0;exitDy=0;fontFamily=Times New Roman;fontSize=18;strokeWidth=1.5;" edge="1" parent="1" source="5YERZEK7RzYkh-wPf8vQ-77" target="5YERZEK7RzYkh-wPf8vQ-79">
          <mxGeometry relative="1" as="geometry" />
        </mxCell>
        <mxCell id="5YERZEK7RzYkh-wPf8vQ-77" value="&lt;font face=&quot;Times New Roman&quot; style=&quot;font-size: 20px&quot;&gt;InstanceNorm&lt;/font&gt;" style="rounded=1;whiteSpace=wrap;html=1;fillColor=#dae8fc;strokeColor=#6c8ebf;strokeWidth=1.5;" vertex="1" parent="1">
          <mxGeometry x="59" y="1410" width="130" height="40" as="geometry" />
        </mxCell>
        <mxCell id="5YERZEK7RzYkh-wPf8vQ-78" style="edgeStyle=orthogonalEdgeStyle;rounded=0;orthogonalLoop=1;jettySize=auto;html=1;exitX=0.5;exitY=1;exitDx=0;exitDy=0;entryX=0.5;entryY=0;entryDx=0;entryDy=0;fontSize=20;strokeWidth=1.5;" edge="1" parent="1" source="5YERZEK7RzYkh-wPf8vQ-79" target="5YERZEK7RzYkh-wPf8vQ-81">
          <mxGeometry relative="1" as="geometry" />
        </mxCell>
        <mxCell id="5YERZEK7RzYkh-wPf8vQ-79" value="&lt;font face=&quot;Times New Roman&quot; style=&quot;font-size: 24px&quot;&gt;LeakyReLu&lt;/font&gt;" style="rounded=1;whiteSpace=wrap;html=1;fillColor=#d5e8d4;strokeColor=#82b366;strokeWidth=1.5;" vertex="1" parent="1">
          <mxGeometry x="59" y="1484" width="130" height="40" as="geometry" />
        </mxCell>
        <mxCell id="5YERZEK7RzYkh-wPf8vQ-80" style="edgeStyle=orthogonalEdgeStyle;rounded=0;orthogonalLoop=1;jettySize=auto;html=1;exitX=0.5;exitY=1;exitDx=0;exitDy=0;entryX=0;entryY=0.5;entryDx=0;entryDy=0;fontFamily=Times New Roman;fontSize=20;strokeWidth=1.5;" edge="1" parent="1" source="5YERZEK7RzYkh-wPf8vQ-81" target="5YERZEK7RzYkh-wPf8vQ-122">
          <mxGeometry relative="1" as="geometry" />
        </mxCell>
        <mxCell id="5YERZEK7RzYkh-wPf8vQ-81" value="" style="shape=orEllipse;perimeter=ellipsePerimeter;whiteSpace=wrap;html=1;backgroundOutline=1;fontFamily=Times New Roman;fontSize=18;strokeWidth=1.5;" vertex="1" parent="1">
          <mxGeometry x="111" y="1564" width="25" height="25" as="geometry" />
        </mxCell>
        <mxCell id="5YERZEK7RzYkh-wPf8vQ-82" style="edgeStyle=orthogonalEdgeStyle;rounded=0;orthogonalLoop=1;jettySize=auto;html=1;exitX=0.5;exitY=1;exitDx=0;exitDy=0;fontFamily=Times New Roman;fontSize=18;strokeWidth=1.5;" edge="1" parent="1" source="5YERZEK7RzYkh-wPf8vQ-83" target="5YERZEK7RzYkh-wPf8vQ-85">
          <mxGeometry relative="1" as="geometry" />
        </mxCell>
        <mxCell id="5YERZEK7RzYkh-wPf8vQ-83" value="&lt;font face=&quot;Times New Roman&quot; style=&quot;font-size: 24px&quot;&gt;3×3 Conv&lt;/font&gt;" style="rounded=1;whiteSpace=wrap;html=1;fillColor=#fff2cc;strokeColor=#d6b656;strokeWidth=1.5;" vertex="1" parent="1">
          <mxGeometry x="331" y="1208" width="130" height="40" as="geometry" />
        </mxCell>
        <mxCell id="5YERZEK7RzYkh-wPf8vQ-84" style="edgeStyle=orthogonalEdgeStyle;rounded=0;orthogonalLoop=1;jettySize=auto;html=1;exitX=0.5;exitY=1;exitDx=0;exitDy=0;fontFamily=Times New Roman;fontSize=18;strokeWidth=1.5;" edge="1" parent="1" source="5YERZEK7RzYkh-wPf8vQ-85" target="5YERZEK7RzYkh-wPf8vQ-87">
          <mxGeometry relative="1" as="geometry" />
        </mxCell>
        <mxCell id="5YERZEK7RzYkh-wPf8vQ-85" value="&lt;font face=&quot;Times New Roman&quot; style=&quot;font-size: 20px&quot;&gt;InstanceNorm&lt;/font&gt;" style="rounded=1;whiteSpace=wrap;html=1;fillColor=#dae8fc;strokeColor=#6c8ebf;strokeWidth=1.5;" vertex="1" parent="1">
          <mxGeometry x="331" y="1277" width="130" height="40" as="geometry" />
        </mxCell>
        <mxCell id="5YERZEK7RzYkh-wPf8vQ-86" style="edgeStyle=orthogonalEdgeStyle;rounded=0;orthogonalLoop=1;jettySize=auto;html=1;exitX=0.5;exitY=1;exitDx=0;exitDy=0;entryX=0;entryY=0.5;entryDx=0;entryDy=0;fontSize=20;strokeWidth=1.5;" edge="1" parent="1" source="5YERZEK7RzYkh-wPf8vQ-87" target="5YERZEK7RzYkh-wPf8vQ-101">
          <mxGeometry relative="1" as="geometry" />
        </mxCell>
        <mxCell id="5YERZEK7RzYkh-wPf8vQ-87" value="&lt;span style=&quot;font-family: &amp;#34;times new roman&amp;#34;&quot;&gt;&lt;font style=&quot;font-size: 24px&quot;&gt;ReLu&lt;/font&gt;&lt;/span&gt;" style="rounded=1;whiteSpace=wrap;html=1;fillColor=#d5e8d4;strokeColor=#82b366;strokeWidth=1.5;" vertex="1" parent="1">
          <mxGeometry x="331" y="1343" width="130" height="40" as="geometry" />
        </mxCell>
        <mxCell id="5YERZEK7RzYkh-wPf8vQ-88" style="edgeStyle=orthogonalEdgeStyle;rounded=0;orthogonalLoop=1;jettySize=auto;html=1;exitX=0.5;exitY=1;exitDx=0;exitDy=0;fontFamily=Times New Roman;fontSize=18;strokeWidth=1.5;" edge="1" parent="1" source="5YERZEK7RzYkh-wPf8vQ-89" target="5YERZEK7RzYkh-wPf8vQ-91">
          <mxGeometry relative="1" as="geometry" />
        </mxCell>
        <mxCell id="5YERZEK7RzYkh-wPf8vQ-89" value="&lt;font face=&quot;Times New Roman&quot; style=&quot;font-size: 24px&quot;&gt;3×3 Conv&lt;/font&gt;" style="rounded=1;whiteSpace=wrap;html=1;fillColor=#fff2cc;strokeColor=#d6b656;strokeWidth=1.5;" vertex="1" parent="1">
          <mxGeometry x="500" y="1123" width="130" height="40" as="geometry" />
        </mxCell>
        <mxCell id="5YERZEK7RzYkh-wPf8vQ-90" style="edgeStyle=orthogonalEdgeStyle;rounded=0;orthogonalLoop=1;jettySize=auto;html=1;exitX=0.5;exitY=1;exitDx=0;exitDy=0;fontFamily=Times New Roman;fontSize=18;strokeWidth=1.5;" edge="1" parent="1" source="5YERZEK7RzYkh-wPf8vQ-91" target="5YERZEK7RzYkh-wPf8vQ-93">
          <mxGeometry relative="1" as="geometry" />
        </mxCell>
        <mxCell id="5YERZEK7RzYkh-wPf8vQ-91" value="&lt;font face=&quot;Times New Roman&quot; style=&quot;font-size: 20px&quot;&gt;InstanceNorm&lt;/font&gt;" style="rounded=1;whiteSpace=wrap;html=1;fillColor=#dae8fc;strokeColor=#6c8ebf;strokeWidth=1.5;" vertex="1" parent="1">
          <mxGeometry x="500" y="1189" width="130" height="40" as="geometry" />
        </mxCell>
        <mxCell id="5YERZEK7RzYkh-wPf8vQ-92" style="edgeStyle=orthogonalEdgeStyle;rounded=0;orthogonalLoop=1;jettySize=auto;html=1;exitX=0.5;exitY=1;exitDx=0;exitDy=0;fontFamily=Times New Roman;fontSize=18;strokeWidth=1.5;" edge="1" parent="1" source="5YERZEK7RzYkh-wPf8vQ-93" target="5YERZEK7RzYkh-wPf8vQ-95">
          <mxGeometry relative="1" as="geometry" />
        </mxCell>
        <mxCell id="5YERZEK7RzYkh-wPf8vQ-93" value="&lt;font face=&quot;Times New Roman&quot; style=&quot;font-size: 24px&quot;&gt;ReLu&lt;/font&gt;" style="rounded=1;whiteSpace=wrap;html=1;fillColor=#d5e8d4;strokeColor=#82b366;strokeWidth=1.5;" vertex="1" parent="1">
          <mxGeometry x="500" y="1255" width="130" height="40" as="geometry" />
        </mxCell>
        <mxCell id="5YERZEK7RzYkh-wPf8vQ-94" style="edgeStyle=orthogonalEdgeStyle;rounded=0;orthogonalLoop=1;jettySize=auto;html=1;exitX=0.5;exitY=1;exitDx=0;exitDy=0;entryX=0.5;entryY=0;entryDx=0;entryDy=0;fontFamily=Times New Roman;fontSize=18;strokeWidth=1.5;" edge="1" parent="1" source="5YERZEK7RzYkh-wPf8vQ-95" target="5YERZEK7RzYkh-wPf8vQ-97">
          <mxGeometry relative="1" as="geometry" />
        </mxCell>
        <mxCell id="5YERZEK7RzYkh-wPf8vQ-95" value="&lt;font style=&quot;font-size: 24px&quot;&gt;&lt;span style=&quot;font-family: &amp;#34;times new roman&amp;#34;&quot;&gt;1×&lt;/span&gt;&lt;span style=&quot;font-family: &amp;#34;times new roman&amp;#34;&quot;&gt;1&lt;/span&gt;&lt;font face=&quot;Times New Roman&quot;&gt;&amp;nbsp;Conv&lt;/font&gt;&lt;/font&gt;" style="rounded=1;whiteSpace=wrap;html=1;fillColor=#fff2cc;strokeColor=#d6b656;strokeWidth=1.5;" vertex="1" parent="1">
          <mxGeometry x="500" y="1321" width="130" height="40" as="geometry" />
        </mxCell>
        <mxCell id="5YERZEK7RzYkh-wPf8vQ-96" value="" style="edgeStyle=orthogonalEdgeStyle;rounded=0;orthogonalLoop=1;jettySize=auto;html=1;fontFamily=Times New Roman;fontSize=18;strokeWidth=1.5;" edge="1" parent="1" source="5YERZEK7RzYkh-wPf8vQ-97" target="5YERZEK7RzYkh-wPf8vQ-99">
          <mxGeometry relative="1" as="geometry" />
        </mxCell>
        <mxCell id="5YERZEK7RzYkh-wPf8vQ-97" value="&lt;font face=&quot;Times New Roman&quot; style=&quot;font-size: 20px&quot;&gt;InstanceNorm&lt;/font&gt;" style="rounded=1;whiteSpace=wrap;html=1;fillColor=#dae8fc;strokeColor=#6c8ebf;strokeWidth=1.5;" vertex="1" parent="1">
          <mxGeometry x="500" y="1387" width="130" height="40" as="geometry" />
        </mxCell>
        <mxCell id="5YERZEK7RzYkh-wPf8vQ-98" style="edgeStyle=orthogonalEdgeStyle;rounded=0;orthogonalLoop=1;jettySize=auto;html=1;exitX=0.5;exitY=1;exitDx=0;exitDy=0;entryX=0.5;entryY=0;entryDx=0;entryDy=0;fontSize=20;strokeWidth=1.5;" edge="1" parent="1" source="5YERZEK7RzYkh-wPf8vQ-99" target="5YERZEK7RzYkh-wPf8vQ-101">
          <mxGeometry relative="1" as="geometry" />
        </mxCell>
        <mxCell id="5YERZEK7RzYkh-wPf8vQ-99" value="&lt;span style=&quot;font-family: &amp;#34;times new roman&amp;#34;&quot;&gt;&lt;font style=&quot;font-size: 24px&quot;&gt;ReLu&lt;/font&gt;&lt;/span&gt;" style="rounded=1;whiteSpace=wrap;html=1;fillColor=#d5e8d4;strokeColor=#82b366;strokeWidth=1.5;" vertex="1" parent="1">
          <mxGeometry x="500" y="1453" width="130" height="40" as="geometry" />
        </mxCell>
        <mxCell id="5YERZEK7RzYkh-wPf8vQ-100" style="edgeStyle=orthogonalEdgeStyle;rounded=0;orthogonalLoop=1;jettySize=auto;html=1;exitX=0.5;exitY=1;exitDx=0;exitDy=0;entryX=1;entryY=0.5;entryDx=0;entryDy=0;fontFamily=Times New Roman;fontSize=20;strokeWidth=1.5;" edge="1" parent="1" source="5YERZEK7RzYkh-wPf8vQ-101" target="5YERZEK7RzYkh-wPf8vQ-122">
          <mxGeometry relative="1" as="geometry" />
        </mxCell>
        <mxCell id="5YERZEK7RzYkh-wPf8vQ-101" value="" style="shape=sumEllipse;perimeter=ellipsePerimeter;whiteSpace=wrap;html=1;backgroundOutline=1;fontFamily=Times New Roman;fontSize=18;strokeWidth=1.5;" vertex="1" parent="1">
          <mxGeometry x="552" y="1593" width="25" height="25" as="geometry" />
        </mxCell>
        <mxCell id="5YERZEK7RzYkh-wPf8vQ-102" style="edgeStyle=orthogonalEdgeStyle;rounded=0;orthogonalLoop=1;jettySize=auto;html=1;exitX=0.5;exitY=1;exitDx=0;exitDy=0;fontFamily=Times New Roman;fontSize=18;strokeWidth=1.5;" edge="1" parent="1" source="5YERZEK7RzYkh-wPf8vQ-103" target="5YERZEK7RzYkh-wPf8vQ-105">
          <mxGeometry relative="1" as="geometry" />
        </mxCell>
        <mxCell id="5YERZEK7RzYkh-wPf8vQ-103" value="&lt;font face=&quot;Times New Roman&quot; style=&quot;font-size: 24px&quot;&gt;3×3 Conv&lt;/font&gt;" style="rounded=1;whiteSpace=wrap;html=1;fillColor=#fff2cc;strokeColor=#d6b656;strokeWidth=1.5;" vertex="1" parent="1">
          <mxGeometry x="672" y="1235" width="130" height="40" as="geometry" />
        </mxCell>
        <mxCell id="5YERZEK7RzYkh-wPf8vQ-104" style="edgeStyle=orthogonalEdgeStyle;rounded=0;orthogonalLoop=1;jettySize=auto;html=1;exitX=0.5;exitY=1;exitDx=0;exitDy=0;fontFamily=Times New Roman;fontSize=18;strokeWidth=1.5;" edge="1" parent="1" source="5YERZEK7RzYkh-wPf8vQ-105" target="5YERZEK7RzYkh-wPf8vQ-107">
          <mxGeometry relative="1" as="geometry" />
        </mxCell>
        <mxCell id="5YERZEK7RzYkh-wPf8vQ-105" value="&lt;font face=&quot;Times New Roman&quot; style=&quot;font-size: 20px&quot;&gt;InstanceNorm&lt;/font&gt;" style="rounded=1;whiteSpace=wrap;html=1;fillColor=#dae8fc;strokeColor=#6c8ebf;strokeWidth=1.5;" vertex="1" parent="1">
          <mxGeometry x="672" y="1299" width="130" height="40" as="geometry" />
        </mxCell>
        <mxCell id="5YERZEK7RzYkh-wPf8vQ-106" style="edgeStyle=orthogonalEdgeStyle;rounded=0;orthogonalLoop=1;jettySize=auto;html=1;exitX=0.5;exitY=1;exitDx=0;exitDy=0;fontFamily=Times New Roman;fontSize=18;strokeWidth=1.5;" edge="1" parent="1" source="5YERZEK7RzYkh-wPf8vQ-107" target="5YERZEK7RzYkh-wPf8vQ-109">
          <mxGeometry relative="1" as="geometry" />
        </mxCell>
        <mxCell id="5YERZEK7RzYkh-wPf8vQ-107" value="&lt;font face=&quot;Times New Roman&quot; style=&quot;font-size: 24px&quot;&gt;ReLu&lt;/font&gt;" style="rounded=1;whiteSpace=wrap;html=1;fillColor=#d5e8d4;strokeColor=#82b366;strokeWidth=1.5;" vertex="1" parent="1">
          <mxGeometry x="672" y="1362" width="130" height="40" as="geometry" />
        </mxCell>
        <mxCell id="5YERZEK7RzYkh-wPf8vQ-108" style="edgeStyle=orthogonalEdgeStyle;rounded=0;orthogonalLoop=1;jettySize=auto;html=1;exitX=0.5;exitY=1;exitDx=0;exitDy=0;entryX=0.5;entryY=0;entryDx=0;entryDy=0;fontFamily=Times New Roman;fontSize=18;strokeWidth=1.5;" edge="1" parent="1" source="5YERZEK7RzYkh-wPf8vQ-109" target="5YERZEK7RzYkh-wPf8vQ-111">
          <mxGeometry relative="1" as="geometry" />
        </mxCell>
        <mxCell id="5YERZEK7RzYkh-wPf8vQ-109" value="&lt;font style=&quot;font-size: 24px&quot;&gt;&lt;span style=&quot;font-family: &amp;#34;times new roman&amp;#34;&quot;&gt;1×&lt;/span&gt;&lt;span style=&quot;font-family: &amp;#34;times new roman&amp;#34;&quot;&gt;1&lt;/span&gt;&lt;font face=&quot;Times New Roman&quot;&gt;&amp;nbsp;Conv&lt;/font&gt;&lt;/font&gt;" style="rounded=1;whiteSpace=wrap;html=1;fillColor=#fff2cc;strokeColor=#d6b656;strokeWidth=1.5;" vertex="1" parent="1">
          <mxGeometry x="672" y="1425" width="130" height="40" as="geometry" />
        </mxCell>
        <mxCell id="5YERZEK7RzYkh-wPf8vQ-110" value="" style="edgeStyle=orthogonalEdgeStyle;rounded=0;orthogonalLoop=1;jettySize=auto;html=1;fontFamily=Times New Roman;fontSize=18;strokeWidth=1.5;" edge="1" parent="1" source="5YERZEK7RzYkh-wPf8vQ-111" target="5YERZEK7RzYkh-wPf8vQ-113">
          <mxGeometry relative="1" as="geometry" />
        </mxCell>
        <mxCell id="5YERZEK7RzYkh-wPf8vQ-111" value="&lt;font face=&quot;Times New Roman&quot; style=&quot;font-size: 20px&quot;&gt;InstanceNorm&lt;/font&gt;" style="rounded=1;whiteSpace=wrap;html=1;fillColor=#dae8fc;strokeColor=#6c8ebf;strokeWidth=1.5;" vertex="1" parent="1">
          <mxGeometry x="672" y="1489" width="130" height="40" as="geometry" />
        </mxCell>
        <mxCell id="5YERZEK7RzYkh-wPf8vQ-112" style="edgeStyle=orthogonalEdgeStyle;rounded=0;orthogonalLoop=1;jettySize=auto;html=1;exitX=0.5;exitY=1;exitDx=0;exitDy=0;entryX=1;entryY=0.5;entryDx=0;entryDy=0;fontSize=20;strokeWidth=1.5;" edge="1" parent="1" source="5YERZEK7RzYkh-wPf8vQ-113" target="5YERZEK7RzYkh-wPf8vQ-101">
          <mxGeometry relative="1" as="geometry">
            <Array as="points">
              <mxPoint x="737" y="1606" />
              <mxPoint x="624" y="1606" />
            </Array>
          </mxGeometry>
        </mxCell>
        <mxCell id="5YERZEK7RzYkh-wPf8vQ-113" value="&lt;span style=&quot;font-family: &amp;#34;times new roman&amp;#34;&quot;&gt;&lt;font style=&quot;font-size: 24px&quot;&gt;ReLu&lt;/font&gt;&lt;/span&gt;" style="rounded=1;whiteSpace=wrap;html=1;fillColor=#d5e8d4;strokeColor=#82b366;strokeWidth=1.5;" vertex="1" parent="1">
          <mxGeometry x="672" y="1552" width="130" height="40" as="geometry" />
        </mxCell>
        <mxCell id="5YERZEK7RzYkh-wPf8vQ-114" style="edgeStyle=orthogonalEdgeStyle;rounded=0;orthogonalLoop=1;jettySize=auto;html=1;exitX=0.5;exitY=1;exitDx=0;exitDy=0;entryX=0.5;entryY=0;entryDx=0;entryDy=0;fontFamily=Times New Roman;fontSize=18;strokeWidth=1.5;" edge="1" parent="1" source="5YERZEK7RzYkh-wPf8vQ-115" target="5YERZEK7RzYkh-wPf8vQ-117">
          <mxGeometry relative="1" as="geometry" />
        </mxCell>
        <mxCell id="5YERZEK7RzYkh-wPf8vQ-115" value="&lt;font style=&quot;font-size: 24px&quot;&gt;&lt;span style=&quot;font-family: &amp;#34;times new roman&amp;#34;&quot;&gt;1×&lt;/span&gt;&lt;span style=&quot;font-family: &amp;#34;times new roman&amp;#34;&quot;&gt;1&lt;/span&gt;&lt;font face=&quot;Times New Roman&quot;&gt;&amp;nbsp;Conv&lt;/font&gt;&lt;/font&gt;" style="rounded=1;whiteSpace=wrap;html=1;fillColor=#fff2cc;strokeColor=#d6b656;strokeWidth=1.5;" vertex="1" parent="1">
          <mxGeometry x="672" y="1045" width="130" height="40" as="geometry" />
        </mxCell>
        <mxCell id="5YERZEK7RzYkh-wPf8vQ-116" value="" style="edgeStyle=orthogonalEdgeStyle;rounded=0;orthogonalLoop=1;jettySize=auto;html=1;fontFamily=Times New Roman;fontSize=18;strokeWidth=1.5;" edge="1" parent="1" source="5YERZEK7RzYkh-wPf8vQ-117" target="5YERZEK7RzYkh-wPf8vQ-119">
          <mxGeometry relative="1" as="geometry" />
        </mxCell>
        <mxCell id="5YERZEK7RzYkh-wPf8vQ-117" value="&lt;font face=&quot;Times New Roman&quot; style=&quot;font-size: 20px&quot;&gt;InstanceNorm&lt;/font&gt;" style="rounded=1;whiteSpace=wrap;html=1;fillColor=#dae8fc;strokeColor=#6c8ebf;strokeWidth=1.5;" vertex="1" parent="1">
          <mxGeometry x="672" y="1108" width="130" height="40" as="geometry" />
        </mxCell>
        <mxCell id="5YERZEK7RzYkh-wPf8vQ-118" style="edgeStyle=orthogonalEdgeStyle;rounded=0;orthogonalLoop=1;jettySize=auto;html=1;exitX=0.5;exitY=1;exitDx=0;exitDy=0;entryX=0.5;entryY=0;entryDx=0;entryDy=0;fontFamily=Times New Roman;fontSize=18;strokeWidth=1.5;" edge="1" parent="1" source="5YERZEK7RzYkh-wPf8vQ-119" target="5YERZEK7RzYkh-wPf8vQ-103">
          <mxGeometry relative="1" as="geometry" />
        </mxCell>
        <mxCell id="5YERZEK7RzYkh-wPf8vQ-119" value="&lt;span style=&quot;font-family: &amp;#34;times new roman&amp;#34;&quot;&gt;&lt;font style=&quot;font-size: 24px&quot;&gt;ReLu&lt;/font&gt;&lt;/span&gt;" style="rounded=1;whiteSpace=wrap;html=1;fillColor=#d5e8d4;strokeColor=#82b366;strokeWidth=1.5;" vertex="1" parent="1">
          <mxGeometry x="672" y="1172" width="130" height="40" as="geometry" />
        </mxCell>
        <mxCell id="5YERZEK7RzYkh-wPf8vQ-120" style="edgeStyle=orthogonalEdgeStyle;rounded=0;orthogonalLoop=1;jettySize=auto;html=1;fontFamily=Times New Roman;fontSize=18;strokeWidth=1.5;entryX=0.5;entryY=0;entryDx=0;entryDy=0;" edge="1" parent="1" target="5YERZEK7RzYkh-wPf8vQ-69">
          <mxGeometry relative="1" as="geometry">
            <mxPoint x="392" y="1001" as="sourcePoint" />
            <mxPoint x="124" y="1113" as="targetPoint" />
            <Array as="points">
              <mxPoint x="124" y="1001" />
            </Array>
          </mxGeometry>
        </mxCell>
        <mxCell id="5YERZEK7RzYkh-wPf8vQ-121" style="edgeStyle=orthogonalEdgeStyle;rounded=0;orthogonalLoop=1;jettySize=auto;html=1;exitX=0.5;exitY=1;exitDx=0;exitDy=0;strokeWidth=2;" edge="1" parent="1" source="5YERZEK7RzYkh-wPf8vQ-122" target="5YERZEK7RzYkh-wPf8vQ-124">
          <mxGeometry relative="1" as="geometry" />
        </mxCell>
        <mxCell id="5YERZEK7RzYkh-wPf8vQ-122" value="" style="shape=orEllipse;perimeter=ellipsePerimeter;whiteSpace=wrap;html=1;backgroundOutline=1;fontFamily=Times New Roman;fontSize=18;strokeWidth=1.5;" vertex="1" parent="1">
          <mxGeometry x="332" y="1634" width="25" height="25" as="geometry" />
        </mxCell>
        <mxCell id="5YERZEK7RzYkh-wPf8vQ-123" style="edgeStyle=orthogonalEdgeStyle;rounded=0;orthogonalLoop=1;jettySize=auto;html=1;strokeWidth=2;" edge="1" parent="1" source="5YERZEK7RzYkh-wPf8vQ-124">
          <mxGeometry relative="1" as="geometry">
            <mxPoint x="344.5" y="1774" as="targetPoint" />
          </mxGeometry>
        </mxCell>
        <mxCell id="5YERZEK7RzYkh-wPf8vQ-124" value="&lt;font face=&quot;Times New Roman&quot; style=&quot;font-size: 24px&quot;&gt;LeakyReLu&lt;/font&gt;" style="rounded=1;whiteSpace=wrap;html=1;fillColor=#d5e8d4;strokeColor=#82b366;strokeWidth=1.5;" vertex="1" parent="1">
          <mxGeometry x="279.5" y="1694" width="130" height="40" as="geometry" />
        </mxCell>
        <mxCell id="5YERZEK7RzYkh-wPf8vQ-125" style="edgeStyle=orthogonalEdgeStyle;rounded=0;orthogonalLoop=1;jettySize=auto;html=1;fontFamily=Times New Roman;fontSize=18;strokeWidth=1.5;entryX=0.5;entryY=0;entryDx=0;entryDy=0;" edge="1" parent="1" target="5YERZEK7RzYkh-wPf8vQ-115">
          <mxGeometry relative="1" as="geometry">
            <mxPoint x="564" y="1019" as="sourcePoint" />
            <mxPoint x="737" y="1043" as="targetPoint" />
            <Array as="points">
              <mxPoint x="564" y="1023" />
              <mxPoint x="737" y="1023" />
            </Array>
          </mxGeometry>
        </mxCell>
        <mxCell id="5YERZEK7RzYkh-wPf8vQ-126" style="edgeStyle=orthogonalEdgeStyle;rounded=0;orthogonalLoop=1;jettySize=auto;html=1;fontFamily=Times New Roman;fontSize=18;strokeWidth=1.5;" edge="1" parent="1" target="5YERZEK7RzYkh-wPf8vQ-83">
          <mxGeometry relative="1" as="geometry">
            <mxPoint x="572" y="1023.0000000000002" as="sourcePoint" />
            <mxPoint x="392" y="1203" as="targetPoint" />
          </mxGeometry>
        </mxCell>
        <mxCell id="5YERZEK7RzYkh-wPf8vQ-128" style="edgeStyle=orthogonalEdgeStyle;rounded=0;orthogonalLoop=1;jettySize=auto;html=1;fontFamily=Times New Roman;fontSize=18;strokeWidth=1.5;entryX=1;entryY=0.5;entryDx=0;entryDy=0;" edge="1" parent="1" target="5YERZEK7RzYkh-wPf8vQ-81">
          <mxGeometry relative="1" as="geometry">
            <mxPoint x="124" y="1006" as="sourcePoint" />
            <mxPoint x="142" y="1576" as="targetPoint" />
            <Array as="points">
              <mxPoint x="124" y="1073" />
              <mxPoint x="242" y="1073" />
              <mxPoint x="242" y="1577" />
            </Array>
          </mxGeometry>
        </mxCell>
        <mxCell id="5YERZEK7RzYkh-wPf8vQ-129" style="edgeStyle=orthogonalEdgeStyle;rounded=0;orthogonalLoop=1;jettySize=auto;html=1;fontFamily=Times New Roman;fontSize=18;strokeWidth=1.5;" edge="1" parent="1" target="5YERZEK7RzYkh-wPf8vQ-89">
          <mxGeometry relative="1" as="geometry">
            <mxPoint x="392" y="1001" as="sourcePoint" />
            <mxPoint x="564" y="1123" as="targetPoint" />
            <Array as="points">
              <mxPoint x="564" y="1001" />
            </Array>
          </mxGeometry>
        </mxCell>
        <mxCell id="5YERZEK7RzYkh-wPf8vQ-130" value="" style="rounded=0.8;whiteSpace=wrap;html=1;fontSize=24;dashed=1;gradientColor=#ffffff;fillColor=none;strokeColor=#97D077;strokeWidth=3;" vertex="1" parent="1">
          <mxGeometry x="303" y="1014" width="530" height="612" as="geometry" />
        </mxCell>
        <mxCell id="5YERZEK7RzYkh-wPf8vQ-131" value="" style="rounded=0.8;whiteSpace=wrap;html=1;fontSize=24;dashed=1;gradientColor=#ffffff;fillColor=none;strokeColor=#A9C4EB;strokeWidth=3;" vertex="1" parent="1">
          <mxGeometry x="20" y="1014" width="257.5" height="612" as="geometry" />
        </mxCell>
        <mxCell id="5YERZEK7RzYkh-wPf8vQ-132" value="&lt;font face=&quot;Times New Roman&quot;&gt;Part A&lt;/font&gt;" style="whiteSpace=wrap;html=1;rounded=1;dashed=1;fontSize=24;strokeColor=none;strokeWidth=3;fillColor=none;gradientColor=#ffffff;" vertex="1" parent="1">
          <mxGeometry x="8" y="1026" width="120" height="60" as="geometry" />
        </mxCell>
        <mxCell id="5YERZEK7RzYkh-wPf8vQ-133" value="&lt;font face=&quot;Times New Roman&quot;&gt;Part B&lt;/font&gt;" style="whiteSpace=wrap;html=1;rounded=1;dashed=1;fontSize=24;strokeColor=none;strokeWidth=3;fillColor=none;gradientColor=#ffffff;" vertex="1" parent="1">
          <mxGeometry x="290" y="1026" width="120" height="60" as="geometry" />
        </mxCell>
        <mxCell id="5YERZEK7RzYkh-wPf8vQ-138" style="edgeStyle=orthogonalEdgeStyle;rounded=0;orthogonalLoop=1;jettySize=auto;html=1;exitX=0.5;exitY=1;exitDx=0;exitDy=0;fontFamily=Times New Roman;fontSize=18;strokeWidth=1.5;" edge="1" parent="1" source="5YERZEK7RzYkh-wPf8vQ-139" target="5YERZEK7RzYkh-wPf8vQ-141">
          <mxGeometry relative="1" as="geometry" />
        </mxCell>
        <mxCell id="5YERZEK7RzYkh-wPf8vQ-139" value="&lt;font face=&quot;Times New Roman&quot; style=&quot;font-size: 24px&quot;&gt;3×3 Conv&lt;/font&gt;" style="rounded=1;whiteSpace=wrap;html=1;fillColor=#fff2cc;strokeColor=#d6b656;strokeWidth=1.5;" vertex="1" parent="1">
          <mxGeometry x="70" y="1888" width="130" height="40" as="geometry" />
        </mxCell>
        <mxCell id="5YERZEK7RzYkh-wPf8vQ-140" style="edgeStyle=orthogonalEdgeStyle;rounded=0;orthogonalLoop=1;jettySize=auto;html=1;exitX=0.5;exitY=1;exitDx=0;exitDy=0;fontFamily=Times New Roman;fontSize=18;strokeWidth=1.5;" edge="1" parent="1" source="5YERZEK7RzYkh-wPf8vQ-141" target="5YERZEK7RzYkh-wPf8vQ-143">
          <mxGeometry relative="1" as="geometry" />
        </mxCell>
        <mxCell id="5YERZEK7RzYkh-wPf8vQ-141" value="&lt;font face=&quot;Times New Roman&quot; style=&quot;font-size: 20px&quot;&gt;InstanceNorm&lt;/font&gt;" style="rounded=1;whiteSpace=wrap;html=1;fillColor=#dae8fc;strokeColor=#6c8ebf;strokeWidth=1.5;" vertex="1" parent="1">
          <mxGeometry x="70" y="1962" width="130" height="40" as="geometry" />
        </mxCell>
        <mxCell id="5YERZEK7RzYkh-wPf8vQ-142" style="edgeStyle=orthogonalEdgeStyle;rounded=0;orthogonalLoop=1;jettySize=auto;html=1;exitX=0.5;exitY=1;exitDx=0;exitDy=0;entryX=0.5;entryY=0;entryDx=0;entryDy=0;fontFamily=Times New Roman;fontSize=18;strokeWidth=1.5;" edge="1" parent="1" source="5YERZEK7RzYkh-wPf8vQ-143" target="5YERZEK7RzYkh-wPf8vQ-145">
          <mxGeometry relative="1" as="geometry" />
        </mxCell>
        <mxCell id="5YERZEK7RzYkh-wPf8vQ-143" value="&lt;font face=&quot;Times New Roman&quot; style=&quot;font-size: 24px&quot;&gt;LeakyReLu&lt;/font&gt;" style="rounded=1;whiteSpace=wrap;html=1;fillColor=#d5e8d4;strokeColor=#82b366;strokeWidth=1.5;" vertex="1" parent="1">
          <mxGeometry x="70" y="2036" width="130" height="40" as="geometry" />
        </mxCell>
        <mxCell id="5YERZEK7RzYkh-wPf8vQ-144" style="edgeStyle=orthogonalEdgeStyle;rounded=0;orthogonalLoop=1;jettySize=auto;html=1;exitX=0.5;exitY=1;exitDx=0;exitDy=0;fontFamily=Times New Roman;fontSize=18;strokeWidth=1.5;" edge="1" parent="1" source="5YERZEK7RzYkh-wPf8vQ-145" target="5YERZEK7RzYkh-wPf8vQ-147">
          <mxGeometry relative="1" as="geometry" />
        </mxCell>
        <mxCell id="5YERZEK7RzYkh-wPf8vQ-145" value="&lt;font style=&quot;font-size: 24px&quot; face=&quot;Times New Roman&quot;&gt;1×1&amp;nbsp;Conv&lt;/font&gt;" style="rounded=1;whiteSpace=wrap;html=1;fillColor=#fff2cc;strokeColor=#d6b656;strokeWidth=1.5;" vertex="1" parent="1">
          <mxGeometry x="70" y="2109" width="130" height="40" as="geometry" />
        </mxCell>
        <mxCell id="5YERZEK7RzYkh-wPf8vQ-146" style="edgeStyle=orthogonalEdgeStyle;rounded=0;orthogonalLoop=1;jettySize=auto;html=1;exitX=0.5;exitY=1;exitDx=0;exitDy=0;fontFamily=Times New Roman;fontSize=18;strokeWidth=1.5;" edge="1" parent="1" source="5YERZEK7RzYkh-wPf8vQ-147" target="5YERZEK7RzYkh-wPf8vQ-149">
          <mxGeometry relative="1" as="geometry" />
        </mxCell>
        <mxCell id="5YERZEK7RzYkh-wPf8vQ-147" value="&lt;font face=&quot;Times New Roman&quot; style=&quot;font-size: 20px&quot;&gt;InstanceNorm&lt;/font&gt;" style="rounded=1;whiteSpace=wrap;html=1;fillColor=#dae8fc;strokeColor=#6c8ebf;strokeWidth=1.5;" vertex="1" parent="1">
          <mxGeometry x="70" y="2183" width="130" height="40" as="geometry" />
        </mxCell>
        <mxCell id="5YERZEK7RzYkh-wPf8vQ-148" style="edgeStyle=orthogonalEdgeStyle;rounded=0;orthogonalLoop=1;jettySize=auto;html=1;exitX=0.5;exitY=1;exitDx=0;exitDy=0;entryX=0.5;entryY=0;entryDx=0;entryDy=0;fontSize=20;strokeWidth=1.5;" edge="1" parent="1" source="5YERZEK7RzYkh-wPf8vQ-149" target="5YERZEK7RzYkh-wPf8vQ-151">
          <mxGeometry relative="1" as="geometry" />
        </mxCell>
        <mxCell id="5YERZEK7RzYkh-wPf8vQ-149" value="&lt;font face=&quot;Times New Roman&quot; style=&quot;font-size: 24px&quot;&gt;LeakyReLu&lt;/font&gt;" style="rounded=1;whiteSpace=wrap;html=1;fillColor=#d5e8d4;strokeColor=#82b366;strokeWidth=1.5;" vertex="1" parent="1">
          <mxGeometry x="70" y="2257" width="130" height="40" as="geometry" />
        </mxCell>
        <mxCell id="5YERZEK7RzYkh-wPf8vQ-150" style="edgeStyle=orthogonalEdgeStyle;rounded=0;orthogonalLoop=1;jettySize=auto;html=1;exitX=0.5;exitY=1;exitDx=0;exitDy=0;entryX=0;entryY=0.5;entryDx=0;entryDy=0;fontFamily=Times New Roman;fontSize=20;strokeWidth=1.5;" edge="1" parent="1" source="5YERZEK7RzYkh-wPf8vQ-151" target="5YERZEK7RzYkh-wPf8vQ-192">
          <mxGeometry relative="1" as="geometry" />
        </mxCell>
        <mxCell id="5YERZEK7RzYkh-wPf8vQ-151" value="" style="shape=orEllipse;perimeter=ellipsePerimeter;whiteSpace=wrap;html=1;backgroundOutline=1;fontFamily=Times New Roman;fontSize=18;strokeWidth=1.5;" vertex="1" parent="1">
          <mxGeometry x="122" y="2337" width="25" height="25" as="geometry" />
        </mxCell>
        <mxCell id="5YERZEK7RzYkh-wPf8vQ-152" style="edgeStyle=orthogonalEdgeStyle;rounded=0;orthogonalLoop=1;jettySize=auto;html=1;exitX=0.5;exitY=1;exitDx=0;exitDy=0;fontFamily=Times New Roman;fontSize=18;strokeWidth=1.5;" edge="1" parent="1" source="5YERZEK7RzYkh-wPf8vQ-153" target="5YERZEK7RzYkh-wPf8vQ-155">
          <mxGeometry relative="1" as="geometry" />
        </mxCell>
        <mxCell id="5YERZEK7RzYkh-wPf8vQ-153" value="&lt;font face=&quot;Times New Roman&quot; style=&quot;font-size: 24px&quot;&gt;3×3 Conv&lt;/font&gt;" style="rounded=1;whiteSpace=wrap;html=1;fillColor=#fff2cc;strokeColor=#d6b656;strokeWidth=1.5;" vertex="1" parent="1">
          <mxGeometry x="342" y="1981" width="130" height="40" as="geometry" />
        </mxCell>
        <mxCell id="5YERZEK7RzYkh-wPf8vQ-154" style="edgeStyle=orthogonalEdgeStyle;rounded=0;orthogonalLoop=1;jettySize=auto;html=1;exitX=0.5;exitY=1;exitDx=0;exitDy=0;fontFamily=Times New Roman;fontSize=18;strokeWidth=1.5;" edge="1" parent="1" source="5YERZEK7RzYkh-wPf8vQ-155" target="5YERZEK7RzYkh-wPf8vQ-157">
          <mxGeometry relative="1" as="geometry" />
        </mxCell>
        <mxCell id="5YERZEK7RzYkh-wPf8vQ-155" value="&lt;font face=&quot;Times New Roman&quot; style=&quot;font-size: 20px&quot;&gt;InstanceNorm&lt;/font&gt;" style="rounded=1;whiteSpace=wrap;html=1;fillColor=#dae8fc;strokeColor=#6c8ebf;strokeWidth=1.5;" vertex="1" parent="1">
          <mxGeometry x="342" y="2050" width="130" height="40" as="geometry" />
        </mxCell>
        <mxCell id="5YERZEK7RzYkh-wPf8vQ-156" style="edgeStyle=orthogonalEdgeStyle;rounded=0;orthogonalLoop=1;jettySize=auto;html=1;exitX=0.5;exitY=1;exitDx=0;exitDy=0;entryX=0;entryY=0.5;entryDx=0;entryDy=0;fontSize=20;strokeWidth=1.5;" edge="1" parent="1" source="5YERZEK7RzYkh-wPf8vQ-157" target="5YERZEK7RzYkh-wPf8vQ-171">
          <mxGeometry relative="1" as="geometry" />
        </mxCell>
        <mxCell id="5YERZEK7RzYkh-wPf8vQ-157" value="&lt;span style=&quot;font-family: &amp;#34;times new roman&amp;#34;&quot;&gt;&lt;font style=&quot;font-size: 24px&quot;&gt;ReLu&lt;/font&gt;&lt;/span&gt;" style="rounded=1;whiteSpace=wrap;html=1;fillColor=#d5e8d4;strokeColor=#82b366;strokeWidth=1.5;" vertex="1" parent="1">
          <mxGeometry x="342" y="2116" width="130" height="40" as="geometry" />
        </mxCell>
        <mxCell id="5YERZEK7RzYkh-wPf8vQ-158" style="edgeStyle=orthogonalEdgeStyle;rounded=0;orthogonalLoop=1;jettySize=auto;html=1;exitX=0.5;exitY=1;exitDx=0;exitDy=0;fontFamily=Times New Roman;fontSize=18;strokeWidth=1.5;" edge="1" parent="1" source="5YERZEK7RzYkh-wPf8vQ-159" target="5YERZEK7RzYkh-wPf8vQ-161">
          <mxGeometry relative="1" as="geometry" />
        </mxCell>
        <mxCell id="5YERZEK7RzYkh-wPf8vQ-159" value="&lt;font face=&quot;Times New Roman&quot; style=&quot;font-size: 24px&quot;&gt;3×3 Conv&lt;/font&gt;" style="rounded=1;whiteSpace=wrap;html=1;fillColor=#fff2cc;strokeColor=#d6b656;strokeWidth=1.5;" vertex="1" parent="1">
          <mxGeometry x="511" y="1896" width="130" height="40" as="geometry" />
        </mxCell>
        <mxCell id="5YERZEK7RzYkh-wPf8vQ-160" style="edgeStyle=orthogonalEdgeStyle;rounded=0;orthogonalLoop=1;jettySize=auto;html=1;exitX=0.5;exitY=1;exitDx=0;exitDy=0;fontFamily=Times New Roman;fontSize=18;strokeWidth=1.5;" edge="1" parent="1" source="5YERZEK7RzYkh-wPf8vQ-161" target="5YERZEK7RzYkh-wPf8vQ-163">
          <mxGeometry relative="1" as="geometry" />
        </mxCell>
        <mxCell id="5YERZEK7RzYkh-wPf8vQ-161" value="&lt;font face=&quot;Times New Roman&quot; style=&quot;font-size: 20px&quot;&gt;InstanceNorm&lt;/font&gt;" style="rounded=1;whiteSpace=wrap;html=1;fillColor=#dae8fc;strokeColor=#6c8ebf;strokeWidth=1.5;" vertex="1" parent="1">
          <mxGeometry x="511" y="1962" width="130" height="40" as="geometry" />
        </mxCell>
        <mxCell id="5YERZEK7RzYkh-wPf8vQ-162" style="edgeStyle=orthogonalEdgeStyle;rounded=0;orthogonalLoop=1;jettySize=auto;html=1;exitX=0.5;exitY=1;exitDx=0;exitDy=0;fontFamily=Times New Roman;fontSize=18;strokeWidth=1.5;" edge="1" parent="1" source="5YERZEK7RzYkh-wPf8vQ-163" target="5YERZEK7RzYkh-wPf8vQ-165">
          <mxGeometry relative="1" as="geometry" />
        </mxCell>
        <mxCell id="5YERZEK7RzYkh-wPf8vQ-163" value="&lt;font face=&quot;Times New Roman&quot; style=&quot;font-size: 24px&quot;&gt;ReLu&lt;/font&gt;" style="rounded=1;whiteSpace=wrap;html=1;fillColor=#d5e8d4;strokeColor=#82b366;strokeWidth=1.5;" vertex="1" parent="1">
          <mxGeometry x="511" y="2028" width="130" height="40" as="geometry" />
        </mxCell>
        <mxCell id="5YERZEK7RzYkh-wPf8vQ-164" style="edgeStyle=orthogonalEdgeStyle;rounded=0;orthogonalLoop=1;jettySize=auto;html=1;exitX=0.5;exitY=1;exitDx=0;exitDy=0;entryX=0.5;entryY=0;entryDx=0;entryDy=0;fontFamily=Times New Roman;fontSize=18;strokeWidth=1.5;" edge="1" parent="1" source="5YERZEK7RzYkh-wPf8vQ-165" target="5YERZEK7RzYkh-wPf8vQ-167">
          <mxGeometry relative="1" as="geometry" />
        </mxCell>
        <mxCell id="5YERZEK7RzYkh-wPf8vQ-165" value="&lt;font style=&quot;font-size: 24px&quot;&gt;&lt;span style=&quot;font-family: &amp;#34;times new roman&amp;#34;&quot;&gt;1×&lt;/span&gt;&lt;span style=&quot;font-family: &amp;#34;times new roman&amp;#34;&quot;&gt;1&lt;/span&gt;&lt;font face=&quot;Times New Roman&quot;&gt;&amp;nbsp;Conv&lt;/font&gt;&lt;/font&gt;" style="rounded=1;whiteSpace=wrap;html=1;fillColor=#fff2cc;strokeColor=#d6b656;strokeWidth=1.5;" vertex="1" parent="1">
          <mxGeometry x="511" y="2094" width="130" height="40" as="geometry" />
        </mxCell>
        <mxCell id="5YERZEK7RzYkh-wPf8vQ-166" value="" style="edgeStyle=orthogonalEdgeStyle;rounded=0;orthogonalLoop=1;jettySize=auto;html=1;fontFamily=Times New Roman;fontSize=18;strokeWidth=1.5;" edge="1" parent="1" source="5YERZEK7RzYkh-wPf8vQ-167" target="5YERZEK7RzYkh-wPf8vQ-169">
          <mxGeometry relative="1" as="geometry" />
        </mxCell>
        <mxCell id="5YERZEK7RzYkh-wPf8vQ-167" value="&lt;font face=&quot;Times New Roman&quot; style=&quot;font-size: 20px&quot;&gt;InstanceNorm&lt;/font&gt;" style="rounded=1;whiteSpace=wrap;html=1;fillColor=#dae8fc;strokeColor=#6c8ebf;strokeWidth=1.5;" vertex="1" parent="1">
          <mxGeometry x="511" y="2160" width="130" height="40" as="geometry" />
        </mxCell>
        <mxCell id="5YERZEK7RzYkh-wPf8vQ-168" style="edgeStyle=orthogonalEdgeStyle;rounded=0;orthogonalLoop=1;jettySize=auto;html=1;exitX=0.5;exitY=1;exitDx=0;exitDy=0;entryX=0.5;entryY=0;entryDx=0;entryDy=0;fontSize=20;strokeWidth=1.5;" edge="1" parent="1" source="5YERZEK7RzYkh-wPf8vQ-169" target="5YERZEK7RzYkh-wPf8vQ-171">
          <mxGeometry relative="1" as="geometry" />
        </mxCell>
        <mxCell id="5YERZEK7RzYkh-wPf8vQ-169" value="&lt;span style=&quot;font-family: &amp;#34;times new roman&amp;#34;&quot;&gt;&lt;font style=&quot;font-size: 24px&quot;&gt;ReLu&lt;/font&gt;&lt;/span&gt;" style="rounded=1;whiteSpace=wrap;html=1;fillColor=#d5e8d4;strokeColor=#82b366;strokeWidth=1.5;" vertex="1" parent="1">
          <mxGeometry x="511" y="2226" width="130" height="40" as="geometry" />
        </mxCell>
        <mxCell id="5YERZEK7RzYkh-wPf8vQ-170" style="edgeStyle=orthogonalEdgeStyle;rounded=0;orthogonalLoop=1;jettySize=auto;html=1;exitX=0.5;exitY=1;exitDx=0;exitDy=0;entryX=1;entryY=0.5;entryDx=0;entryDy=0;fontFamily=Times New Roman;fontSize=20;strokeWidth=1.5;" edge="1" parent="1" source="5YERZEK7RzYkh-wPf8vQ-171" target="5YERZEK7RzYkh-wPf8vQ-192">
          <mxGeometry relative="1" as="geometry" />
        </mxCell>
        <mxCell id="5YERZEK7RzYkh-wPf8vQ-171" value="" style="shape=sumEllipse;perimeter=ellipsePerimeter;whiteSpace=wrap;html=1;backgroundOutline=1;fontFamily=Times New Roman;fontSize=18;strokeWidth=1.5;" vertex="1" parent="1">
          <mxGeometry x="563" y="2366" width="25" height="25" as="geometry" />
        </mxCell>
        <mxCell id="5YERZEK7RzYkh-wPf8vQ-172" style="edgeStyle=orthogonalEdgeStyle;rounded=0;orthogonalLoop=1;jettySize=auto;html=1;exitX=0.5;exitY=1;exitDx=0;exitDy=0;fontFamily=Times New Roman;fontSize=18;strokeWidth=1.5;" edge="1" parent="1" source="5YERZEK7RzYkh-wPf8vQ-173" target="5YERZEK7RzYkh-wPf8vQ-175">
          <mxGeometry relative="1" as="geometry" />
        </mxCell>
        <mxCell id="5YERZEK7RzYkh-wPf8vQ-173" value="&lt;font face=&quot;Times New Roman&quot; style=&quot;font-size: 24px&quot;&gt;3×3 Conv&lt;/font&gt;" style="rounded=1;whiteSpace=wrap;html=1;fillColor=#fff2cc;strokeColor=#d6b656;strokeWidth=1.5;" vertex="1" parent="1">
          <mxGeometry x="683" y="2008" width="130" height="40" as="geometry" />
        </mxCell>
        <mxCell id="5YERZEK7RzYkh-wPf8vQ-174" style="edgeStyle=orthogonalEdgeStyle;rounded=0;orthogonalLoop=1;jettySize=auto;html=1;exitX=0.5;exitY=1;exitDx=0;exitDy=0;fontFamily=Times New Roman;fontSize=18;strokeWidth=1.5;" edge="1" parent="1" source="5YERZEK7RzYkh-wPf8vQ-175" target="5YERZEK7RzYkh-wPf8vQ-177">
          <mxGeometry relative="1" as="geometry" />
        </mxCell>
        <mxCell id="5YERZEK7RzYkh-wPf8vQ-175" value="&lt;font face=&quot;Times New Roman&quot; style=&quot;font-size: 20px&quot;&gt;InstanceNorm&lt;/font&gt;" style="rounded=1;whiteSpace=wrap;html=1;fillColor=#dae8fc;strokeColor=#6c8ebf;strokeWidth=1.5;" vertex="1" parent="1">
          <mxGeometry x="683" y="2072" width="130" height="40" as="geometry" />
        </mxCell>
        <mxCell id="5YERZEK7RzYkh-wPf8vQ-176" style="edgeStyle=orthogonalEdgeStyle;rounded=0;orthogonalLoop=1;jettySize=auto;html=1;exitX=0.5;exitY=1;exitDx=0;exitDy=0;fontFamily=Times New Roman;fontSize=18;strokeWidth=1.5;" edge="1" parent="1" source="5YERZEK7RzYkh-wPf8vQ-177" target="5YERZEK7RzYkh-wPf8vQ-179">
          <mxGeometry relative="1" as="geometry" />
        </mxCell>
        <mxCell id="5YERZEK7RzYkh-wPf8vQ-177" value="&lt;font face=&quot;Times New Roman&quot; style=&quot;font-size: 24px&quot;&gt;ReLu&lt;/font&gt;" style="rounded=1;whiteSpace=wrap;html=1;fillColor=#d5e8d4;strokeColor=#82b366;strokeWidth=1.5;" vertex="1" parent="1">
          <mxGeometry x="683" y="2135" width="130" height="40" as="geometry" />
        </mxCell>
        <mxCell id="5YERZEK7RzYkh-wPf8vQ-178" style="edgeStyle=orthogonalEdgeStyle;rounded=0;orthogonalLoop=1;jettySize=auto;html=1;exitX=0.5;exitY=1;exitDx=0;exitDy=0;entryX=0.5;entryY=0;entryDx=0;entryDy=0;fontFamily=Times New Roman;fontSize=18;strokeWidth=1.5;" edge="1" parent="1" source="5YERZEK7RzYkh-wPf8vQ-179" target="5YERZEK7RzYkh-wPf8vQ-181">
          <mxGeometry relative="1" as="geometry" />
        </mxCell>
        <mxCell id="5YERZEK7RzYkh-wPf8vQ-179" value="&lt;font style=&quot;font-size: 24px&quot;&gt;&lt;span style=&quot;font-family: &amp;#34;times new roman&amp;#34;&quot;&gt;1×&lt;/span&gt;&lt;span style=&quot;font-family: &amp;#34;times new roman&amp;#34;&quot;&gt;1&lt;/span&gt;&lt;font face=&quot;Times New Roman&quot;&gt;&amp;nbsp;Conv&lt;/font&gt;&lt;/font&gt;" style="rounded=1;whiteSpace=wrap;html=1;fillColor=#fff2cc;strokeColor=#d6b656;strokeWidth=1.5;" vertex="1" parent="1">
          <mxGeometry x="683" y="2198" width="130" height="40" as="geometry" />
        </mxCell>
        <mxCell id="5YERZEK7RzYkh-wPf8vQ-180" value="" style="edgeStyle=orthogonalEdgeStyle;rounded=0;orthogonalLoop=1;jettySize=auto;html=1;fontFamily=Times New Roman;fontSize=18;strokeWidth=1.5;" edge="1" parent="1" source="5YERZEK7RzYkh-wPf8vQ-181" target="5YERZEK7RzYkh-wPf8vQ-183">
          <mxGeometry relative="1" as="geometry" />
        </mxCell>
        <mxCell id="5YERZEK7RzYkh-wPf8vQ-181" value="&lt;font face=&quot;Times New Roman&quot; style=&quot;font-size: 20px&quot;&gt;InstanceNorm&lt;/font&gt;" style="rounded=1;whiteSpace=wrap;html=1;fillColor=#dae8fc;strokeColor=#6c8ebf;strokeWidth=1.5;" vertex="1" parent="1">
          <mxGeometry x="683" y="2262" width="130" height="40" as="geometry" />
        </mxCell>
        <mxCell id="5YERZEK7RzYkh-wPf8vQ-182" style="edgeStyle=orthogonalEdgeStyle;rounded=0;orthogonalLoop=1;jettySize=auto;html=1;exitX=0.5;exitY=1;exitDx=0;exitDy=0;entryX=1;entryY=0.5;entryDx=0;entryDy=0;fontSize=20;strokeWidth=1.5;" edge="1" parent="1" source="5YERZEK7RzYkh-wPf8vQ-183" target="5YERZEK7RzYkh-wPf8vQ-171">
          <mxGeometry relative="1" as="geometry">
            <Array as="points">
              <mxPoint x="748" y="2379" />
              <mxPoint x="635" y="2379" />
            </Array>
          </mxGeometry>
        </mxCell>
        <mxCell id="5YERZEK7RzYkh-wPf8vQ-183" value="&lt;span style=&quot;font-family: &amp;#34;times new roman&amp;#34;&quot;&gt;&lt;font style=&quot;font-size: 24px&quot;&gt;ReLu&lt;/font&gt;&lt;/span&gt;" style="rounded=1;whiteSpace=wrap;html=1;fillColor=#d5e8d4;strokeColor=#82b366;strokeWidth=1.5;" vertex="1" parent="1">
          <mxGeometry x="683" y="2325" width="130" height="40" as="geometry" />
        </mxCell>
        <mxCell id="5YERZEK7RzYkh-wPf8vQ-184" style="edgeStyle=orthogonalEdgeStyle;rounded=0;orthogonalLoop=1;jettySize=auto;html=1;exitX=0.5;exitY=1;exitDx=0;exitDy=0;entryX=0.5;entryY=0;entryDx=0;entryDy=0;fontFamily=Times New Roman;fontSize=18;strokeWidth=1.5;" edge="1" parent="1" source="5YERZEK7RzYkh-wPf8vQ-185" target="5YERZEK7RzYkh-wPf8vQ-187">
          <mxGeometry relative="1" as="geometry" />
        </mxCell>
        <mxCell id="5YERZEK7RzYkh-wPf8vQ-185" value="&lt;font style=&quot;font-size: 24px&quot;&gt;&lt;span style=&quot;font-family: &amp;#34;times new roman&amp;#34;&quot;&gt;1×&lt;/span&gt;&lt;span style=&quot;font-family: &amp;#34;times new roman&amp;#34;&quot;&gt;1&lt;/span&gt;&lt;font face=&quot;Times New Roman&quot;&gt;&amp;nbsp;Conv&lt;/font&gt;&lt;/font&gt;" style="rounded=1;whiteSpace=wrap;html=1;fillColor=#fff2cc;strokeColor=#d6b656;strokeWidth=1.5;" vertex="1" parent="1">
          <mxGeometry x="683" y="1818" width="130" height="40" as="geometry" />
        </mxCell>
        <mxCell id="5YERZEK7RzYkh-wPf8vQ-186" value="" style="edgeStyle=orthogonalEdgeStyle;rounded=0;orthogonalLoop=1;jettySize=auto;html=1;fontFamily=Times New Roman;fontSize=18;strokeWidth=1.5;" edge="1" parent="1" source="5YERZEK7RzYkh-wPf8vQ-187" target="5YERZEK7RzYkh-wPf8vQ-189">
          <mxGeometry relative="1" as="geometry" />
        </mxCell>
        <mxCell id="5YERZEK7RzYkh-wPf8vQ-187" value="&lt;font face=&quot;Times New Roman&quot; style=&quot;font-size: 20px&quot;&gt;InstanceNorm&lt;/font&gt;" style="rounded=1;whiteSpace=wrap;html=1;fillColor=#dae8fc;strokeColor=#6c8ebf;strokeWidth=1.5;" vertex="1" parent="1">
          <mxGeometry x="683" y="1881" width="130" height="40" as="geometry" />
        </mxCell>
        <mxCell id="5YERZEK7RzYkh-wPf8vQ-188" style="edgeStyle=orthogonalEdgeStyle;rounded=0;orthogonalLoop=1;jettySize=auto;html=1;exitX=0.5;exitY=1;exitDx=0;exitDy=0;entryX=0.5;entryY=0;entryDx=0;entryDy=0;fontFamily=Times New Roman;fontSize=18;strokeWidth=1.5;" edge="1" parent="1" source="5YERZEK7RzYkh-wPf8vQ-189" target="5YERZEK7RzYkh-wPf8vQ-173">
          <mxGeometry relative="1" as="geometry" />
        </mxCell>
        <mxCell id="5YERZEK7RzYkh-wPf8vQ-189" value="&lt;span style=&quot;font-family: &amp;#34;times new roman&amp;#34;&quot;&gt;&lt;font style=&quot;font-size: 24px&quot;&gt;ReLu&lt;/font&gt;&lt;/span&gt;" style="rounded=1;whiteSpace=wrap;html=1;fillColor=#d5e8d4;strokeColor=#82b366;strokeWidth=1.5;" vertex="1" parent="1">
          <mxGeometry x="683" y="1945" width="130" height="40" as="geometry" />
        </mxCell>
        <mxCell id="5YERZEK7RzYkh-wPf8vQ-190" style="edgeStyle=orthogonalEdgeStyle;rounded=0;orthogonalLoop=1;jettySize=auto;html=1;fontFamily=Times New Roman;fontSize=18;strokeWidth=1.5;entryX=0.5;entryY=0;entryDx=0;entryDy=0;" edge="1" parent="1" target="5YERZEK7RzYkh-wPf8vQ-139">
          <mxGeometry relative="1" as="geometry">
            <mxPoint x="403" y="1774" as="sourcePoint" />
            <mxPoint x="135" y="1886" as="targetPoint" />
            <Array as="points">
              <mxPoint x="135" y="1774" />
            </Array>
          </mxGeometry>
        </mxCell>
        <mxCell id="5YERZEK7RzYkh-wPf8vQ-191" style="edgeStyle=orthogonalEdgeStyle;rounded=0;orthogonalLoop=1;jettySize=auto;html=1;exitX=0.5;exitY=1;exitDx=0;exitDy=0;strokeWidth=2;" edge="1" parent="1" source="5YERZEK7RzYkh-wPf8vQ-192" target="5YERZEK7RzYkh-wPf8vQ-194">
          <mxGeometry relative="1" as="geometry" />
        </mxCell>
        <mxCell id="5YERZEK7RzYkh-wPf8vQ-192" value="" style="shape=orEllipse;perimeter=ellipsePerimeter;whiteSpace=wrap;html=1;backgroundOutline=1;fontFamily=Times New Roman;fontSize=18;strokeWidth=1.5;" vertex="1" parent="1">
          <mxGeometry x="343" y="2407" width="25" height="25" as="geometry" />
        </mxCell>
        <mxCell id="5YERZEK7RzYkh-wPf8vQ-193" style="edgeStyle=orthogonalEdgeStyle;rounded=0;orthogonalLoop=1;jettySize=auto;html=1;strokeWidth=2;" edge="1" parent="1" source="5YERZEK7RzYkh-wPf8vQ-194">
          <mxGeometry relative="1" as="geometry">
            <mxPoint x="355.5" y="2547" as="targetPoint" />
          </mxGeometry>
        </mxCell>
        <mxCell id="5YERZEK7RzYkh-wPf8vQ-194" value="&lt;font face=&quot;Times New Roman&quot; style=&quot;font-size: 24px&quot;&gt;LeakyReLu&lt;/font&gt;" style="rounded=1;whiteSpace=wrap;html=1;fillColor=#d5e8d4;strokeColor=#82b366;strokeWidth=1.5;" vertex="1" parent="1">
          <mxGeometry x="290.5" y="2467" width="130" height="40" as="geometry" />
        </mxCell>
        <mxCell id="5YERZEK7RzYkh-wPf8vQ-195" style="edgeStyle=orthogonalEdgeStyle;rounded=0;orthogonalLoop=1;jettySize=auto;html=1;fontFamily=Times New Roman;fontSize=18;strokeWidth=1.5;entryX=0.5;entryY=0;entryDx=0;entryDy=0;" edge="1" parent="1" target="5YERZEK7RzYkh-wPf8vQ-185">
          <mxGeometry relative="1" as="geometry">
            <mxPoint x="575.0000000000005" y="1792" as="sourcePoint" />
            <mxPoint x="748" y="1816" as="targetPoint" />
            <Array as="points">
              <mxPoint x="575" y="1796" />
              <mxPoint x="748" y="1796" />
            </Array>
          </mxGeometry>
        </mxCell>
        <mxCell id="5YERZEK7RzYkh-wPf8vQ-196" style="edgeStyle=orthogonalEdgeStyle;rounded=0;orthogonalLoop=1;jettySize=auto;html=1;fontFamily=Times New Roman;fontSize=18;strokeWidth=1.5;" edge="1" parent="1" target="5YERZEK7RzYkh-wPf8vQ-153">
          <mxGeometry relative="1" as="geometry">
            <mxPoint x="583" y="1796" as="sourcePoint" />
            <mxPoint x="403" y="1976" as="targetPoint" />
          </mxGeometry>
        </mxCell>
        <mxCell id="5YERZEK7RzYkh-wPf8vQ-197" style="edgeStyle=orthogonalEdgeStyle;rounded=0;orthogonalLoop=1;jettySize=auto;html=1;fontFamily=Times New Roman;fontSize=18;strokeWidth=1.5;entryX=1;entryY=0.5;entryDx=0;entryDy=0;" edge="1" parent="1" target="5YERZEK7RzYkh-wPf8vQ-151">
          <mxGeometry relative="1" as="geometry">
            <mxPoint x="135" y="1779" as="sourcePoint" />
            <mxPoint x="153" y="2349" as="targetPoint" />
            <Array as="points">
              <mxPoint x="135" y="1846" />
              <mxPoint x="253" y="1846" />
              <mxPoint x="253" y="2350" />
            </Array>
          </mxGeometry>
        </mxCell>
        <mxCell id="5YERZEK7RzYkh-wPf8vQ-198" style="edgeStyle=orthogonalEdgeStyle;rounded=0;orthogonalLoop=1;jettySize=auto;html=1;fontFamily=Times New Roman;fontSize=18;strokeWidth=1.5;" edge="1" parent="1" target="5YERZEK7RzYkh-wPf8vQ-159">
          <mxGeometry relative="1" as="geometry">
            <mxPoint x="403" y="1774" as="sourcePoint" />
            <mxPoint x="575" y="1896" as="targetPoint" />
            <Array as="points">
              <mxPoint x="575" y="1774" />
            </Array>
          </mxGeometry>
        </mxCell>
        <mxCell id="5YERZEK7RzYkh-wPf8vQ-199" value="" style="rounded=0.8;whiteSpace=wrap;html=1;fontSize=24;dashed=1;gradientColor=#ffffff;fillColor=none;strokeColor=#97D077;strokeWidth=3;" vertex="1" parent="1">
          <mxGeometry x="314" y="1787" width="530" height="612" as="geometry" />
        </mxCell>
        <mxCell id="5YERZEK7RzYkh-wPf8vQ-200" value="" style="rounded=0.8;whiteSpace=wrap;html=1;fontSize=24;dashed=1;gradientColor=#ffffff;fillColor=none;strokeColor=#A9C4EB;strokeWidth=3;" vertex="1" parent="1">
          <mxGeometry x="31" y="1787" width="257.5" height="612" as="geometry" />
        </mxCell>
        <mxCell id="5YERZEK7RzYkh-wPf8vQ-201" value="&lt;font face=&quot;Times New Roman&quot;&gt;Part A&lt;/font&gt;" style="whiteSpace=wrap;html=1;rounded=1;dashed=1;fontSize=24;strokeColor=none;strokeWidth=3;fillColor=none;gradientColor=#ffffff;" vertex="1" parent="1">
          <mxGeometry x="19" y="1799" width="120" height="60" as="geometry" />
        </mxCell>
        <mxCell id="5YERZEK7RzYkh-wPf8vQ-202" value="&lt;font face=&quot;Times New Roman&quot;&gt;Part B&lt;/font&gt;" style="whiteSpace=wrap;html=1;rounded=1;dashed=1;fontSize=24;strokeColor=none;strokeWidth=3;fillColor=none;gradientColor=#ffffff;" vertex="1" parent="1">
          <mxGeometry x="301" y="1799" width="120" height="60" as="geometry" />
        </mxCell>
        <mxCell id="5YERZEK7RzYkh-wPf8vQ-204" style="edgeStyle=orthogonalEdgeStyle;rounded=0;orthogonalLoop=1;jettySize=auto;html=1;strokeWidth=2;" edge="1" parent="1">
          <mxGeometry relative="1" as="geometry">
            <mxPoint x="344.5" y="1774" as="targetPoint" />
            <mxPoint x="344.5" y="1734" as="sourcePoint" />
          </mxGeometry>
        </mxCell>
        <mxCell id="5YERZEK7RzYkh-wPf8vQ-205" style="edgeStyle=orthogonalEdgeStyle;rounded=0;orthogonalLoop=1;jettySize=auto;html=1;exitX=0.5;exitY=1;exitDx=0;exitDy=0;fontFamily=Times New Roman;fontSize=18;strokeWidth=1.5;" edge="1" source="5YERZEK7RzYkh-wPf8vQ-206" target="5YERZEK7RzYkh-wPf8vQ-208" parent="1">
          <mxGeometry relative="1" as="geometry" />
        </mxCell>
        <mxCell id="5YERZEK7RzYkh-wPf8vQ-206" value="&lt;font face=&quot;Times New Roman&quot; style=&quot;font-size: 24px&quot;&gt;3×3 Conv&lt;/font&gt;" style="rounded=1;whiteSpace=wrap;html=1;fillColor=#fff2cc;strokeColor=#d6b656;strokeWidth=1.5;" vertex="1" parent="1">
          <mxGeometry x="70" y="1888" width="130" height="40" as="geometry" />
        </mxCell>
        <mxCell id="5YERZEK7RzYkh-wPf8vQ-207" style="edgeStyle=orthogonalEdgeStyle;rounded=0;orthogonalLoop=1;jettySize=auto;html=1;exitX=0.5;exitY=1;exitDx=0;exitDy=0;fontFamily=Times New Roman;fontSize=18;strokeWidth=1.5;" edge="1" source="5YERZEK7RzYkh-wPf8vQ-208" target="5YERZEK7RzYkh-wPf8vQ-210" parent="1">
          <mxGeometry relative="1" as="geometry" />
        </mxCell>
        <mxCell id="5YERZEK7RzYkh-wPf8vQ-208" value="&lt;font face=&quot;Times New Roman&quot; style=&quot;font-size: 20px&quot;&gt;InstanceNorm&lt;/font&gt;" style="rounded=1;whiteSpace=wrap;html=1;fillColor=#dae8fc;strokeColor=#6c8ebf;strokeWidth=1.5;" vertex="1" parent="1">
          <mxGeometry x="70" y="1962" width="130" height="40" as="geometry" />
        </mxCell>
        <mxCell id="5YERZEK7RzYkh-wPf8vQ-209" style="edgeStyle=orthogonalEdgeStyle;rounded=0;orthogonalLoop=1;jettySize=auto;html=1;exitX=0.5;exitY=1;exitDx=0;exitDy=0;entryX=0.5;entryY=0;entryDx=0;entryDy=0;fontFamily=Times New Roman;fontSize=18;strokeWidth=1.5;" edge="1" source="5YERZEK7RzYkh-wPf8vQ-210" target="5YERZEK7RzYkh-wPf8vQ-212" parent="1">
          <mxGeometry relative="1" as="geometry" />
        </mxCell>
        <mxCell id="5YERZEK7RzYkh-wPf8vQ-210" value="&lt;font face=&quot;Times New Roman&quot; style=&quot;font-size: 24px&quot;&gt;LeakyReLu&lt;/font&gt;" style="rounded=1;whiteSpace=wrap;html=1;fillColor=#d5e8d4;strokeColor=#82b366;strokeWidth=1.5;" vertex="1" parent="1">
          <mxGeometry x="70" y="2036" width="130" height="40" as="geometry" />
        </mxCell>
        <mxCell id="5YERZEK7RzYkh-wPf8vQ-211" style="edgeStyle=orthogonalEdgeStyle;rounded=0;orthogonalLoop=1;jettySize=auto;html=1;exitX=0.5;exitY=1;exitDx=0;exitDy=0;fontFamily=Times New Roman;fontSize=18;strokeWidth=1.5;" edge="1" source="5YERZEK7RzYkh-wPf8vQ-212" target="5YERZEK7RzYkh-wPf8vQ-214" parent="1">
          <mxGeometry relative="1" as="geometry" />
        </mxCell>
        <mxCell id="5YERZEK7RzYkh-wPf8vQ-212" value="&lt;font style=&quot;font-size: 24px&quot; face=&quot;Times New Roman&quot;&gt;1×1&amp;nbsp;Conv&lt;/font&gt;" style="rounded=1;whiteSpace=wrap;html=1;fillColor=#fff2cc;strokeColor=#d6b656;strokeWidth=1.5;" vertex="1" parent="1">
          <mxGeometry x="70" y="2109" width="130" height="40" as="geometry" />
        </mxCell>
        <mxCell id="5YERZEK7RzYkh-wPf8vQ-213" style="edgeStyle=orthogonalEdgeStyle;rounded=0;orthogonalLoop=1;jettySize=auto;html=1;exitX=0.5;exitY=1;exitDx=0;exitDy=0;fontFamily=Times New Roman;fontSize=18;strokeWidth=1.5;" edge="1" source="5YERZEK7RzYkh-wPf8vQ-214" target="5YERZEK7RzYkh-wPf8vQ-216" parent="1">
          <mxGeometry relative="1" as="geometry" />
        </mxCell>
        <mxCell id="5YERZEK7RzYkh-wPf8vQ-214" value="&lt;font face=&quot;Times New Roman&quot; style=&quot;font-size: 20px&quot;&gt;InstanceNorm&lt;/font&gt;" style="rounded=1;whiteSpace=wrap;html=1;fillColor=#dae8fc;strokeColor=#6c8ebf;strokeWidth=1.5;" vertex="1" parent="1">
          <mxGeometry x="70" y="2183" width="130" height="40" as="geometry" />
        </mxCell>
        <mxCell id="5YERZEK7RzYkh-wPf8vQ-215" style="edgeStyle=orthogonalEdgeStyle;rounded=0;orthogonalLoop=1;jettySize=auto;html=1;exitX=0.5;exitY=1;exitDx=0;exitDy=0;entryX=0.5;entryY=0;entryDx=0;entryDy=0;fontSize=20;strokeWidth=1.5;" edge="1" source="5YERZEK7RzYkh-wPf8vQ-216" target="5YERZEK7RzYkh-wPf8vQ-218" parent="1">
          <mxGeometry relative="1" as="geometry" />
        </mxCell>
        <mxCell id="5YERZEK7RzYkh-wPf8vQ-216" value="&lt;font face=&quot;Times New Roman&quot; style=&quot;font-size: 24px&quot;&gt;LeakyReLu&lt;/font&gt;" style="rounded=1;whiteSpace=wrap;html=1;fillColor=#d5e8d4;strokeColor=#82b366;strokeWidth=1.5;" vertex="1" parent="1">
          <mxGeometry x="70" y="2257" width="130" height="40" as="geometry" />
        </mxCell>
        <mxCell id="5YERZEK7RzYkh-wPf8vQ-217" style="edgeStyle=orthogonalEdgeStyle;rounded=0;orthogonalLoop=1;jettySize=auto;html=1;exitX=0.5;exitY=1;exitDx=0;exitDy=0;entryX=0;entryY=0.5;entryDx=0;entryDy=0;fontFamily=Times New Roman;fontSize=20;strokeWidth=1.5;" edge="1" source="5YERZEK7RzYkh-wPf8vQ-218" target="5YERZEK7RzYkh-wPf8vQ-259" parent="1">
          <mxGeometry relative="1" as="geometry" />
        </mxCell>
        <mxCell id="5YERZEK7RzYkh-wPf8vQ-218" value="" style="shape=orEllipse;perimeter=ellipsePerimeter;whiteSpace=wrap;html=1;backgroundOutline=1;fontFamily=Times New Roman;fontSize=18;strokeWidth=1.5;" vertex="1" parent="1">
          <mxGeometry x="122" y="2337" width="25" height="25" as="geometry" />
        </mxCell>
        <mxCell id="5YERZEK7RzYkh-wPf8vQ-219" style="edgeStyle=orthogonalEdgeStyle;rounded=0;orthogonalLoop=1;jettySize=auto;html=1;exitX=0.5;exitY=1;exitDx=0;exitDy=0;fontFamily=Times New Roman;fontSize=18;strokeWidth=1.5;" edge="1" source="5YERZEK7RzYkh-wPf8vQ-220" target="5YERZEK7RzYkh-wPf8vQ-222" parent="1">
          <mxGeometry relative="1" as="geometry" />
        </mxCell>
        <mxCell id="5YERZEK7RzYkh-wPf8vQ-220" value="&lt;font face=&quot;Times New Roman&quot; style=&quot;font-size: 24px&quot;&gt;3×3 Conv&lt;/font&gt;" style="rounded=1;whiteSpace=wrap;html=1;fillColor=#fff2cc;strokeColor=#d6b656;strokeWidth=1.5;" vertex="1" parent="1">
          <mxGeometry x="342" y="1981" width="130" height="40" as="geometry" />
        </mxCell>
        <mxCell id="5YERZEK7RzYkh-wPf8vQ-221" style="edgeStyle=orthogonalEdgeStyle;rounded=0;orthogonalLoop=1;jettySize=auto;html=1;exitX=0.5;exitY=1;exitDx=0;exitDy=0;fontFamily=Times New Roman;fontSize=18;strokeWidth=1.5;" edge="1" source="5YERZEK7RzYkh-wPf8vQ-222" target="5YERZEK7RzYkh-wPf8vQ-224" parent="1">
          <mxGeometry relative="1" as="geometry" />
        </mxCell>
        <mxCell id="5YERZEK7RzYkh-wPf8vQ-222" value="&lt;font face=&quot;Times New Roman&quot; style=&quot;font-size: 20px&quot;&gt;InstanceNorm&lt;/font&gt;" style="rounded=1;whiteSpace=wrap;html=1;fillColor=#dae8fc;strokeColor=#6c8ebf;strokeWidth=1.5;" vertex="1" parent="1">
          <mxGeometry x="342" y="2050" width="130" height="40" as="geometry" />
        </mxCell>
        <mxCell id="5YERZEK7RzYkh-wPf8vQ-223" style="edgeStyle=orthogonalEdgeStyle;rounded=0;orthogonalLoop=1;jettySize=auto;html=1;exitX=0.5;exitY=1;exitDx=0;exitDy=0;entryX=0;entryY=0.5;entryDx=0;entryDy=0;fontSize=20;strokeWidth=1.5;" edge="1" source="5YERZEK7RzYkh-wPf8vQ-224" target="5YERZEK7RzYkh-wPf8vQ-238" parent="1">
          <mxGeometry relative="1" as="geometry" />
        </mxCell>
        <mxCell id="5YERZEK7RzYkh-wPf8vQ-224" value="&lt;span style=&quot;font-family: &amp;#34;times new roman&amp;#34;&quot;&gt;&lt;font style=&quot;font-size: 24px&quot;&gt;ReLu&lt;/font&gt;&lt;/span&gt;" style="rounded=1;whiteSpace=wrap;html=1;fillColor=#d5e8d4;strokeColor=#82b366;strokeWidth=1.5;" vertex="1" parent="1">
          <mxGeometry x="342" y="2116" width="130" height="40" as="geometry" />
        </mxCell>
        <mxCell id="5YERZEK7RzYkh-wPf8vQ-225" style="edgeStyle=orthogonalEdgeStyle;rounded=0;orthogonalLoop=1;jettySize=auto;html=1;exitX=0.5;exitY=1;exitDx=0;exitDy=0;fontFamily=Times New Roman;fontSize=18;strokeWidth=1.5;" edge="1" source="5YERZEK7RzYkh-wPf8vQ-226" target="5YERZEK7RzYkh-wPf8vQ-228" parent="1">
          <mxGeometry relative="1" as="geometry" />
        </mxCell>
        <mxCell id="5YERZEK7RzYkh-wPf8vQ-226" value="&lt;font face=&quot;Times New Roman&quot; style=&quot;font-size: 24px&quot;&gt;3×3 Conv&lt;/font&gt;" style="rounded=1;whiteSpace=wrap;html=1;fillColor=#fff2cc;strokeColor=#d6b656;strokeWidth=1.5;" vertex="1" parent="1">
          <mxGeometry x="511" y="1896" width="130" height="40" as="geometry" />
        </mxCell>
        <mxCell id="5YERZEK7RzYkh-wPf8vQ-227" style="edgeStyle=orthogonalEdgeStyle;rounded=0;orthogonalLoop=1;jettySize=auto;html=1;exitX=0.5;exitY=1;exitDx=0;exitDy=0;fontFamily=Times New Roman;fontSize=18;strokeWidth=1.5;" edge="1" source="5YERZEK7RzYkh-wPf8vQ-228" target="5YERZEK7RzYkh-wPf8vQ-230" parent="1">
          <mxGeometry relative="1" as="geometry" />
        </mxCell>
        <mxCell id="5YERZEK7RzYkh-wPf8vQ-228" value="&lt;font face=&quot;Times New Roman&quot; style=&quot;font-size: 20px&quot;&gt;InstanceNorm&lt;/font&gt;" style="rounded=1;whiteSpace=wrap;html=1;fillColor=#dae8fc;strokeColor=#6c8ebf;strokeWidth=1.5;" vertex="1" parent="1">
          <mxGeometry x="511" y="1962" width="130" height="40" as="geometry" />
        </mxCell>
        <mxCell id="5YERZEK7RzYkh-wPf8vQ-229" style="edgeStyle=orthogonalEdgeStyle;rounded=0;orthogonalLoop=1;jettySize=auto;html=1;exitX=0.5;exitY=1;exitDx=0;exitDy=0;fontFamily=Times New Roman;fontSize=18;strokeWidth=1.5;" edge="1" source="5YERZEK7RzYkh-wPf8vQ-230" target="5YERZEK7RzYkh-wPf8vQ-232" parent="1">
          <mxGeometry relative="1" as="geometry" />
        </mxCell>
        <mxCell id="5YERZEK7RzYkh-wPf8vQ-230" value="&lt;font face=&quot;Times New Roman&quot; style=&quot;font-size: 24px&quot;&gt;ReLu&lt;/font&gt;" style="rounded=1;whiteSpace=wrap;html=1;fillColor=#d5e8d4;strokeColor=#82b366;strokeWidth=1.5;" vertex="1" parent="1">
          <mxGeometry x="511" y="2028" width="130" height="40" as="geometry" />
        </mxCell>
        <mxCell id="5YERZEK7RzYkh-wPf8vQ-231" style="edgeStyle=orthogonalEdgeStyle;rounded=0;orthogonalLoop=1;jettySize=auto;html=1;exitX=0.5;exitY=1;exitDx=0;exitDy=0;entryX=0.5;entryY=0;entryDx=0;entryDy=0;fontFamily=Times New Roman;fontSize=18;strokeWidth=1.5;" edge="1" source="5YERZEK7RzYkh-wPf8vQ-232" target="5YERZEK7RzYkh-wPf8vQ-234" parent="1">
          <mxGeometry relative="1" as="geometry" />
        </mxCell>
        <mxCell id="5YERZEK7RzYkh-wPf8vQ-232" value="&lt;font style=&quot;font-size: 24px&quot;&gt;&lt;span style=&quot;font-family: &amp;#34;times new roman&amp;#34;&quot;&gt;1×&lt;/span&gt;&lt;span style=&quot;font-family: &amp;#34;times new roman&amp;#34;&quot;&gt;1&lt;/span&gt;&lt;font face=&quot;Times New Roman&quot;&gt;&amp;nbsp;Conv&lt;/font&gt;&lt;/font&gt;" style="rounded=1;whiteSpace=wrap;html=1;fillColor=#fff2cc;strokeColor=#d6b656;strokeWidth=1.5;" vertex="1" parent="1">
          <mxGeometry x="511" y="2094" width="130" height="40" as="geometry" />
        </mxCell>
        <mxCell id="5YERZEK7RzYkh-wPf8vQ-233" value="" style="edgeStyle=orthogonalEdgeStyle;rounded=0;orthogonalLoop=1;jettySize=auto;html=1;fontFamily=Times New Roman;fontSize=18;strokeWidth=1.5;" edge="1" source="5YERZEK7RzYkh-wPf8vQ-234" target="5YERZEK7RzYkh-wPf8vQ-236" parent="1">
          <mxGeometry relative="1" as="geometry" />
        </mxCell>
        <mxCell id="5YERZEK7RzYkh-wPf8vQ-234" value="&lt;font face=&quot;Times New Roman&quot; style=&quot;font-size: 20px&quot;&gt;InstanceNorm&lt;/font&gt;" style="rounded=1;whiteSpace=wrap;html=1;fillColor=#dae8fc;strokeColor=#6c8ebf;strokeWidth=1.5;" vertex="1" parent="1">
          <mxGeometry x="511" y="2160" width="130" height="40" as="geometry" />
        </mxCell>
        <mxCell id="5YERZEK7RzYkh-wPf8vQ-235" style="edgeStyle=orthogonalEdgeStyle;rounded=0;orthogonalLoop=1;jettySize=auto;html=1;exitX=0.5;exitY=1;exitDx=0;exitDy=0;entryX=0.5;entryY=0;entryDx=0;entryDy=0;fontSize=20;strokeWidth=1.5;" edge="1" source="5YERZEK7RzYkh-wPf8vQ-236" target="5YERZEK7RzYkh-wPf8vQ-238" parent="1">
          <mxGeometry relative="1" as="geometry" />
        </mxCell>
        <mxCell id="5YERZEK7RzYkh-wPf8vQ-236" value="&lt;span style=&quot;font-family: &amp;#34;times new roman&amp;#34;&quot;&gt;&lt;font style=&quot;font-size: 24px&quot;&gt;ReLu&lt;/font&gt;&lt;/span&gt;" style="rounded=1;whiteSpace=wrap;html=1;fillColor=#d5e8d4;strokeColor=#82b366;strokeWidth=1.5;" vertex="1" parent="1">
          <mxGeometry x="511" y="2226" width="130" height="40" as="geometry" />
        </mxCell>
        <mxCell id="5YERZEK7RzYkh-wPf8vQ-237" style="edgeStyle=orthogonalEdgeStyle;rounded=0;orthogonalLoop=1;jettySize=auto;html=1;exitX=0.5;exitY=1;exitDx=0;exitDy=0;entryX=1;entryY=0.5;entryDx=0;entryDy=0;fontFamily=Times New Roman;fontSize=20;strokeWidth=1.5;" edge="1" source="5YERZEK7RzYkh-wPf8vQ-238" target="5YERZEK7RzYkh-wPf8vQ-259" parent="1">
          <mxGeometry relative="1" as="geometry" />
        </mxCell>
        <mxCell id="5YERZEK7RzYkh-wPf8vQ-238" value="" style="shape=sumEllipse;perimeter=ellipsePerimeter;whiteSpace=wrap;html=1;backgroundOutline=1;fontFamily=Times New Roman;fontSize=18;strokeWidth=1.5;" vertex="1" parent="1">
          <mxGeometry x="563" y="2366" width="25" height="25" as="geometry" />
        </mxCell>
        <mxCell id="5YERZEK7RzYkh-wPf8vQ-239" style="edgeStyle=orthogonalEdgeStyle;rounded=0;orthogonalLoop=1;jettySize=auto;html=1;exitX=0.5;exitY=1;exitDx=0;exitDy=0;fontFamily=Times New Roman;fontSize=18;strokeWidth=1.5;" edge="1" source="5YERZEK7RzYkh-wPf8vQ-240" target="5YERZEK7RzYkh-wPf8vQ-242" parent="1">
          <mxGeometry relative="1" as="geometry" />
        </mxCell>
        <mxCell id="5YERZEK7RzYkh-wPf8vQ-240" value="&lt;font face=&quot;Times New Roman&quot; style=&quot;font-size: 24px&quot;&gt;3×3 Conv&lt;/font&gt;" style="rounded=1;whiteSpace=wrap;html=1;fillColor=#fff2cc;strokeColor=#d6b656;strokeWidth=1.5;" vertex="1" parent="1">
          <mxGeometry x="683" y="2008" width="130" height="40" as="geometry" />
        </mxCell>
        <mxCell id="5YERZEK7RzYkh-wPf8vQ-241" style="edgeStyle=orthogonalEdgeStyle;rounded=0;orthogonalLoop=1;jettySize=auto;html=1;exitX=0.5;exitY=1;exitDx=0;exitDy=0;fontFamily=Times New Roman;fontSize=18;strokeWidth=1.5;" edge="1" source="5YERZEK7RzYkh-wPf8vQ-242" target="5YERZEK7RzYkh-wPf8vQ-244" parent="1">
          <mxGeometry relative="1" as="geometry" />
        </mxCell>
        <mxCell id="5YERZEK7RzYkh-wPf8vQ-242" value="&lt;font face=&quot;Times New Roman&quot; style=&quot;font-size: 20px&quot;&gt;InstanceNorm&lt;/font&gt;" style="rounded=1;whiteSpace=wrap;html=1;fillColor=#dae8fc;strokeColor=#6c8ebf;strokeWidth=1.5;" vertex="1" parent="1">
          <mxGeometry x="683" y="2072" width="130" height="40" as="geometry" />
        </mxCell>
        <mxCell id="5YERZEK7RzYkh-wPf8vQ-243" style="edgeStyle=orthogonalEdgeStyle;rounded=0;orthogonalLoop=1;jettySize=auto;html=1;exitX=0.5;exitY=1;exitDx=0;exitDy=0;fontFamily=Times New Roman;fontSize=18;strokeWidth=1.5;" edge="1" source="5YERZEK7RzYkh-wPf8vQ-244" target="5YERZEK7RzYkh-wPf8vQ-246" parent="1">
          <mxGeometry relative="1" as="geometry" />
        </mxCell>
        <mxCell id="5YERZEK7RzYkh-wPf8vQ-244" value="&lt;font face=&quot;Times New Roman&quot; style=&quot;font-size: 24px&quot;&gt;ReLu&lt;/font&gt;" style="rounded=1;whiteSpace=wrap;html=1;fillColor=#d5e8d4;strokeColor=#82b366;strokeWidth=1.5;" vertex="1" parent="1">
          <mxGeometry x="683" y="2135" width="130" height="40" as="geometry" />
        </mxCell>
        <mxCell id="5YERZEK7RzYkh-wPf8vQ-245" style="edgeStyle=orthogonalEdgeStyle;rounded=0;orthogonalLoop=1;jettySize=auto;html=1;exitX=0.5;exitY=1;exitDx=0;exitDy=0;entryX=0.5;entryY=0;entryDx=0;entryDy=0;fontFamily=Times New Roman;fontSize=18;strokeWidth=1.5;" edge="1" source="5YERZEK7RzYkh-wPf8vQ-246" target="5YERZEK7RzYkh-wPf8vQ-248" parent="1">
          <mxGeometry relative="1" as="geometry" />
        </mxCell>
        <mxCell id="5YERZEK7RzYkh-wPf8vQ-246" value="&lt;font style=&quot;font-size: 24px&quot;&gt;&lt;span style=&quot;font-family: &amp;#34;times new roman&amp;#34;&quot;&gt;1×&lt;/span&gt;&lt;span style=&quot;font-family: &amp;#34;times new roman&amp;#34;&quot;&gt;1&lt;/span&gt;&lt;font face=&quot;Times New Roman&quot;&gt;&amp;nbsp;Conv&lt;/font&gt;&lt;/font&gt;" style="rounded=1;whiteSpace=wrap;html=1;fillColor=#fff2cc;strokeColor=#d6b656;strokeWidth=1.5;" vertex="1" parent="1">
          <mxGeometry x="683" y="2198" width="130" height="40" as="geometry" />
        </mxCell>
        <mxCell id="5YERZEK7RzYkh-wPf8vQ-247" value="" style="edgeStyle=orthogonalEdgeStyle;rounded=0;orthogonalLoop=1;jettySize=auto;html=1;fontFamily=Times New Roman;fontSize=18;strokeWidth=1.5;" edge="1" source="5YERZEK7RzYkh-wPf8vQ-248" target="5YERZEK7RzYkh-wPf8vQ-250" parent="1">
          <mxGeometry relative="1" as="geometry" />
        </mxCell>
        <mxCell id="5YERZEK7RzYkh-wPf8vQ-248" value="&lt;font face=&quot;Times New Roman&quot; style=&quot;font-size: 20px&quot;&gt;InstanceNorm&lt;/font&gt;" style="rounded=1;whiteSpace=wrap;html=1;fillColor=#dae8fc;strokeColor=#6c8ebf;strokeWidth=1.5;" vertex="1" parent="1">
          <mxGeometry x="683" y="2262" width="130" height="40" as="geometry" />
        </mxCell>
        <mxCell id="5YERZEK7RzYkh-wPf8vQ-249" style="edgeStyle=orthogonalEdgeStyle;rounded=0;orthogonalLoop=1;jettySize=auto;html=1;exitX=0.5;exitY=1;exitDx=0;exitDy=0;entryX=1;entryY=0.5;entryDx=0;entryDy=0;fontSize=20;strokeWidth=1.5;" edge="1" source="5YERZEK7RzYkh-wPf8vQ-250" target="5YERZEK7RzYkh-wPf8vQ-238" parent="1">
          <mxGeometry relative="1" as="geometry">
            <Array as="points">
              <mxPoint x="748" y="2379" />
              <mxPoint x="635" y="2379" />
            </Array>
          </mxGeometry>
        </mxCell>
        <mxCell id="5YERZEK7RzYkh-wPf8vQ-250" value="&lt;span style=&quot;font-family: &amp;#34;times new roman&amp;#34;&quot;&gt;&lt;font style=&quot;font-size: 24px&quot;&gt;ReLu&lt;/font&gt;&lt;/span&gt;" style="rounded=1;whiteSpace=wrap;html=1;fillColor=#d5e8d4;strokeColor=#82b366;strokeWidth=1.5;" vertex="1" parent="1">
          <mxGeometry x="683" y="2325" width="130" height="40" as="geometry" />
        </mxCell>
        <mxCell id="5YERZEK7RzYkh-wPf8vQ-251" style="edgeStyle=orthogonalEdgeStyle;rounded=0;orthogonalLoop=1;jettySize=auto;html=1;exitX=0.5;exitY=1;exitDx=0;exitDy=0;entryX=0.5;entryY=0;entryDx=0;entryDy=0;fontFamily=Times New Roman;fontSize=18;strokeWidth=1.5;" edge="1" source="5YERZEK7RzYkh-wPf8vQ-252" target="5YERZEK7RzYkh-wPf8vQ-254" parent="1">
          <mxGeometry relative="1" as="geometry" />
        </mxCell>
        <mxCell id="5YERZEK7RzYkh-wPf8vQ-252" value="&lt;font style=&quot;font-size: 24px&quot;&gt;&lt;span style=&quot;font-family: &amp;#34;times new roman&amp;#34;&quot;&gt;1×&lt;/span&gt;&lt;span style=&quot;font-family: &amp;#34;times new roman&amp;#34;&quot;&gt;1&lt;/span&gt;&lt;font face=&quot;Times New Roman&quot;&gt;&amp;nbsp;Conv&lt;/font&gt;&lt;/font&gt;" style="rounded=1;whiteSpace=wrap;html=1;fillColor=#fff2cc;strokeColor=#d6b656;strokeWidth=1.5;" vertex="1" parent="1">
          <mxGeometry x="683" y="1818" width="130" height="40" as="geometry" />
        </mxCell>
        <mxCell id="5YERZEK7RzYkh-wPf8vQ-253" value="" style="edgeStyle=orthogonalEdgeStyle;rounded=0;orthogonalLoop=1;jettySize=auto;html=1;fontFamily=Times New Roman;fontSize=18;strokeWidth=1.5;" edge="1" source="5YERZEK7RzYkh-wPf8vQ-254" target="5YERZEK7RzYkh-wPf8vQ-256" parent="1">
          <mxGeometry relative="1" as="geometry" />
        </mxCell>
        <mxCell id="5YERZEK7RzYkh-wPf8vQ-254" value="&lt;font face=&quot;Times New Roman&quot; style=&quot;font-size: 20px&quot;&gt;InstanceNorm&lt;/font&gt;" style="rounded=1;whiteSpace=wrap;html=1;fillColor=#dae8fc;strokeColor=#6c8ebf;strokeWidth=1.5;" vertex="1" parent="1">
          <mxGeometry x="683" y="1881" width="130" height="40" as="geometry" />
        </mxCell>
        <mxCell id="5YERZEK7RzYkh-wPf8vQ-255" style="edgeStyle=orthogonalEdgeStyle;rounded=0;orthogonalLoop=1;jettySize=auto;html=1;exitX=0.5;exitY=1;exitDx=0;exitDy=0;entryX=0.5;entryY=0;entryDx=0;entryDy=0;fontFamily=Times New Roman;fontSize=18;strokeWidth=1.5;" edge="1" source="5YERZEK7RzYkh-wPf8vQ-256" target="5YERZEK7RzYkh-wPf8vQ-240" parent="1">
          <mxGeometry relative="1" as="geometry" />
        </mxCell>
        <mxCell id="5YERZEK7RzYkh-wPf8vQ-256" value="&lt;span style=&quot;font-family: &amp;#34;times new roman&amp;#34;&quot;&gt;&lt;font style=&quot;font-size: 24px&quot;&gt;ReLu&lt;/font&gt;&lt;/span&gt;" style="rounded=1;whiteSpace=wrap;html=1;fillColor=#d5e8d4;strokeColor=#82b366;strokeWidth=1.5;" vertex="1" parent="1">
          <mxGeometry x="683" y="1945" width="130" height="40" as="geometry" />
        </mxCell>
        <mxCell id="5YERZEK7RzYkh-wPf8vQ-257" style="edgeStyle=orthogonalEdgeStyle;rounded=0;orthogonalLoop=1;jettySize=auto;html=1;fontFamily=Times New Roman;fontSize=18;strokeWidth=1.5;entryX=0.5;entryY=0;entryDx=0;entryDy=0;" edge="1" target="5YERZEK7RzYkh-wPf8vQ-206" parent="1">
          <mxGeometry relative="1" as="geometry">
            <mxPoint x="403" y="1774" as="sourcePoint" />
            <mxPoint x="135" y="1886" as="targetPoint" />
            <Array as="points">
              <mxPoint x="135" y="1774" />
            </Array>
          </mxGeometry>
        </mxCell>
        <mxCell id="5YERZEK7RzYkh-wPf8vQ-258" style="edgeStyle=orthogonalEdgeStyle;rounded=0;orthogonalLoop=1;jettySize=auto;html=1;exitX=0.5;exitY=1;exitDx=0;exitDy=0;strokeWidth=2;" edge="1" source="5YERZEK7RzYkh-wPf8vQ-259" target="5YERZEK7RzYkh-wPf8vQ-261" parent="1">
          <mxGeometry relative="1" as="geometry" />
        </mxCell>
        <mxCell id="5YERZEK7RzYkh-wPf8vQ-259" value="" style="shape=orEllipse;perimeter=ellipsePerimeter;whiteSpace=wrap;html=1;backgroundOutline=1;fontFamily=Times New Roman;fontSize=18;strokeWidth=1.5;" vertex="1" parent="1">
          <mxGeometry x="343" y="2407" width="25" height="25" as="geometry" />
        </mxCell>
        <mxCell id="5YERZEK7RzYkh-wPf8vQ-260" style="edgeStyle=orthogonalEdgeStyle;rounded=0;orthogonalLoop=1;jettySize=auto;html=1;strokeWidth=2;" edge="1" source="5YERZEK7RzYkh-wPf8vQ-261" parent="1">
          <mxGeometry relative="1" as="geometry">
            <mxPoint x="355.5" y="2547.0000000000005" as="targetPoint" />
          </mxGeometry>
        </mxCell>
        <mxCell id="5YERZEK7RzYkh-wPf8vQ-261" value="&lt;font face=&quot;Times New Roman&quot; style=&quot;font-size: 24px&quot;&gt;LeakyReLu&lt;/font&gt;" style="rounded=1;whiteSpace=wrap;html=1;fillColor=#d5e8d4;strokeColor=#82b366;strokeWidth=1.5;" vertex="1" parent="1">
          <mxGeometry x="290.5" y="2467" width="130" height="40" as="geometry" />
        </mxCell>
        <mxCell id="5YERZEK7RzYkh-wPf8vQ-262" style="edgeStyle=orthogonalEdgeStyle;rounded=0;orthogonalLoop=1;jettySize=auto;html=1;fontFamily=Times New Roman;fontSize=18;strokeWidth=1.5;entryX=0.5;entryY=0;entryDx=0;entryDy=0;" edge="1" target="5YERZEK7RzYkh-wPf8vQ-252" parent="1">
          <mxGeometry relative="1" as="geometry">
            <mxPoint x="575.0000000000005" y="1791.9999999999995" as="sourcePoint" />
            <mxPoint x="748" y="1816" as="targetPoint" />
            <Array as="points">
              <mxPoint x="575" y="1796" />
              <mxPoint x="748" y="1796" />
            </Array>
          </mxGeometry>
        </mxCell>
        <mxCell id="5YERZEK7RzYkh-wPf8vQ-263" style="edgeStyle=orthogonalEdgeStyle;rounded=0;orthogonalLoop=1;jettySize=auto;html=1;fontFamily=Times New Roman;fontSize=18;strokeWidth=1.5;" edge="1" target="5YERZEK7RzYkh-wPf8vQ-220" parent="1">
          <mxGeometry relative="1" as="geometry">
            <mxPoint x="583" y="1796" as="sourcePoint" />
            <mxPoint x="403" y="1976" as="targetPoint" />
          </mxGeometry>
        </mxCell>
        <mxCell id="5YERZEK7RzYkh-wPf8vQ-264" style="edgeStyle=orthogonalEdgeStyle;rounded=0;orthogonalLoop=1;jettySize=auto;html=1;fontFamily=Times New Roman;fontSize=18;strokeWidth=1.5;entryX=1;entryY=0.5;entryDx=0;entryDy=0;" edge="1" target="5YERZEK7RzYkh-wPf8vQ-218" parent="1">
          <mxGeometry relative="1" as="geometry">
            <mxPoint x="134.99999999999955" y="1779" as="sourcePoint" />
            <mxPoint x="153" y="2349" as="targetPoint" />
            <Array as="points">
              <mxPoint x="135" y="1846" />
              <mxPoint x="253" y="1846" />
              <mxPoint x="253" y="2350" />
            </Array>
          </mxGeometry>
        </mxCell>
        <mxCell id="5YERZEK7RzYkh-wPf8vQ-265" style="edgeStyle=orthogonalEdgeStyle;rounded=0;orthogonalLoop=1;jettySize=auto;html=1;fontFamily=Times New Roman;fontSize=18;strokeWidth=1.5;" edge="1" target="5YERZEK7RzYkh-wPf8vQ-226" parent="1">
          <mxGeometry relative="1" as="geometry">
            <mxPoint x="403" y="1774" as="sourcePoint" />
            <mxPoint x="575" y="1896" as="targetPoint" />
            <Array as="points">
              <mxPoint x="575" y="1774" />
            </Array>
          </mxGeometry>
        </mxCell>
        <mxCell id="5YERZEK7RzYkh-wPf8vQ-266" value="" style="rounded=0.8;whiteSpace=wrap;html=1;fontSize=24;dashed=1;gradientColor=#ffffff;fillColor=none;strokeColor=#97D077;strokeWidth=3;" vertex="1" parent="1">
          <mxGeometry x="314" y="1787" width="530" height="612" as="geometry" />
        </mxCell>
        <mxCell id="5YERZEK7RzYkh-wPf8vQ-267" value="" style="rounded=0.8;whiteSpace=wrap;html=1;fontSize=24;dashed=1;gradientColor=#ffffff;fillColor=none;strokeColor=#A9C4EB;strokeWidth=3;" vertex="1" parent="1">
          <mxGeometry x="31" y="1787" width="257.5" height="612" as="geometry" />
        </mxCell>
        <mxCell id="5YERZEK7RzYkh-wPf8vQ-268" value="&lt;font face=&quot;Times New Roman&quot;&gt;Part A&lt;/font&gt;" style="whiteSpace=wrap;html=1;rounded=1;dashed=1;fontSize=24;strokeColor=none;strokeWidth=3;fillColor=none;gradientColor=#ffffff;" vertex="1" parent="1">
          <mxGeometry x="19" y="1799" width="120" height="60" as="geometry" />
        </mxCell>
        <mxCell id="5YERZEK7RzYkh-wPf8vQ-269" value="&lt;font face=&quot;Times New Roman&quot;&gt;Part B&lt;/font&gt;" style="whiteSpace=wrap;html=1;rounded=1;dashed=1;fontSize=24;strokeColor=none;strokeWidth=3;fillColor=none;gradientColor=#ffffff;" vertex="1" parent="1">
          <mxGeometry x="301" y="1799" width="120" height="60" as="geometry" />
        </mxCell>
        <mxCell id="5YERZEK7RzYkh-wPf8vQ-272" style="edgeStyle=orthogonalEdgeStyle;rounded=0;orthogonalLoop=1;jettySize=auto;html=1;exitX=0.5;exitY=1;exitDx=0;exitDy=0;fontFamily=Times New Roman;fontSize=18;strokeWidth=1.5;" edge="1" parent="1" source="5YERZEK7RzYkh-wPf8vQ-273" target="5YERZEK7RzYkh-wPf8vQ-275">
          <mxGeometry relative="1" as="geometry" />
        </mxCell>
        <mxCell id="5YERZEK7RzYkh-wPf8vQ-273" value="&lt;font face=&quot;Times New Roman&quot; style=&quot;font-size: 24px&quot;&gt;3×3 Conv&lt;/font&gt;" style="rounded=1;whiteSpace=wrap;html=1;fillColor=#fff2cc;strokeColor=#d6b656;strokeWidth=1.5;" vertex="1" parent="1">
          <mxGeometry x="82" y="2664" width="130" height="40" as="geometry" />
        </mxCell>
        <mxCell id="5YERZEK7RzYkh-wPf8vQ-274" style="edgeStyle=orthogonalEdgeStyle;rounded=0;orthogonalLoop=1;jettySize=auto;html=1;exitX=0.5;exitY=1;exitDx=0;exitDy=0;fontFamily=Times New Roman;fontSize=18;strokeWidth=1.5;" edge="1" parent="1" source="5YERZEK7RzYkh-wPf8vQ-275" target="5YERZEK7RzYkh-wPf8vQ-277">
          <mxGeometry relative="1" as="geometry" />
        </mxCell>
        <mxCell id="5YERZEK7RzYkh-wPf8vQ-275" value="&lt;font face=&quot;Times New Roman&quot; style=&quot;font-size: 20px&quot;&gt;InstanceNorm&lt;/font&gt;" style="rounded=1;whiteSpace=wrap;html=1;fillColor=#dae8fc;strokeColor=#6c8ebf;strokeWidth=1.5;" vertex="1" parent="1">
          <mxGeometry x="82" y="2738" width="130" height="40" as="geometry" />
        </mxCell>
        <mxCell id="5YERZEK7RzYkh-wPf8vQ-276" style="edgeStyle=orthogonalEdgeStyle;rounded=0;orthogonalLoop=1;jettySize=auto;html=1;exitX=0.5;exitY=1;exitDx=0;exitDy=0;entryX=0.5;entryY=0;entryDx=0;entryDy=0;fontFamily=Times New Roman;fontSize=18;strokeWidth=1.5;" edge="1" parent="1" source="5YERZEK7RzYkh-wPf8vQ-277" target="5YERZEK7RzYkh-wPf8vQ-279">
          <mxGeometry relative="1" as="geometry" />
        </mxCell>
        <mxCell id="5YERZEK7RzYkh-wPf8vQ-277" value="&lt;font face=&quot;Times New Roman&quot; style=&quot;font-size: 24px&quot;&gt;LeakyReLu&lt;/font&gt;" style="rounded=1;whiteSpace=wrap;html=1;fillColor=#d5e8d4;strokeColor=#82b366;strokeWidth=1.5;" vertex="1" parent="1">
          <mxGeometry x="82" y="2812" width="130" height="40" as="geometry" />
        </mxCell>
        <mxCell id="5YERZEK7RzYkh-wPf8vQ-278" style="edgeStyle=orthogonalEdgeStyle;rounded=0;orthogonalLoop=1;jettySize=auto;html=1;exitX=0.5;exitY=1;exitDx=0;exitDy=0;fontFamily=Times New Roman;fontSize=18;strokeWidth=1.5;" edge="1" parent="1" source="5YERZEK7RzYkh-wPf8vQ-279" target="5YERZEK7RzYkh-wPf8vQ-281">
          <mxGeometry relative="1" as="geometry" />
        </mxCell>
        <mxCell id="5YERZEK7RzYkh-wPf8vQ-279" value="&lt;font style=&quot;font-size: 24px&quot; face=&quot;Times New Roman&quot;&gt;1×1&amp;nbsp;Conv&lt;/font&gt;" style="rounded=1;whiteSpace=wrap;html=1;fillColor=#fff2cc;strokeColor=#d6b656;strokeWidth=1.5;" vertex="1" parent="1">
          <mxGeometry x="82" y="2885" width="130" height="40" as="geometry" />
        </mxCell>
        <mxCell id="5YERZEK7RzYkh-wPf8vQ-280" style="edgeStyle=orthogonalEdgeStyle;rounded=0;orthogonalLoop=1;jettySize=auto;html=1;exitX=0.5;exitY=1;exitDx=0;exitDy=0;fontFamily=Times New Roman;fontSize=18;strokeWidth=1.5;" edge="1" parent="1" source="5YERZEK7RzYkh-wPf8vQ-281" target="5YERZEK7RzYkh-wPf8vQ-283">
          <mxGeometry relative="1" as="geometry" />
        </mxCell>
        <mxCell id="5YERZEK7RzYkh-wPf8vQ-281" value="&lt;font face=&quot;Times New Roman&quot; style=&quot;font-size: 20px&quot;&gt;InstanceNorm&lt;/font&gt;" style="rounded=1;whiteSpace=wrap;html=1;fillColor=#dae8fc;strokeColor=#6c8ebf;strokeWidth=1.5;" vertex="1" parent="1">
          <mxGeometry x="82" y="2959" width="130" height="40" as="geometry" />
        </mxCell>
        <mxCell id="5YERZEK7RzYkh-wPf8vQ-282" style="edgeStyle=orthogonalEdgeStyle;rounded=0;orthogonalLoop=1;jettySize=auto;html=1;exitX=0.5;exitY=1;exitDx=0;exitDy=0;entryX=0.5;entryY=0;entryDx=0;entryDy=0;fontSize=20;strokeWidth=1.5;" edge="1" parent="1" source="5YERZEK7RzYkh-wPf8vQ-283" target="5YERZEK7RzYkh-wPf8vQ-285">
          <mxGeometry relative="1" as="geometry" />
        </mxCell>
        <mxCell id="5YERZEK7RzYkh-wPf8vQ-283" value="&lt;font face=&quot;Times New Roman&quot; style=&quot;font-size: 24px&quot;&gt;LeakyReLu&lt;/font&gt;" style="rounded=1;whiteSpace=wrap;html=1;fillColor=#d5e8d4;strokeColor=#82b366;strokeWidth=1.5;" vertex="1" parent="1">
          <mxGeometry x="82" y="3033" width="130" height="40" as="geometry" />
        </mxCell>
        <mxCell id="5YERZEK7RzYkh-wPf8vQ-284" style="edgeStyle=orthogonalEdgeStyle;rounded=0;orthogonalLoop=1;jettySize=auto;html=1;exitX=0.5;exitY=1;exitDx=0;exitDy=0;entryX=0;entryY=0.5;entryDx=0;entryDy=0;fontFamily=Times New Roman;fontSize=20;strokeWidth=1.5;" edge="1" parent="1" source="5YERZEK7RzYkh-wPf8vQ-285" target="5YERZEK7RzYkh-wPf8vQ-326">
          <mxGeometry relative="1" as="geometry" />
        </mxCell>
        <mxCell id="5YERZEK7RzYkh-wPf8vQ-285" value="" style="shape=orEllipse;perimeter=ellipsePerimeter;whiteSpace=wrap;html=1;backgroundOutline=1;fontFamily=Times New Roman;fontSize=18;strokeWidth=1.5;" vertex="1" parent="1">
          <mxGeometry x="134" y="3113" width="25" height="25" as="geometry" />
        </mxCell>
        <mxCell id="5YERZEK7RzYkh-wPf8vQ-286" style="edgeStyle=orthogonalEdgeStyle;rounded=0;orthogonalLoop=1;jettySize=auto;html=1;exitX=0.5;exitY=1;exitDx=0;exitDy=0;fontFamily=Times New Roman;fontSize=18;strokeWidth=1.5;" edge="1" parent="1" source="5YERZEK7RzYkh-wPf8vQ-287" target="5YERZEK7RzYkh-wPf8vQ-289">
          <mxGeometry relative="1" as="geometry" />
        </mxCell>
        <mxCell id="5YERZEK7RzYkh-wPf8vQ-287" value="&lt;font face=&quot;Times New Roman&quot; style=&quot;font-size: 24px&quot;&gt;3×3 Conv&lt;/font&gt;" style="rounded=1;whiteSpace=wrap;html=1;fillColor=#fff2cc;strokeColor=#d6b656;strokeWidth=1.5;" vertex="1" parent="1">
          <mxGeometry x="354" y="2757" width="130" height="40" as="geometry" />
        </mxCell>
        <mxCell id="5YERZEK7RzYkh-wPf8vQ-288" style="edgeStyle=orthogonalEdgeStyle;rounded=0;orthogonalLoop=1;jettySize=auto;html=1;exitX=0.5;exitY=1;exitDx=0;exitDy=0;fontFamily=Times New Roman;fontSize=18;strokeWidth=1.5;" edge="1" parent="1" source="5YERZEK7RzYkh-wPf8vQ-289" target="5YERZEK7RzYkh-wPf8vQ-291">
          <mxGeometry relative="1" as="geometry" />
        </mxCell>
        <mxCell id="5YERZEK7RzYkh-wPf8vQ-289" value="&lt;font face=&quot;Times New Roman&quot; style=&quot;font-size: 20px&quot;&gt;InstanceNorm&lt;/font&gt;" style="rounded=1;whiteSpace=wrap;html=1;fillColor=#dae8fc;strokeColor=#6c8ebf;strokeWidth=1.5;" vertex="1" parent="1">
          <mxGeometry x="354" y="2826" width="130" height="40" as="geometry" />
        </mxCell>
        <mxCell id="5YERZEK7RzYkh-wPf8vQ-290" style="edgeStyle=orthogonalEdgeStyle;rounded=0;orthogonalLoop=1;jettySize=auto;html=1;exitX=0.5;exitY=1;exitDx=0;exitDy=0;entryX=0;entryY=0.5;entryDx=0;entryDy=0;fontSize=20;strokeWidth=1.5;" edge="1" parent="1" source="5YERZEK7RzYkh-wPf8vQ-291" target="5YERZEK7RzYkh-wPf8vQ-305">
          <mxGeometry relative="1" as="geometry" />
        </mxCell>
        <mxCell id="5YERZEK7RzYkh-wPf8vQ-291" value="&lt;span style=&quot;font-family: &amp;#34;times new roman&amp;#34;&quot;&gt;&lt;font style=&quot;font-size: 24px&quot;&gt;ReLu&lt;/font&gt;&lt;/span&gt;" style="rounded=1;whiteSpace=wrap;html=1;fillColor=#d5e8d4;strokeColor=#82b366;strokeWidth=1.5;" vertex="1" parent="1">
          <mxGeometry x="354" y="2892" width="130" height="40" as="geometry" />
        </mxCell>
        <mxCell id="5YERZEK7RzYkh-wPf8vQ-292" style="edgeStyle=orthogonalEdgeStyle;rounded=0;orthogonalLoop=1;jettySize=auto;html=1;exitX=0.5;exitY=1;exitDx=0;exitDy=0;fontFamily=Times New Roman;fontSize=18;strokeWidth=1.5;" edge="1" parent="1" source="5YERZEK7RzYkh-wPf8vQ-293" target="5YERZEK7RzYkh-wPf8vQ-295">
          <mxGeometry relative="1" as="geometry" />
        </mxCell>
        <mxCell id="5YERZEK7RzYkh-wPf8vQ-293" value="&lt;font face=&quot;Times New Roman&quot; style=&quot;font-size: 24px&quot;&gt;3×3 Conv&lt;/font&gt;" style="rounded=1;whiteSpace=wrap;html=1;fillColor=#fff2cc;strokeColor=#d6b656;strokeWidth=1.5;" vertex="1" parent="1">
          <mxGeometry x="523" y="2672" width="130" height="40" as="geometry" />
        </mxCell>
        <mxCell id="5YERZEK7RzYkh-wPf8vQ-294" style="edgeStyle=orthogonalEdgeStyle;rounded=0;orthogonalLoop=1;jettySize=auto;html=1;exitX=0.5;exitY=1;exitDx=0;exitDy=0;fontFamily=Times New Roman;fontSize=18;strokeWidth=1.5;" edge="1" parent="1" source="5YERZEK7RzYkh-wPf8vQ-295" target="5YERZEK7RzYkh-wPf8vQ-297">
          <mxGeometry relative="1" as="geometry" />
        </mxCell>
        <mxCell id="5YERZEK7RzYkh-wPf8vQ-295" value="&lt;font face=&quot;Times New Roman&quot; style=&quot;font-size: 20px&quot;&gt;InstanceNorm&lt;/font&gt;" style="rounded=1;whiteSpace=wrap;html=1;fillColor=#dae8fc;strokeColor=#6c8ebf;strokeWidth=1.5;" vertex="1" parent="1">
          <mxGeometry x="523" y="2738" width="130" height="40" as="geometry" />
        </mxCell>
        <mxCell id="5YERZEK7RzYkh-wPf8vQ-296" style="edgeStyle=orthogonalEdgeStyle;rounded=0;orthogonalLoop=1;jettySize=auto;html=1;exitX=0.5;exitY=1;exitDx=0;exitDy=0;fontFamily=Times New Roman;fontSize=18;strokeWidth=1.5;" edge="1" parent="1" source="5YERZEK7RzYkh-wPf8vQ-297" target="5YERZEK7RzYkh-wPf8vQ-299">
          <mxGeometry relative="1" as="geometry" />
        </mxCell>
        <mxCell id="5YERZEK7RzYkh-wPf8vQ-297" value="&lt;font face=&quot;Times New Roman&quot; style=&quot;font-size: 24px&quot;&gt;ReLu&lt;/font&gt;" style="rounded=1;whiteSpace=wrap;html=1;fillColor=#d5e8d4;strokeColor=#82b366;strokeWidth=1.5;" vertex="1" parent="1">
          <mxGeometry x="523" y="2804" width="130" height="40" as="geometry" />
        </mxCell>
        <mxCell id="5YERZEK7RzYkh-wPf8vQ-298" style="edgeStyle=orthogonalEdgeStyle;rounded=0;orthogonalLoop=1;jettySize=auto;html=1;exitX=0.5;exitY=1;exitDx=0;exitDy=0;entryX=0.5;entryY=0;entryDx=0;entryDy=0;fontFamily=Times New Roman;fontSize=18;strokeWidth=1.5;" edge="1" parent="1" source="5YERZEK7RzYkh-wPf8vQ-299" target="5YERZEK7RzYkh-wPf8vQ-301">
          <mxGeometry relative="1" as="geometry" />
        </mxCell>
        <mxCell id="5YERZEK7RzYkh-wPf8vQ-299" value="&lt;font style=&quot;font-size: 24px&quot;&gt;&lt;span style=&quot;font-family: &amp;#34;times new roman&amp;#34;&quot;&gt;1×&lt;/span&gt;&lt;span style=&quot;font-family: &amp;#34;times new roman&amp;#34;&quot;&gt;1&lt;/span&gt;&lt;font face=&quot;Times New Roman&quot;&gt;&amp;nbsp;Conv&lt;/font&gt;&lt;/font&gt;" style="rounded=1;whiteSpace=wrap;html=1;fillColor=#fff2cc;strokeColor=#d6b656;strokeWidth=1.5;" vertex="1" parent="1">
          <mxGeometry x="523" y="2870" width="130" height="40" as="geometry" />
        </mxCell>
        <mxCell id="5YERZEK7RzYkh-wPf8vQ-300" value="" style="edgeStyle=orthogonalEdgeStyle;rounded=0;orthogonalLoop=1;jettySize=auto;html=1;fontFamily=Times New Roman;fontSize=18;strokeWidth=1.5;" edge="1" parent="1" source="5YERZEK7RzYkh-wPf8vQ-301" target="5YERZEK7RzYkh-wPf8vQ-303">
          <mxGeometry relative="1" as="geometry" />
        </mxCell>
        <mxCell id="5YERZEK7RzYkh-wPf8vQ-301" value="&lt;font face=&quot;Times New Roman&quot; style=&quot;font-size: 20px&quot;&gt;InstanceNorm&lt;/font&gt;" style="rounded=1;whiteSpace=wrap;html=1;fillColor=#dae8fc;strokeColor=#6c8ebf;strokeWidth=1.5;" vertex="1" parent="1">
          <mxGeometry x="523" y="2936" width="130" height="40" as="geometry" />
        </mxCell>
        <mxCell id="5YERZEK7RzYkh-wPf8vQ-302" style="edgeStyle=orthogonalEdgeStyle;rounded=0;orthogonalLoop=1;jettySize=auto;html=1;exitX=0.5;exitY=1;exitDx=0;exitDy=0;entryX=0.5;entryY=0;entryDx=0;entryDy=0;fontSize=20;strokeWidth=1.5;" edge="1" parent="1" source="5YERZEK7RzYkh-wPf8vQ-303" target="5YERZEK7RzYkh-wPf8vQ-305">
          <mxGeometry relative="1" as="geometry" />
        </mxCell>
        <mxCell id="5YERZEK7RzYkh-wPf8vQ-303" value="&lt;span style=&quot;font-family: &amp;#34;times new roman&amp;#34;&quot;&gt;&lt;font style=&quot;font-size: 24px&quot;&gt;ReLu&lt;/font&gt;&lt;/span&gt;" style="rounded=1;whiteSpace=wrap;html=1;fillColor=#d5e8d4;strokeColor=#82b366;strokeWidth=1.5;" vertex="1" parent="1">
          <mxGeometry x="523" y="3002" width="130" height="40" as="geometry" />
        </mxCell>
        <mxCell id="5YERZEK7RzYkh-wPf8vQ-304" style="edgeStyle=orthogonalEdgeStyle;rounded=0;orthogonalLoop=1;jettySize=auto;html=1;exitX=0.5;exitY=1;exitDx=0;exitDy=0;entryX=1;entryY=0.5;entryDx=0;entryDy=0;fontFamily=Times New Roman;fontSize=20;strokeWidth=1.5;" edge="1" parent="1" source="5YERZEK7RzYkh-wPf8vQ-305" target="5YERZEK7RzYkh-wPf8vQ-326">
          <mxGeometry relative="1" as="geometry" />
        </mxCell>
        <mxCell id="5YERZEK7RzYkh-wPf8vQ-305" value="" style="shape=sumEllipse;perimeter=ellipsePerimeter;whiteSpace=wrap;html=1;backgroundOutline=1;fontFamily=Times New Roman;fontSize=18;strokeWidth=1.5;" vertex="1" parent="1">
          <mxGeometry x="575" y="3142" width="25" height="25" as="geometry" />
        </mxCell>
        <mxCell id="5YERZEK7RzYkh-wPf8vQ-306" style="edgeStyle=orthogonalEdgeStyle;rounded=0;orthogonalLoop=1;jettySize=auto;html=1;exitX=0.5;exitY=1;exitDx=0;exitDy=0;fontFamily=Times New Roman;fontSize=18;strokeWidth=1.5;" edge="1" parent="1" source="5YERZEK7RzYkh-wPf8vQ-307" target="5YERZEK7RzYkh-wPf8vQ-309">
          <mxGeometry relative="1" as="geometry" />
        </mxCell>
        <mxCell id="5YERZEK7RzYkh-wPf8vQ-307" value="&lt;font face=&quot;Times New Roman&quot; style=&quot;font-size: 24px&quot;&gt;3×3 Conv&lt;/font&gt;" style="rounded=1;whiteSpace=wrap;html=1;fillColor=#fff2cc;strokeColor=#d6b656;strokeWidth=1.5;" vertex="1" parent="1">
          <mxGeometry x="695" y="2784" width="130" height="40" as="geometry" />
        </mxCell>
        <mxCell id="5YERZEK7RzYkh-wPf8vQ-308" style="edgeStyle=orthogonalEdgeStyle;rounded=0;orthogonalLoop=1;jettySize=auto;html=1;exitX=0.5;exitY=1;exitDx=0;exitDy=0;fontFamily=Times New Roman;fontSize=18;strokeWidth=1.5;" edge="1" parent="1" source="5YERZEK7RzYkh-wPf8vQ-309" target="5YERZEK7RzYkh-wPf8vQ-311">
          <mxGeometry relative="1" as="geometry" />
        </mxCell>
        <mxCell id="5YERZEK7RzYkh-wPf8vQ-309" value="&lt;font face=&quot;Times New Roman&quot; style=&quot;font-size: 20px&quot;&gt;InstanceNorm&lt;/font&gt;" style="rounded=1;whiteSpace=wrap;html=1;fillColor=#dae8fc;strokeColor=#6c8ebf;strokeWidth=1.5;" vertex="1" parent="1">
          <mxGeometry x="695" y="2848" width="130" height="40" as="geometry" />
        </mxCell>
        <mxCell id="5YERZEK7RzYkh-wPf8vQ-310" style="edgeStyle=orthogonalEdgeStyle;rounded=0;orthogonalLoop=1;jettySize=auto;html=1;exitX=0.5;exitY=1;exitDx=0;exitDy=0;fontFamily=Times New Roman;fontSize=18;strokeWidth=1.5;" edge="1" parent="1" source="5YERZEK7RzYkh-wPf8vQ-311" target="5YERZEK7RzYkh-wPf8vQ-313">
          <mxGeometry relative="1" as="geometry" />
        </mxCell>
        <mxCell id="5YERZEK7RzYkh-wPf8vQ-311" value="&lt;font face=&quot;Times New Roman&quot; style=&quot;font-size: 24px&quot;&gt;ReLu&lt;/font&gt;" style="rounded=1;whiteSpace=wrap;html=1;fillColor=#d5e8d4;strokeColor=#82b366;strokeWidth=1.5;" vertex="1" parent="1">
          <mxGeometry x="695" y="2911" width="130" height="40" as="geometry" />
        </mxCell>
        <mxCell id="5YERZEK7RzYkh-wPf8vQ-312" style="edgeStyle=orthogonalEdgeStyle;rounded=0;orthogonalLoop=1;jettySize=auto;html=1;exitX=0.5;exitY=1;exitDx=0;exitDy=0;entryX=0.5;entryY=0;entryDx=0;entryDy=0;fontFamily=Times New Roman;fontSize=18;strokeWidth=1.5;" edge="1" parent="1" source="5YERZEK7RzYkh-wPf8vQ-313" target="5YERZEK7RzYkh-wPf8vQ-315">
          <mxGeometry relative="1" as="geometry" />
        </mxCell>
        <mxCell id="5YERZEK7RzYkh-wPf8vQ-313" value="&lt;font style=&quot;font-size: 24px&quot;&gt;&lt;span style=&quot;font-family: &amp;#34;times new roman&amp;#34;&quot;&gt;1×&lt;/span&gt;&lt;span style=&quot;font-family: &amp;#34;times new roman&amp;#34;&quot;&gt;1&lt;/span&gt;&lt;font face=&quot;Times New Roman&quot;&gt;&amp;nbsp;Conv&lt;/font&gt;&lt;/font&gt;" style="rounded=1;whiteSpace=wrap;html=1;fillColor=#fff2cc;strokeColor=#d6b656;strokeWidth=1.5;" vertex="1" parent="1">
          <mxGeometry x="695" y="2974" width="130" height="40" as="geometry" />
        </mxCell>
        <mxCell id="5YERZEK7RzYkh-wPf8vQ-314" value="" style="edgeStyle=orthogonalEdgeStyle;rounded=0;orthogonalLoop=1;jettySize=auto;html=1;fontFamily=Times New Roman;fontSize=18;strokeWidth=1.5;" edge="1" parent="1" source="5YERZEK7RzYkh-wPf8vQ-315" target="5YERZEK7RzYkh-wPf8vQ-317">
          <mxGeometry relative="1" as="geometry" />
        </mxCell>
        <mxCell id="5YERZEK7RzYkh-wPf8vQ-315" value="&lt;font face=&quot;Times New Roman&quot; style=&quot;font-size: 20px&quot;&gt;InstanceNorm&lt;/font&gt;" style="rounded=1;whiteSpace=wrap;html=1;fillColor=#dae8fc;strokeColor=#6c8ebf;strokeWidth=1.5;" vertex="1" parent="1">
          <mxGeometry x="695" y="3038" width="130" height="40" as="geometry" />
        </mxCell>
        <mxCell id="5YERZEK7RzYkh-wPf8vQ-316" style="edgeStyle=orthogonalEdgeStyle;rounded=0;orthogonalLoop=1;jettySize=auto;html=1;exitX=0.5;exitY=1;exitDx=0;exitDy=0;entryX=1;entryY=0.5;entryDx=0;entryDy=0;fontSize=20;strokeWidth=1.5;" edge="1" parent="1" source="5YERZEK7RzYkh-wPf8vQ-317" target="5YERZEK7RzYkh-wPf8vQ-305">
          <mxGeometry relative="1" as="geometry">
            <Array as="points">
              <mxPoint x="760" y="3155" />
              <mxPoint x="647" y="3155" />
            </Array>
          </mxGeometry>
        </mxCell>
        <mxCell id="5YERZEK7RzYkh-wPf8vQ-317" value="&lt;span style=&quot;font-family: &amp;#34;times new roman&amp;#34;&quot;&gt;&lt;font style=&quot;font-size: 24px&quot;&gt;ReLu&lt;/font&gt;&lt;/span&gt;" style="rounded=1;whiteSpace=wrap;html=1;fillColor=#d5e8d4;strokeColor=#82b366;strokeWidth=1.5;" vertex="1" parent="1">
          <mxGeometry x="695" y="3101" width="130" height="40" as="geometry" />
        </mxCell>
        <mxCell id="5YERZEK7RzYkh-wPf8vQ-318" style="edgeStyle=orthogonalEdgeStyle;rounded=0;orthogonalLoop=1;jettySize=auto;html=1;exitX=0.5;exitY=1;exitDx=0;exitDy=0;entryX=0.5;entryY=0;entryDx=0;entryDy=0;fontFamily=Times New Roman;fontSize=18;strokeWidth=1.5;" edge="1" parent="1" source="5YERZEK7RzYkh-wPf8vQ-319" target="5YERZEK7RzYkh-wPf8vQ-321">
          <mxGeometry relative="1" as="geometry" />
        </mxCell>
        <mxCell id="5YERZEK7RzYkh-wPf8vQ-319" value="&lt;font style=&quot;font-size: 24px&quot;&gt;&lt;span style=&quot;font-family: &amp;#34;times new roman&amp;#34;&quot;&gt;1×&lt;/span&gt;&lt;span style=&quot;font-family: &amp;#34;times new roman&amp;#34;&quot;&gt;1&lt;/span&gt;&lt;font face=&quot;Times New Roman&quot;&gt;&amp;nbsp;Conv&lt;/font&gt;&lt;/font&gt;" style="rounded=1;whiteSpace=wrap;html=1;fillColor=#fff2cc;strokeColor=#d6b656;strokeWidth=1.5;" vertex="1" parent="1">
          <mxGeometry x="695" y="2594" width="130" height="40" as="geometry" />
        </mxCell>
        <mxCell id="5YERZEK7RzYkh-wPf8vQ-320" value="" style="edgeStyle=orthogonalEdgeStyle;rounded=0;orthogonalLoop=1;jettySize=auto;html=1;fontFamily=Times New Roman;fontSize=18;strokeWidth=1.5;" edge="1" parent="1" source="5YERZEK7RzYkh-wPf8vQ-321" target="5YERZEK7RzYkh-wPf8vQ-323">
          <mxGeometry relative="1" as="geometry" />
        </mxCell>
        <mxCell id="5YERZEK7RzYkh-wPf8vQ-321" value="&lt;font face=&quot;Times New Roman&quot; style=&quot;font-size: 20px&quot;&gt;InstanceNorm&lt;/font&gt;" style="rounded=1;whiteSpace=wrap;html=1;fillColor=#dae8fc;strokeColor=#6c8ebf;strokeWidth=1.5;" vertex="1" parent="1">
          <mxGeometry x="695" y="2657" width="130" height="40" as="geometry" />
        </mxCell>
        <mxCell id="5YERZEK7RzYkh-wPf8vQ-322" style="edgeStyle=orthogonalEdgeStyle;rounded=0;orthogonalLoop=1;jettySize=auto;html=1;exitX=0.5;exitY=1;exitDx=0;exitDy=0;entryX=0.5;entryY=0;entryDx=0;entryDy=0;fontFamily=Times New Roman;fontSize=18;strokeWidth=1.5;" edge="1" parent="1" source="5YERZEK7RzYkh-wPf8vQ-323" target="5YERZEK7RzYkh-wPf8vQ-307">
          <mxGeometry relative="1" as="geometry" />
        </mxCell>
        <mxCell id="5YERZEK7RzYkh-wPf8vQ-323" value="&lt;span style=&quot;font-family: &amp;#34;times new roman&amp;#34;&quot;&gt;&lt;font style=&quot;font-size: 24px&quot;&gt;ReLu&lt;/font&gt;&lt;/span&gt;" style="rounded=1;whiteSpace=wrap;html=1;fillColor=#d5e8d4;strokeColor=#82b366;strokeWidth=1.5;" vertex="1" parent="1">
          <mxGeometry x="695" y="2721" width="130" height="40" as="geometry" />
        </mxCell>
        <mxCell id="5YERZEK7RzYkh-wPf8vQ-324" style="edgeStyle=orthogonalEdgeStyle;rounded=0;orthogonalLoop=1;jettySize=auto;html=1;fontFamily=Times New Roman;fontSize=18;strokeWidth=1.5;entryX=0.5;entryY=0;entryDx=0;entryDy=0;" edge="1" parent="1" target="5YERZEK7RzYkh-wPf8vQ-273">
          <mxGeometry relative="1" as="geometry">
            <mxPoint x="415" y="2550" as="sourcePoint" />
            <mxPoint x="147" y="2662" as="targetPoint" />
            <Array as="points">
              <mxPoint x="147" y="2550" />
            </Array>
          </mxGeometry>
        </mxCell>
        <mxCell id="5YERZEK7RzYkh-wPf8vQ-325" style="edgeStyle=orthogonalEdgeStyle;rounded=0;orthogonalLoop=1;jettySize=auto;html=1;exitX=0.5;exitY=1;exitDx=0;exitDy=0;strokeWidth=2;" edge="1" parent="1" source="5YERZEK7RzYkh-wPf8vQ-326" target="5YERZEK7RzYkh-wPf8vQ-328">
          <mxGeometry relative="1" as="geometry" />
        </mxCell>
        <mxCell id="5YERZEK7RzYkh-wPf8vQ-326" value="" style="shape=orEllipse;perimeter=ellipsePerimeter;whiteSpace=wrap;html=1;backgroundOutline=1;fontFamily=Times New Roman;fontSize=18;strokeWidth=1.5;" vertex="1" parent="1">
          <mxGeometry x="355" y="3183" width="25" height="25" as="geometry" />
        </mxCell>
        <mxCell id="5YERZEK7RzYkh-wPf8vQ-327" style="edgeStyle=orthogonalEdgeStyle;rounded=0;orthogonalLoop=1;jettySize=auto;html=1;strokeWidth=2;" edge="1" parent="1" source="5YERZEK7RzYkh-wPf8vQ-328">
          <mxGeometry relative="1" as="geometry">
            <mxPoint x="367.5" y="3323.0000000000005" as="targetPoint" />
          </mxGeometry>
        </mxCell>
        <mxCell id="5YERZEK7RzYkh-wPf8vQ-328" value="&lt;font face=&quot;Times New Roman&quot; style=&quot;font-size: 24px&quot;&gt;LeakyReLu&lt;/font&gt;" style="rounded=1;whiteSpace=wrap;html=1;fillColor=#d5e8d4;strokeColor=#82b366;strokeWidth=1.5;" vertex="1" parent="1">
          <mxGeometry x="302.5" y="3243" width="130" height="40" as="geometry" />
        </mxCell>
        <mxCell id="5YERZEK7RzYkh-wPf8vQ-329" style="edgeStyle=orthogonalEdgeStyle;rounded=0;orthogonalLoop=1;jettySize=auto;html=1;fontFamily=Times New Roman;fontSize=18;strokeWidth=1.5;entryX=0.5;entryY=0;entryDx=0;entryDy=0;" edge="1" parent="1" target="5YERZEK7RzYkh-wPf8vQ-319">
          <mxGeometry relative="1" as="geometry">
            <mxPoint x="587.0000000000005" y="2567.9999999999995" as="sourcePoint" />
            <mxPoint x="760" y="2592" as="targetPoint" />
            <Array as="points">
              <mxPoint x="587" y="2572" />
              <mxPoint x="760" y="2572" />
            </Array>
          </mxGeometry>
        </mxCell>
        <mxCell id="5YERZEK7RzYkh-wPf8vQ-330" style="edgeStyle=orthogonalEdgeStyle;rounded=0;orthogonalLoop=1;jettySize=auto;html=1;fontFamily=Times New Roman;fontSize=18;strokeWidth=1.5;" edge="1" parent="1" target="5YERZEK7RzYkh-wPf8vQ-287">
          <mxGeometry relative="1" as="geometry">
            <mxPoint x="595" y="2572" as="sourcePoint" />
            <mxPoint x="415" y="2752" as="targetPoint" />
          </mxGeometry>
        </mxCell>
        <mxCell id="5YERZEK7RzYkh-wPf8vQ-331" style="edgeStyle=orthogonalEdgeStyle;rounded=0;orthogonalLoop=1;jettySize=auto;html=1;fontFamily=Times New Roman;fontSize=18;strokeWidth=1.5;entryX=1;entryY=0.5;entryDx=0;entryDy=0;" edge="1" parent="1" target="5YERZEK7RzYkh-wPf8vQ-285">
          <mxGeometry relative="1" as="geometry">
            <mxPoint x="146.99999999999955" y="2555" as="sourcePoint" />
            <mxPoint x="165" y="3125" as="targetPoint" />
            <Array as="points">
              <mxPoint x="147" y="2622" />
              <mxPoint x="265" y="2622" />
              <mxPoint x="265" y="3126" />
            </Array>
          </mxGeometry>
        </mxCell>
        <mxCell id="5YERZEK7RzYkh-wPf8vQ-332" style="edgeStyle=orthogonalEdgeStyle;rounded=0;orthogonalLoop=1;jettySize=auto;html=1;fontFamily=Times New Roman;fontSize=18;strokeWidth=1.5;" edge="1" parent="1" target="5YERZEK7RzYkh-wPf8vQ-293">
          <mxGeometry relative="1" as="geometry">
            <mxPoint x="415" y="2550" as="sourcePoint" />
            <mxPoint x="587" y="2672" as="targetPoint" />
            <Array as="points">
              <mxPoint x="587" y="2550" />
            </Array>
          </mxGeometry>
        </mxCell>
        <mxCell id="5YERZEK7RzYkh-wPf8vQ-333" value="" style="rounded=0.8;whiteSpace=wrap;html=1;fontSize=24;dashed=1;gradientColor=#ffffff;fillColor=none;strokeColor=#97D077;strokeWidth=3;" vertex="1" parent="1">
          <mxGeometry x="326" y="2563" width="530" height="612" as="geometry" />
        </mxCell>
        <mxCell id="5YERZEK7RzYkh-wPf8vQ-334" value="" style="rounded=0.8;whiteSpace=wrap;html=1;fontSize=24;dashed=1;gradientColor=#ffffff;fillColor=none;strokeColor=#A9C4EB;strokeWidth=3;" vertex="1" parent="1">
          <mxGeometry x="43" y="2563" width="257.5" height="612" as="geometry" />
        </mxCell>
        <mxCell id="5YERZEK7RzYkh-wPf8vQ-335" value="&lt;font face=&quot;Times New Roman&quot;&gt;Part A&lt;/font&gt;" style="whiteSpace=wrap;html=1;rounded=1;dashed=1;fontSize=24;strokeColor=none;strokeWidth=3;fillColor=none;gradientColor=#ffffff;" vertex="1" parent="1">
          <mxGeometry x="31" y="2575" width="120" height="60" as="geometry" />
        </mxCell>
        <mxCell id="5YERZEK7RzYkh-wPf8vQ-336" value="&lt;font face=&quot;Times New Roman&quot;&gt;Part B&lt;/font&gt;" style="whiteSpace=wrap;html=1;rounded=1;dashed=1;fontSize=24;strokeColor=none;strokeWidth=3;fillColor=none;gradientColor=#ffffff;" vertex="1" parent="1">
          <mxGeometry x="313" y="2575" width="120" height="60" as="geometry" />
        </mxCell>
      </root>
    </mxGraphModel>
  </diagram>
</mxfile>
